<svg version="1.1" id="Layer_1" xmlns="http://www.w3.org/2000/svg" xmlns:xlink="http://www.w3.org/1999/xlink" x="0px" y="0px"
	 width="100%" viewBox="0 0 2546 78" enable-background="new 0 0 2546 78" xml:space="preserve">
<path fill="#363C3C" opacity="1.000000" stroke="none" 
	d="
M1.000000,68.000000 
	C1.000000,45.670181 1.000000,23.340363 1.000000,1.005271 
	C829.699402,1.000000 1658.398804,1.000000 2487.549316,1.439816 
	C2487.771729,4.163237 2487.663818,6.466733 2487.291260,8.726614 
	C2486.253662,15.021503 2485.106201,21.298309 2483.625000,27.664623 
	C2482.227539,27.862499 2481.207275,27.978014 2479.813965,28.211269 
	C2477.129395,32.820518 2477.508545,41.138832 2480.461914,43.956947 
	C2481.184814,44.004360 2481.598145,44.020267 2482.009033,44.502495 
	C2482.001221,50.635643 2481.910889,56.304131 2482.020996,61.968708 
	C2482.091553,65.597206 2480.490967,67.085709 2476.907471,67.021843 
	C2470.742920,66.911972 2464.575195,66.999298 2458.408691,66.999565 
	C2435.243164,67.000549 2412.077393,67.008842 2388.911865,66.994148 
	C2382.029297,66.989784 2381.628418,66.568947 2380.960693,59.848740 
	C2380.847900,58.711433 2380.367920,57.610607 2380.057373,56.492931 
	C2379.606689,56.514385 2379.155762,56.535839 2378.704834,56.557293 
	C2378.469971,57.898972 2377.986816,59.251343 2378.043945,60.580433 
	C2378.249756,65.350883 2375.943115,67.282494 2371.350586,67.014465 
	C2369.523682,66.907837 2367.685059,66.999863 2365.851807,66.999863 
	C1687.882812,67.000000 1009.913879,66.997917 331.944885,67.055717 
	C328.350739,67.056030 324.765961,68.070183 321.158020,68.267227 
	C319.709778,68.346321 317.768005,67.937012 316.819489,66.984558 
	C314.174561,64.328613 312.053223,64.680679 309.560822,67.088753 
	C305.762329,70.758751 297.944733,71.236389 294.082153,67.770706 
	C293.157745,66.941299 292.803436,63.853123 293.536774,63.073421 
	C297.196594,59.182274 301.868866,57.476826 307.007446,59.851894 
	C310.163422,61.310593 311.279724,60.105480 312.384186,57.289406 
	C316.949402,56.719154 320.523468,55.323399 322.491272,50.815014 
	C323.152313,50.085373 323.769897,49.544407 323.776581,48.996014 
	C323.872009,41.129108 324.006042,33.257816 323.785919,25.397236 
	C323.753418,24.237053 321.950867,23.126438 320.768616,21.714909 
	C318.261719,20.016975 316.024994,17.533619 313.632050,17.372650 
	C305.858704,16.849756 298.024078,17.024502 290.221069,17.232376 
	C285.252075,17.364752 282.173462,20.903353 282.142303,25.952976 
	C282.100250,32.764534 282.456207,39.596676 282.031616,46.381828 
	C281.709412,51.530891 283.350922,55.043468 287.768890,57.450321 
	C286.201691,58.876762 283.996185,59.835880 283.641846,61.256680 
	C282.242004,66.869514 278.368561,67.062141 273.699249,67.057877 
	C187.265106,66.978897 100.830856,66.985123 14.396674,67.042557 
	C9.930905,67.045525 5.465549,67.666664 1.000000,68.000000 
M1181.900635,38.635529 
	C1182.262329,39.102798 1182.624023,39.570068 1183.111938,40.720482 
	C1183.954834,41.488770 1184.797852,42.257057 1186.032349,43.585239 
	C1188.052612,43.403854 1190.072754,43.222469 1192.725708,42.858475 
	C1193.307861,41.043873 1193.890137,39.229271 1195.393433,37.324764 
	C1195.811890,38.566826 1196.115723,39.864388 1196.682495,41.034615 
	C1197.201782,42.107018 1198.004883,43.041939 1198.682861,44.037464 
	C1199.597290,43.260536 1200.970825,42.656242 1201.340210,41.674297 
	C1202.445068,38.736969 1203.157104,35.651794 1204.022461,32.624352 
	C1203.627563,32.390068 1203.232666,32.155785 1202.837646,31.921501 
	C1201.493042,33.099506 1200.148315,34.277515 1199.344238,34.981960 
	C1195.927124,34.056866 1192.986694,33.260857 1189.285278,32.264618 
	C1187.975342,32.247608 1186.665527,32.230598 1184.568726,32.121754 
	C1183.228516,31.311028 1181.956299,30.342472 1180.531006,29.729679 
	C1178.763794,28.969923 1176.870117,28.504879 1174.156250,27.857878 
	C1172.218140,27.865292 1170.041992,27.320000 1170.140503,30.570951 
	C1170.273804,34.968014 1170.173584,39.372150 1170.173584,45.554543 
	C1173.851318,43.844334 1176.406616,42.656094 1179.321411,41.260685 
	C1179.536377,40.815178 1179.751343,40.369667 1180.487549,39.240128 
	C1180.660278,39.011456 1180.833130,38.782780 1181.900635,38.635529 
M2420.508301,29.536310 
	C2420.322998,30.521698 2420.137451,31.507086 2419.801025,32.815296 
	C2419.750244,33.063843 2419.799805,33.290577 2419.992432,34.515293 
	C2420.742920,35.255260 2418.387695,38.538982 2421.897705,36.949100 
	C2421.897705,36.949100 2421.877197,36.955643 2420.837646,36.648815 
	C2421.128174,38.890182 2421.140137,41.232109 2421.888916,43.308052 
	C2422.097412,43.885563 2425.111328,44.339737 2425.775635,43.717178 
	C2429.616943,40.117104 2433.709961,40.677280 2438.174561,41.992435 
	C2439.199463,42.294384 2440.739746,41.388588 2441.793213,40.671597 
	C2442.056396,40.492493 2441.349854,38.888660 2440.995361,37.051376 
	C2440.984375,36.063164 2441.105469,35.051666 2440.936035,34.091492 
	C2440.566406,31.996580 2440.048584,29.927809 2439.591309,27.848425 
	C2437.950684,29.649277 2436.306885,31.447001 2434.681396,33.261372 
	C2434.606689,33.344612 2434.700684,33.578930 2434.212891,34.207283 
	C2432.811768,35.797031 2431.410889,37.386784 2429.720215,38.220222 
	C2428.805664,35.032932 2427.891113,31.845644 2426.444092,28.214487 
	C2425.301270,28.140223 2424.158691,28.065958 2422.383545,28.054251 
	C2421.947266,28.380814 2421.511230,28.707376 2420.508301,29.536310 
M1307.029663,31.994345 
	C1307.029663,31.994345 1307.061157,32.040379 1306.495728,32.356106 
	C1305.926880,33.018917 1305.358154,33.681725 1304.072998,34.076920 
	C1302.423218,33.407391 1300.803345,32.274490 1299.117310,32.165123 
	C1295.641846,31.939697 1290.963867,30.937262 1291.244385,36.645699 
	C1291.399414,39.797127 1292.321899,43.723484 1294.402100,45.777588 
	C1297.536011,48.872227 1301.119019,46.369652 1304.548706,44.293556 
	C1305.356689,44.866158 1306.164673,45.438755 1307.537476,46.418583 
	C1308.377686,45.408241 1309.659058,44.511250 1309.954590,43.360901 
	C1310.397217,41.639114 1309.868408,39.669575 1310.300293,37.942379 
	C1310.543701,36.968994 1311.774536,35.931355 1312.782715,35.601788 
	C1313.234009,35.454220 1314.655640,36.865189 1314.885742,37.761703 
	C1315.288696,39.331547 1314.905273,41.093418 1315.239868,42.693615 
	C1315.541992,44.139729 1316.363403,45.477291 1316.955811,46.862740 
	C1317.703369,46.699867 1318.450806,46.536995 1319.198364,46.374126 
	C1318.814087,41.602715 1318.429810,36.831306 1317.369263,31.601971 
	C1313.920410,31.751123 1310.471436,31.900274 1307.029663,31.994345 
M218.057617,32.147373 
	C217.898575,30.842659 217.739548,29.537945 217.580521,28.233229 
	C217.108978,28.254667 216.637451,28.276106 216.165909,28.297544 
	C216.165909,32.534481 216.165909,36.771416 216.053635,41.737083 
	C216.337112,45.579056 219.643250,44.052643 221.241653,43.987282 
	C222.588852,43.932190 224.324554,41.856735 225.005402,40.291531 
	C225.675690,38.750576 225.235703,36.726658 225.610229,34.434963 
	C225.773254,32.103756 225.014389,31.423443 222.690491,33.163269 
	C222.690491,33.163269 222.326401,33.180889 221.511536,33.113342 
	C220.423508,33.059593 219.335464,33.005844 218.057617,32.147373 
M262.511414,33.987953 
	C262.511414,33.987953 262.561676,33.915039 262.805511,32.906544 
	C261.554901,32.945702 260.304291,32.984859 258.386200,32.993561 
	C257.718323,32.976768 257.050446,32.959976 255.737106,32.356892 
	C246.943222,31.438793 246.944946,31.438803 246.900818,40.102844 
	C246.894043,41.434814 246.863052,42.766666 246.130737,44.593700 
	C245.467255,44.129963 244.331085,43.758148 244.220001,43.186985 
	C243.662308,40.319241 243.813004,37.243599 242.858109,34.544044 
	C241.997818,32.111946 240.029221,30.071877 237.843826,26.803659 
	C235.696777,33.309578 234.146866,38.006016 232.596970,42.702454 
	C233.162231,43.085110 233.727478,43.467766 234.292740,43.850422 
	C234.984131,42.742741 235.515884,40.870777 236.400070,40.686096 
	C238.254379,40.298771 240.395264,40.469555 242.227829,41.032177 
	C243.893494,41.543564 245.306686,42.877243 246.877396,44.740948 
	C247.069275,45.993214 247.261139,47.245476 247.539932,49.065063 
	C249.490417,47.063263 250.766083,45.754047 252.635422,44.739399 
	C254.723267,43.833580 256.811127,42.927761 259.044373,42.833611 
	C259.314941,44.770927 259.585510,46.708244 259.856049,48.645557 
	C260.403015,48.578720 260.949951,48.511879 261.496887,48.445038 
	C261.855804,47.106186 262.214722,45.767330 262.641388,44.175705 
	C266.937897,45.143528 268.659821,42.494858 270.271637,38.870079 
	C270.355438,38.262062 270.439209,37.654045 270.207947,36.329468 
	C269.550659,35.212917 269.156799,33.642017 268.180359,33.075813 
	C266.236664,31.948706 263.787720,30.294239 262.511414,33.987953 
M1210.672485,41.613400 
	C1211.412598,41.788055 1212.152710,41.962711 1213.172363,42.697685 
	C1215.685913,44.847580 1218.063599,44.931293 1221.074219,41.962589 
	C1221.846680,41.626812 1222.619141,41.291035 1223.903320,41.449677 
	C1226.083618,44.704708 1228.704590,45.307816 1232.262085,42.744404 
	C1232.155762,42.187710 1232.049561,41.631016 1231.181274,40.839611 
	C1229.573364,40.657154 1227.965454,40.474693 1226.357544,40.292236 
	C1226.362427,39.813694 1226.367310,39.335155 1226.372192,38.856613 
	C1228.696533,38.548615 1231.020752,38.240612 1234.791504,37.740929 
	C1232.838501,35.426228 1231.797974,33.090652 1230.112671,32.449158 
	C1227.459351,31.439119 1224.446167,31.748428 1222.492676,34.943558 
	C1221.594727,34.094795 1220.696655,33.246033 1218.992432,32.221985 
	C1216.604126,32.608639 1213.372925,30.656025 1211.578979,34.456699 
	C1211.010254,34.023678 1210.441528,33.590652 1209.481079,32.602749 
	C1208.733643,32.676888 1207.340088,32.711983 1207.332886,32.830841 
	C1207.124268,36.284470 1206.434692,39.892921 1207.204712,43.149651 
	C1207.634766,44.968174 1209.856934,44.557274 1210.672485,41.613400 
M188.122055,32.607841 
	C187.767471,32.022381 187.412903,31.436922 187.074600,30.241589 
	C186.563538,29.458691 186.052460,28.675795 185.541382,27.892897 
	C185.061066,28.092276 184.580765,28.291656 184.100449,28.491037 
	C185.425354,33.752972 186.750244,39.014904 188.075150,44.276840 
	C188.789062,44.231888 189.502991,44.186935 190.216904,44.141983 
	C190.470642,42.425861 190.724380,40.709743 191.225464,38.353477 
	C191.863602,37.019943 192.501755,35.686405 193.098694,34.438976 
	C194.642838,38.057083 195.990234,41.214149 197.337616,44.371216 
	C198.000809,44.268894 198.663986,44.166569 199.327164,44.064247 
	C199.947678,39.022949 200.568192,33.981655 201.116974,29.523083 
	C200.149567,31.064976 198.914078,33.034111 197.507355,35.276176 
	C194.068176,29.240583 194.068176,29.240583 191.198380,29.340500 
	C191.115555,30.809799 191.241852,32.357159 190.829422,33.744347 
	C190.692841,34.203747 189.169250,34.250763 188.361099,33.974667 
	C188.251221,33.653347 188.141327,33.332031 188.122055,32.607841 
M65.590347,35.549721 
	C63.614349,37.816109 60.255608,40.153454 66.595207,42.365459 
	C69.258446,45.670761 72.478310,44.683769 73.857323,41.890507 
	C75.036179,39.502663 74.949722,35.733433 73.838333,33.298450 
	C73.301865,32.123070 69.123497,32.562363 66.586548,32.460743 
	C66.427101,32.454353 66.201271,34.105141 65.590347,35.549721 
M105.390419,36.261539 
	C103.391083,38.470913 101.391747,40.680283 98.592133,43.774006 
	C103.673172,43.774006 107.149529,43.774006 110.625885,43.774006 
	C110.725548,43.345020 110.825203,42.916039 110.924866,42.487053 
	C108.937256,41.744793 106.949654,41.002537 104.864754,40.223946 
	C106.031258,39.002541 106.990555,37.998100 108.565422,36.576294 
	C109.032104,34.998707 110.086998,33.304417 109.803528,31.875662 
	C109.507584,30.384041 107.935638,28.039682 106.898949,28.027740 
	C104.637772,28.001694 102.334534,29.150810 100.137444,30.039631 
	C99.928062,30.124332 100.345497,31.758451 100.434708,32.403915 
	C102.649010,31.532261 104.273315,30.892860 105.897621,30.253460 
	C105.950485,32.183544 106.003349,34.113632 105.390419,36.261539 
M129.919510,37.908176 
	C131.649231,40.009865 133.211182,42.306618 135.244522,44.055244 
	C135.671646,44.422569 137.831726,42.774792 139.942200,41.884331 
	C140.639252,40.412373 141.719986,38.997349 141.948685,37.455902 
	C142.350784,34.745922 142.231750,31.958620 143.039688,28.954697 
	C143.845886,28.775881 144.648636,28.462698 145.458893,28.441866 
	C148.703812,28.358437 152.097504,28.128490 149.052612,33.093430 
	C147.796555,35.141529 146.843430,37.428631 146.106674,39.720856 
	C145.702164,40.979446 146.034317,42.474812 146.034317,43.863419 
	C148.572571,41.061794 151.001358,38.352165 150.992142,35.650867 
	C150.970047,29.181814 154.665131,32.153603 158.146255,33.179035 
	C158.389755,33.417145 158.633255,33.655254 158.834534,34.444427 
	C160.290695,36.267982 161.746841,38.091541 163.202988,39.915100 
	C162.901718,40.364933 162.600449,40.814766 162.299179,41.264595 
	C160.124344,40.425488 157.949509,39.586376 154.196411,38.138325 
	C155.447617,40.394024 155.894577,42.450245 157.028473,42.950993 
	C158.729355,43.702133 161.305588,44.084293 162.779022,43.281872 
	C164.241348,42.485516 165.188660,40.122059 165.629196,38.271465 
	C165.968994,36.844017 164.872101,35.133186 164.941757,33.571899 
	C165.157166,28.743595 162.491821,26.657349 157.899139,27.959923 
	C156.238556,28.430902 154.332443,27.957842 152.556534,28.117531 
	C149.160156,28.422930 145.776779,28.873095 141.688400,29.095142 
	C139.134491,28.947996 136.580582,28.800850 133.347336,29.053289 
	C132.236969,31.330923 131.126587,33.608559 129.486038,35.275364 
	C127.500427,35.194645 125.279594,35.648865 123.585938,34.904156 
	C121.218811,33.863308 119.245010,31.927935 117.102913,30.375305 
	C118.094444,29.700830 119.085976,29.026356 120.077248,28.351528 
	C116.242416,28.200827 114.319344,30.548790 113.998161,35.817551 
	C115.896225,35.973076 117.800903,36.129143 119.659904,36.281464 
	C119.937675,38.296082 120.152687,39.855450 120.449638,42.009174 
	C123.922676,40.336216 125.164230,34.996433 129.919510,37.908176 
M56.679821,34.826481 
	C56.135963,34.254837 55.592106,33.683189 54.281742,33.636086 
	C53.727066,36.669109 53.727066,36.669109 49.439701,34.592236 
	C49.643650,36.214432 50.586483,38.927994 49.939861,39.383053 
	C46.822121,41.577202 49.629803,43.553833 50.526546,43.759121 
	C52.428734,44.194580 54.818836,43.891514 56.535557,42.989956 
	C57.137589,42.673790 56.347603,39.717621 56.203568,37.966122 
	C56.120407,36.954876 56.057838,35.941936 56.679821,34.826481 
M1387.043701,42.180706 
	C1387.048706,41.794327 1387.053589,41.407948 1387.780273,40.891735 
	C1388.447266,39.415634 1390.066406,37.389584 1389.593994,36.571480 
	C1388.405640,34.514236 1386.543335,32.138077 1384.452637,31.484777 
	C1381.670776,30.615463 1378.425049,31.183601 1377.147949,34.893044 
	C1375.728882,39.014729 1375.542969,43.144058 1379.609619,45.554283 
	C1381.519287,46.686054 1384.509766,45.994148 1387.010376,46.128666 
	C1387.022583,45.004841 1387.034912,43.881020 1387.043701,42.180706 
M2469.663574,33.684319 
	C2470.515869,31.979733 2471.368408,30.275150 2472.447998,28.115919 
	C2464.541260,28.115919 2457.882568,28.115919 2451.101074,28.115919 
	C2451.101074,30.628391 2451.101074,32.736885 2451.101074,34.921974 
	C2453.015625,35.329098 2454.742920,35.696396 2457.043213,36.185581 
	C2456.591797,37.876366 2456.270264,40.547001 2455.802246,40.572899 
	C2454.057617,40.669456 2452.264648,39.897991 2450.489990,39.452271 
	C2451.023438,41.421764 2452.492676,44.007282 2453.787842,43.922817 
	C2455.881836,43.786266 2458.973877,42.357014 2459.680908,40.657036 
	C2461.834717,35.477970 2457.611816,33.210373 2453.597168,31.190098 
	C2453.710449,30.794792 2453.823730,30.399487 2453.937012,30.004181 
	C2458.602051,30.004181 2463.267090,30.004181 2468.501709,30.004181 
	C2468.080078,31.585340 2467.761963,32.778576 2467.020264,34.545311 
	C2465.646729,37.571190 2463.157959,40.357258 2464.038574,43.867798 
	C2464.553223,44.013348 2465.067627,44.158901 2465.582275,44.304451 
	C2466.749512,40.881027 2467.916992,37.457607 2469.663574,33.684319 
M2298.826416,37.556362 
	C2297.872803,40.488407 2296.919189,43.420448 2295.871582,46.641769 
	C2305.814697,46.641769 2316.219727,46.641769 2326.624756,46.641769 
	C2327.093750,46.368484 2327.562988,46.095203 2328.031982,45.821918 
	C2321.859375,42.758736 2322.889893,37.665112 2323.080811,32.961174 
	C2323.319824,27.079010 2321.723877,22.542681 2315.812012,20.239027 
	C2315.055664,19.944283 2314.653809,18.800898 2314.022705,18.110518 
	C2312.989014,16.980211 2311.901611,15.899013 2310.836914,14.797111 
	C2309.780762,15.952254 2308.695801,17.082962 2307.682129,18.274187 
	C2307.263428,18.766346 2307.134033,19.674210 2306.642090,19.908779 
	C2299.404541,23.360367 2298.848877,29.879284 2298.826416,37.556362 
M1362.760376,31.990545 
	C1354.436279,30.550991 1351.990723,32.840183 1352.949707,41.174057 
	C1353.554199,46.427227 1358.531006,48.732372 1362.756470,45.519142 
	C1363.962280,44.602226 1364.500610,42.807552 1365.345093,41.415428 
	C1363.897827,41.630665 1362.455811,41.953243 1361.001465,42.026752 
	C1359.862671,42.084301 1357.989014,42.197399 1357.708984,41.644318 
	C1357.107178,40.455730 1356.932617,38.717323 1357.364502,37.475906 
	C1357.589233,36.830215 1359.496094,36.433449 1360.606934,36.502625 
	C1362.891357,36.644882 1365.151489,37.176060 1367.621094,37.579781 
	C1369.722412,47.758690 1369.806763,47.862537 1374.771606,45.553745 
	C1371.415039,41.589333 1370.419067,37.489994 1374.686768,33.476223 
	C1373.139648,31.607498 1371.758667,29.939503 1370.932251,28.941301 
	C1368.053467,30.171434 1365.818359,31.126490 1362.760376,31.990545 
M1401.277710,46.910637 
	C1402.757690,45.967960 1405.424683,45.127350 1405.515991,44.065273 
	C1405.953247,38.979950 1405.995850,33.808586 1405.558228,28.721169 
	C1405.324463,26.003304 1402.111938,24.901564 1401.022705,27.170401 
	C1399.433960,30.479805 1397.341309,31.281275 1394.239014,31.589937 
	C1393.498535,31.663607 1392.310913,32.820972 1392.280273,33.521351 
	C1392.119873,37.204697 1391.422852,41.225266 1392.665405,44.454044 
	C1393.268799,46.021637 1397.701172,46.115658 1401.277710,46.910637 
M2373.294678,38.334648 
	C2373.878662,42.856632 2376.590088,45.020649 2381.009033,44.978184 
	C2384.784912,44.941906 2387.084473,42.795750 2387.906250,39.201099 
	C2388.846191,35.089474 2386.398193,32.604111 2383.259521,30.763264 
	C2379.337891,28.463444 2375.226318,31.339918 2373.294678,38.334648 
M1287.009155,28.490231 
	C1283.094604,24.927862 1279.299683,25.400148 1275.506104,28.742035 
	C1273.276978,30.705780 1271.730713,39.053551 1273.550415,42.172310 
	C1275.493042,45.501572 1278.550903,47.672466 1282.645630,46.895111 
	C1286.297485,46.201820 1288.682007,43.983570 1289.208130,38.794483 
	C1286.941406,39.769676 1285.324219,40.202789 1284.014160,41.089653 
	C1281.976929,42.469063 1279.322388,44.204788 1278.218140,41.298435 
	C1277.180420,38.567097 1277.326050,34.793953 1278.381104,32.023880 
	C1279.467773,29.171274 1282.075439,30.536383 1284.165894,32.050697 
	C1285.223633,32.816929 1286.754028,32.930649 1288.070679,33.339371 
	C1287.907471,31.886309 1287.744141,30.433247 1287.009155,28.490231 
M1326.904419,40.637966 
	C1327.733398,38.904560 1328.562378,37.171154 1329.391357,35.437809 
	C1330.266357,37.282986 1331.357056,39.061481 1331.953979,40.992596 
	C1332.518555,42.819561 1332.564697,44.806789 1332.944458,47.461292 
	C1335.979980,44.089546 1336.857056,35.300179 1334.949585,33.318226 
	C1334.329102,32.673454 1333.254883,32.304344 1332.329224,32.138935 
	C1322.481934,30.379120 1320.691650,31.797159 1321.271240,41.582901 
	C1321.379028,43.402222 1323.172607,45.121696 1324.188110,46.887272 
	C1325.092529,45.093346 1325.997070,43.299419 1326.904419,40.637966 
M1344.478760,32.045757 
	C1338.817261,32.547989 1337.831421,33.700035 1337.996704,39.619381 
	C1338.115112,43.864784 1340.747314,46.868481 1344.413574,47.012157 
	C1349.658203,47.217690 1350.127808,43.227188 1350.606445,39.633137 
	C1351.127075,35.725166 1350.637695,32.087524 1344.478760,32.045757 
M30.130054,41.927837 
	C32.375553,44.765713 34.806755,45.108650 37.896259,42.276833 
	C36.905506,42.095379 36.251160,42.097286 35.710304,41.850483 
	C34.666870,41.374344 33.687534,40.757729 32.681622,40.199356 
	C33.646404,39.608654 34.544060,38.765514 35.591827,38.486919 
	C37.131180,38.077599 38.777779,38.071587 40.557159,37.873932 
	C40.669701,38.892555 40.632046,39.727722 40.873539,40.472359 
	C41.273865,41.706753 41.853798,42.882893 42.358070,44.083576 
	C42.930313,42.933830 43.869434,41.823376 43.997646,40.626080 
	C44.256508,38.208702 44.074795,35.744141 44.074795,31.883404 
	C42.034534,33.655735 40.841724,34.691906 39.880508,35.526890 
	C38.387497,34.410679 36.978855,32.518036 35.327354,32.274879 
	C29.589363,31.430048 28.200462,33.832462 30.130054,41.927837 
M1127.684082,43.583969 
	C1130.118408,38.789185 1123.999023,30.819197 1133.239380,28.401962 
	C1128.959106,28.401962 1124.678833,28.401962 1120.398438,28.401962 
	C1124.896606,29.791065 1124.819214,33.059895 1124.624634,36.465843 
	C1124.520996,38.281258 1124.367310,40.160530 1124.734009,41.906357 
	C1124.903687,42.714775 1126.263672,43.273178 1127.684082,43.583969 
M1138.461792,32.155392 
	C1134.086182,31.811726 1133.174805,34.342831 1133.185425,38.085247 
	C1133.196045,41.821800 1135.162842,43.692875 1138.485596,44.053955 
	C1139.781738,44.194794 1141.216309,43.060123 1142.587891,42.506424 
	C1142.377808,42.082199 1142.167603,41.657974 1141.957520,41.233746 
	C1140.220703,41.001583 1138.484009,40.769417 1136.747314,40.537254 
	C1136.746216,40.030163 1136.745117,39.523071 1136.744141,39.015980 
	C1138.989014,38.600025 1141.233887,38.184071 1143.478882,37.768116 
	C1143.765137,37.325638 1144.051514,36.883160 1144.337769,36.440685 
	C1142.647339,35.012226 1140.956787,33.583771 1138.461792,32.155392 
M86.057175,32.389820 
	C83.453445,32.389820 80.849709,32.389820 78.013542,32.389820 
	C78.013542,36.344841 78.013542,40.185490 78.013542,44.026134 
	C78.581787,44.152153 79.150024,44.278172 79.718269,44.404190 
	C80.361031,40.947960 81.003792,37.491730 81.646553,34.035500 
	C82.089760,34.035992 82.532959,34.036480 82.976166,34.036972 
	C83.691566,37.441818 84.406975,40.846664 85.122383,44.251514 
	C85.638100,44.101585 86.153824,43.951660 86.669540,43.801735 
	C86.669540,40.215618 86.669540,36.629505 86.057175,32.389820 
M25.622486,29.581356 
	C24.393496,32.302406 23.164503,35.023457 21.874081,37.880516 
	C20.920959,35.696507 20.069710,33.745930 19.218460,31.795351 
	C18.542797,32.058544 17.867136,32.321735 17.191473,32.584927 
	C18.032625,35.413494 18.760767,38.283195 19.768345,41.051178 
	C20.195082,42.223499 21.208885,43.182121 21.955862,44.237869 
	C22.733309,43.122818 23.841755,42.111103 24.227985,40.873924 
	C25.543072,36.661415 26.603521,32.369419 27.816839,27.902878 
	C27.276335,28.299528 26.675032,28.740797 25.622486,29.581356 
M1156.555664,31.832756 
	C1155.389282,32.805168 1154.222900,33.777580 1153.056519,34.749996 
	C1152.775757,33.719460 1153.134399,33.285805 1153.489868,33.288330 
	C1158.192993,33.321762 1156.454468,36.923622 1156.933472,39.398693 
	C1157.223022,40.894642 1157.640015,42.719822 1158.676636,43.598984 
	C1159.430176,44.238102 1161.291626,43.570747 1161.818604,43.538048 
	C1161.120483,40.265404 1160.496582,37.846611 1160.119629,35.389927 
	C1159.881104,33.835873 1160.485474,32.002495 1159.869263,30.689901 
	C1158.826660,28.469036 1157.504517,28.801350 1156.555664,31.832756 
M204.710617,41.980461 
	C206.293839,38.247475 209.574524,37.909477 214.510101,38.239552 
	C212.999725,35.872398 212.205750,33.361809 211.165909,33.255455 
	C208.823669,33.015896 205.479355,33.197994 204.203232,34.658905 
	C203.026825,36.005642 204.018311,39.246056 204.710617,41.980461 
M1152.660034,37.916447 
	C1151.241211,37.436817 1149.212524,36.136826 1148.528564,36.645477 
	C1147.029175,37.760258 1146.211182,39.791553 1145.114990,41.448555 
	C1147.134888,42.337563 1149.277588,44.154549 1151.147095,43.907249 
	C1154.281982,43.492580 1155.215332,41.047417 1152.660034,37.916447 
z"/>
<path fill="#353B3B" opacity="1.000000" stroke="none" 
	d="
M2484.002441,27.582275 
	C2485.106201,21.298309 2486.253662,15.021503 2487.291260,8.726614 
	C2487.663818,6.466733 2487.771729,4.163237 2488.000000,1.439816 
	C2500.687500,1.000000 2513.375000,1.000000 2526.459961,1.356831 
	C2522.443359,8.644888 2520.481445,16.286455 2519.932617,24.428972 
	C2519.795166,26.471521 2519.131592,29.693977 2517.833252,30.222738 
	C2513.349609,32.048859 2514.190918,35.511417 2513.972168,38.911854 
	C2513.165283,51.449017 2516.359863,64.305832 2510.549316,76.543961 
	C2502.383057,76.691170 2494.682617,76.777878 2486.519531,76.785507 
	C2479.225830,76.671127 2472.394043,76.604950 2465.562500,76.604912 
	C1646.193237,76.600220 826.823914,76.600113 7.454625,76.616829 
	C5.303081,76.616875 3.151541,76.866791 1.000000,77.000000 
	C1.000000,74.299988 1.000000,71.599968 1.000000,68.449982 
	C5.465549,67.666664 9.930905,67.045525 14.396674,67.042557 
	C100.830856,66.985123 187.265106,66.978897 273.699249,67.057877 
	C278.368561,67.062141 282.242004,66.869514 283.641846,61.256680 
	C283.996185,59.835880 286.201691,58.876762 288.238251,57.417877 
	C296.611694,57.212009 304.303436,57.293758 311.995178,57.375507 
	C311.279724,60.105480 310.163422,61.310593 307.007446,59.851894 
	C301.868866,57.476826 297.196594,59.182274 293.536774,63.073421 
	C292.803436,63.853123 293.157745,66.941299 294.082153,67.770706 
	C297.944733,71.236389 305.762329,70.758751 309.560822,67.088753 
	C312.053223,64.680679 314.174561,64.328613 316.819489,66.984558 
	C317.768005,67.937012 319.709778,68.346321 321.158020,68.267227 
	C324.765961,68.070183 328.350739,67.056030 331.944885,67.055717 
	C1009.913879,66.997917 1687.882812,67.000000 2365.851807,66.999863 
	C2367.685059,66.999863 2369.523682,66.907837 2371.350586,67.014465 
	C2375.943115,67.282494 2378.249756,65.350883 2378.043945,60.580433 
	C2377.986816,59.251343 2378.469971,57.898972 2378.704834,56.557293 
	C2379.155762,56.535839 2379.606689,56.514385 2380.057373,56.492931 
	C2380.367920,57.610607 2380.847900,58.711433 2380.960693,59.848740 
	C2381.628418,66.568947 2382.029297,66.989784 2388.911865,66.994148 
	C2412.077393,67.008842 2435.243164,67.000549 2458.408691,66.999565 
	C2464.575195,66.999298 2470.742920,66.911972 2476.907471,67.021843 
	C2480.490967,67.085709 2482.091553,65.597206 2482.020996,61.968708 
	C2481.910889,56.304131 2482.001221,50.635643 2482.049805,44.083363 
	C2482.198486,41.659920 2482.303955,40.121929 2482.420166,38.425774 
	C2484.557129,38.306648 2486.293457,38.209858 2488.242188,38.249725 
	C2489.013428,37.676388 2489.572021,36.966389 2490.224609,36.159790 
	C2490.318604,36.063187 2490.531006,36.230011 2490.887207,36.165401 
	C2491.967773,36.013786 2492.692383,35.926777 2493.486816,36.264236 
	C2493.682129,39.196140 2493.807129,41.703579 2493.932373,44.211018 
	C2494.515625,44.279766 2495.098877,44.348515 2495.682129,44.417263 
	C2496.240967,42.160500 2496.799805,39.903740 2497.564941,36.813847 
	C2498.839355,39.776810 2499.838623,42.099777 2500.837891,44.422745 
	C2501.334717,44.399254 2501.831543,44.375759 2502.328613,44.352268 
	C2503.511963,40.887707 2504.695557,37.423149 2506.208740,34.217384 
	C2506.748047,37.584656 2506.958008,40.693127 2507.167725,43.801598 
	C2507.614502,43.782589 2508.061523,43.763577 2508.508301,43.744568 
	C2508.508301,38.608528 2508.508301,33.472488 2508.508301,28.336451 
	C2508.080322,28.115387 2507.652100,27.894323 2507.224121,27.673260 
	C2506.236084,29.491779 2505.248291,31.310301 2504.082520,33.453030 
	C2503.094971,35.307449 2502.284668,36.837658 2501.289062,38.718128 
	C2499.793701,35.358929 2498.520264,32.441772 2497.198486,29.546652 
	C2496.175781,27.306938 2494.934570,26.759375 2493.060791,29.151009 
	C2490.798828,28.714193 2488.912842,28.312031 2486.648438,27.863201 
	C2485.514160,27.738451 2484.758301,27.660372 2484.002441,27.582275 
z"/>
<path fill="#A4A297" opacity="1.000000" stroke="none" 
	d="
M1.000000,77.500008 
	C3.151541,76.866791 5.303081,76.616875 7.454625,76.616829 
	C826.823914,76.600113 1646.193237,76.600220 2465.562500,76.604912 
	C2472.394043,76.604950 2479.225830,76.671127 2486.736816,77.007843 
	C2488.277344,77.872818 2489.138672,78.436386 2490.000000,78.999977 
	C1661.832886,79.000000 833.665833,79.000526 5.498714,78.958847 
	C3.999125,78.958771 2.499569,78.333336 1.000000,77.500008 
z"/>
<path fill="#2E3434" opacity="1.000000" stroke="none" 
	d="
M2511.014648,76.483444 
	C2516.359863,64.305832 2513.165283,51.449017 2513.972168,38.911854 
	C2514.190918,35.511417 2513.349609,32.048859 2517.833252,30.222738 
	C2519.131592,29.693977 2519.795166,26.471521 2519.932617,24.428972 
	C2520.481445,16.286455 2522.443359,8.644888 2526.928711,1.356831 
	C2529.370605,1.000000 2531.741211,1.000000 2534.556152,1.468657 
	C2534.923096,26.689653 2534.845703,51.441990 2534.397461,76.268127 
	C2530.681641,76.544296 2527.337158,76.746666 2523.531738,76.899918 
	C2519.052246,76.728348 2515.033447,76.605896 2511.014648,76.483444 
z"/>
<path fill="#020202" opacity="1.000000" stroke="none" 
	d="
M2534.768066,76.194328 
	C2534.845703,51.441990 2534.923096,26.689653 2535.000488,1.468657 
	C2538.981934,1.000000 2542.963867,1.000000 2546.950195,1.000012 
	C2546.954346,27.000029 2546.954346,53.000034 2546.954346,79.000000 
	C2543.258545,79.000000 2539.608398,79.000000 2535.499512,78.646561 
	C2534.949951,77.593521 2534.859131,76.893921 2534.768066,76.194328 
z"/>
<path fill="#969999" opacity="1.000000" stroke="none" 
	d="
M2510.549316,76.543961 
	C2515.033447,76.605896 2519.052246,76.728348 2523.518555,77.241760 
	C2523.977539,78.088478 2523.988770,78.544243 2524.000000,79.000000 
	C2512.979248,79.000000 2501.958252,79.000000 2490.468750,78.999977 
	C2489.138672,78.436386 2488.277344,77.872818 2487.198975,77.086914 
	C2494.682617,76.777878 2502.383057,76.691170 2510.549316,76.543961 
z"/>
<path fill="#6E6D65" opacity="1.000000" stroke="none" 
	d="
M2524.458008,79.000000 
	C2523.988770,78.544243 2523.977539,78.088478 2523.979492,77.290878 
	C2527.337158,76.746666 2530.681641,76.544296 2534.397217,76.268127 
	C2534.859131,76.893921 2534.949951,77.593521 2535.020508,78.646561 
	C2531.638672,79.000000 2528.277344,79.000000 2524.458008,79.000000 
z"/>
<path fill="#428459" opacity="1.000000" stroke="none" 
	d="
M312.384186,57.289406 
	C304.303436,57.293758 296.611694,57.212009 288.450592,57.162708 
	C283.350922,55.043468 281.709412,51.530891 282.031616,46.381828 
	C282.456207,39.596676 282.100250,32.764534 282.142303,25.952976 
	C282.173462,20.903353 285.252075,17.364752 290.221069,17.232376 
	C298.024078,17.024502 305.858704,16.849756 313.632050,17.372650 
	C316.024994,17.533619 318.261719,20.016975 320.860870,22.124813 
	C321.445618,24.762032 321.957855,26.707266 321.994507,28.661419 
	C322.134094,36.106133 322.120270,43.553722 322.163788,51.000237 
	C320.523468,55.323399 316.949402,56.719154 312.384186,57.289406 
M308.021698,44.018715 
	C308.763916,43.882416 309.506165,43.746120 310.480316,42.631500 
	C310.502716,38.737949 310.525116,34.844402 310.723419,30.462212 
	C309.723999,30.474062 308.724579,30.485914 307.292816,30.766901 
	C307.150818,30.859907 307.008789,30.952913 306.250580,31.035564 
	C305.724701,31.691362 305.198792,32.347160 304.672913,33.002956 
	C305.405487,33.307133 306.138092,33.611309 307.298279,34.705490 
	C307.483887,37.679844 307.669464,40.654198 308.021698,44.018715 
M301.179504,32.374821 
	C300.908936,29.615900 299.491547,27.751591 297.283813,30.392010 
	C294.923615,33.214813 293.582428,36.889660 291.941437,39.924469 
	C295.175873,41.572430 297.487823,42.750393 301.192322,44.637871 
	C301.192322,40.320419 301.192322,36.754520 301.179504,32.374821 
z"/>
<path fill="#BEBFBF" opacity="1.000000" stroke="none" 
	d="
M2298.828857,37.110931 
	C2298.848877,29.879284 2299.404541,23.360367 2306.642090,19.908779 
	C2307.134033,19.674210 2307.263428,18.766346 2307.682129,18.274187 
	C2308.695801,17.082962 2309.780762,15.952254 2310.836914,14.797098 
	C2311.901611,15.899013 2312.989014,16.980211 2314.022705,18.110518 
	C2314.653809,18.800898 2315.055664,19.944283 2315.812012,20.239027 
	C2321.723877,22.542681 2323.319824,27.079010 2323.080811,32.961174 
	C2322.889893,37.665112 2321.859375,42.758736 2328.031982,45.821918 
	C2327.562988,46.095203 2327.093750,46.368484 2326.624756,46.641769 
	C2316.219727,46.641769 2305.814697,46.641769 2295.871582,46.641769 
	C2296.919189,43.420448 2297.872803,40.488407 2298.828857,37.110931 
z"/>
<path fill="#417256" opacity="1.000000" stroke="none" 
	d="
M1363.171875,32.036045 
	C1365.818359,31.126490 1368.053467,30.171434 1370.932251,28.941301 
	C1371.758667,29.939503 1373.139648,31.607498 1374.686768,33.476223 
	C1370.419067,37.489994 1371.415039,41.589333 1374.771606,45.553745 
	C1369.806763,47.862537 1369.722412,47.758690 1367.621094,37.579781 
	C1365.151489,37.176060 1362.891357,36.644882 1360.606934,36.502625 
	C1359.496094,36.433449 1357.589233,36.830215 1357.364502,37.475906 
	C1356.932617,38.717323 1357.107178,40.455730 1357.708984,41.644318 
	C1357.989014,42.197399 1359.862671,42.084301 1361.001465,42.026752 
	C1362.455811,41.953243 1363.897827,41.630665 1365.345093,41.415417 
	C1364.500610,42.807552 1363.962280,44.602226 1362.756470,45.519142 
	C1358.531006,48.732372 1353.554199,46.427227 1352.949707,41.174057 
	C1351.990723,32.840183 1354.436279,30.550991 1363.171875,32.036045 
z"/>
<path fill="#A6A9AB" opacity="1.000000" stroke="none" 
	d="
M157.440140,32.440601 
	C154.665131,32.153603 150.970047,29.181814 150.992142,35.650867 
	C151.001358,38.352165 148.572571,41.061794 146.034317,43.863419 
	C146.034317,42.474812 145.702164,40.979446 146.106674,39.720856 
	C146.843430,37.428631 147.796555,35.141529 149.052612,33.093430 
	C152.097504,28.128490 148.703812,28.358437 145.458893,28.441866 
	C144.648636,28.462698 143.845886,28.775881 142.677307,29.114857 
	C142.314911,29.275017 142.388016,29.263182 142.388016,29.263180 
	C145.776779,28.873095 149.160156,28.422930 152.556534,28.117531 
	C154.332443,27.957842 156.238556,28.430902 157.899139,27.959923 
	C162.491821,26.657349 165.157166,28.743595 164.941757,33.571899 
	C164.872101,35.133186 165.968994,36.844017 165.629196,38.271465 
	C165.188660,40.122059 164.241348,42.485516 162.779022,43.281872 
	C161.305588,44.084293 158.729355,43.702133 157.028473,42.950993 
	C155.894577,42.450245 155.447617,40.394024 154.196411,38.138325 
	C157.949509,39.586376 160.124344,40.425488 162.299179,41.264595 
	C162.600449,40.814766 162.901718,40.364933 163.202988,39.915100 
	C161.746841,38.091541 160.290695,36.267982 159.184814,34.186043 
	C160.690063,33.324371 161.845032,32.721085 163.444794,31.885468 
	C160.453506,29.130878 158.691605,29.344337 157.440140,32.440601 
z"/>
<path fill="#417256" opacity="1.000000" stroke="none" 
	d="
M1400.838867,46.893723 
	C1397.701172,46.115658 1393.268799,46.021637 1392.665405,44.454044 
	C1391.422852,41.225266 1392.119873,37.204697 1392.280273,33.521351 
	C1392.310913,32.820972 1393.498535,31.663607 1394.239014,31.589937 
	C1397.341309,31.281275 1399.433960,30.479805 1401.022705,27.170401 
	C1402.111938,24.901564 1405.324463,26.003304 1405.558228,28.721169 
	C1405.995850,33.808586 1405.953247,38.979950 1405.515991,44.065273 
	C1405.424683,45.127350 1402.757690,45.967960 1400.838867,46.893723 
M1396.303467,42.562447 
	C1399.576782,44.896076 1400.585083,42.259151 1400.701904,40.033607 
	C1400.781250,38.518307 1399.249268,36.918461 1398.437988,35.356400 
	C1397.602783,36.850410 1396.684692,38.306698 1395.978149,39.859291 
	C1395.736450,40.390442 1396.025146,41.162975 1396.303467,42.562447 
z"/>
<path fill="#B9B9BA" opacity="1.000000" stroke="none" 
	d="
M2373.283936,37.954361 
	C2375.226318,31.339918 2379.337891,28.463444 2383.259521,30.763264 
	C2386.398193,32.604111 2388.846191,35.089474 2387.906250,39.201099 
	C2387.084473,42.795750 2384.784912,44.941906 2381.009033,44.978184 
	C2376.590088,45.020649 2373.878662,42.856632 2373.283936,37.954361 
z"/>
<path fill="#417256" opacity="1.000000" stroke="none" 
	d="
M1287.294922,28.735207 
	C1287.744141,30.433247 1287.907471,31.886309 1288.070801,33.339367 
	C1286.754028,32.930649 1285.223633,32.816929 1284.165894,32.050697 
	C1282.075439,30.536383 1279.467773,29.171274 1278.381104,32.023880 
	C1277.326050,34.793953 1277.180420,38.567097 1278.218140,41.298435 
	C1279.322388,44.204788 1281.976929,42.469063 1284.014160,41.089653 
	C1285.324219,40.202789 1286.941406,39.769676 1289.208130,38.794483 
	C1288.682007,43.983570 1286.297485,46.201820 1282.645630,46.895111 
	C1278.550903,47.672466 1275.493042,45.501572 1273.550415,42.172310 
	C1271.730713,39.053551 1273.276978,30.705780 1275.506104,28.742035 
	C1279.299683,25.400148 1283.094604,24.927862 1287.294922,28.735207 
z"/>
<path fill="#C7CACB" opacity="1.000000" stroke="none" 
	d="
M2467.443848,33.971840 
	C2467.761963,32.778576 2468.080078,31.585340 2468.501709,30.004181 
	C2463.267090,30.004181 2458.602051,30.004181 2453.937012,30.004181 
	C2453.823730,30.399487 2453.710449,30.794792 2453.597168,31.190098 
	C2457.611816,33.210373 2461.834717,35.477970 2459.680908,40.657036 
	C2458.973877,42.357014 2455.881836,43.786266 2453.787842,43.922817 
	C2452.492676,44.007282 2451.023438,41.421764 2450.489990,39.452271 
	C2452.264648,39.897991 2454.057617,40.669456 2455.802246,40.572899 
	C2456.270264,40.547001 2456.591797,37.876366 2457.043213,36.185581 
	C2454.742920,35.696396 2453.015625,35.329098 2451.101074,34.921974 
	C2451.101074,32.736885 2451.101074,30.628391 2451.101074,28.115919 
	C2457.882568,28.115919 2464.541260,28.115919 2472.447998,28.115919 
	C2471.368408,30.275150 2470.515869,31.979733 2469.101318,33.833565 
	C2468.174072,33.979160 2467.809082,33.975513 2467.443848,33.971840 
z"/>
<path fill="#417256" opacity="1.000000" stroke="none" 
	d="
M1387.047119,42.757195 
	C1387.034912,43.881020 1387.022583,45.004841 1387.010376,46.128666 
	C1384.509766,45.994148 1381.519287,46.686054 1379.609619,45.554283 
	C1375.542969,43.144058 1375.728882,39.014729 1377.147949,34.893044 
	C1378.425049,31.183601 1381.670776,30.615463 1384.452637,31.484777 
	C1386.543335,32.138077 1388.405640,34.514236 1389.593994,36.571480 
	C1390.066406,37.389584 1388.447266,39.415634 1387.019531,40.932396 
	C1384.711548,41.176983 1383.164185,41.380909 1381.616699,41.584835 
	C1381.702271,42.259514 1381.787720,42.934196 1381.873169,43.608879 
	C1383.597900,43.324986 1385.322510,43.041088 1387.047119,42.757195 
z"/>
<path fill="#417256" opacity="1.000000" stroke="none" 
	d="
M1326.903076,41.071732 
	C1325.997070,43.299419 1325.092529,45.093346 1324.188232,46.887260 
	C1323.172607,45.121696 1321.379028,43.402222 1321.271240,41.582901 
	C1320.691650,31.797159 1322.481934,30.379120 1332.329224,32.138935 
	C1333.254883,32.304344 1334.329102,32.673454 1334.949585,33.318226 
	C1336.857056,35.300179 1335.979980,44.089546 1332.944458,47.461292 
	C1332.564697,44.806789 1332.518555,42.819561 1331.953979,40.992596 
	C1331.357056,39.061481 1330.266357,37.282986 1329.391357,35.437778 
	C1328.562378,37.171154 1327.733398,38.904560 1326.903076,41.071732 
z"/>
<path fill="#417256" opacity="1.000000" stroke="none" 
	d="
M1344.898438,32.048149 
	C1350.637695,32.087524 1351.127075,35.725166 1350.606445,39.633137 
	C1350.127808,43.227188 1349.658203,47.217690 1344.413574,47.012157 
	C1340.747314,46.868481 1338.115112,43.864784 1337.996704,39.619381 
	C1337.831421,33.700035 1338.817261,32.547989 1344.898438,32.048149 
M1345.340454,41.035164 
	C1344.895020,41.505733 1344.449707,41.976303 1344.004272,42.446884 
	C1344.753296,42.528194 1345.502197,42.609501 1346.251221,42.690800 
	C1346.140503,42.146626 1346.029785,41.602451 1345.340454,41.035164 
z"/>
<path fill="#C7CACB" opacity="1.000000" stroke="none" 
	d="
M29.883980,41.629574 
	C28.200462,33.832462 29.589363,31.430048 35.327354,32.274879 
	C36.978855,32.518036 38.387497,34.410679 39.880508,35.526890 
	C40.841724,34.691906 42.034534,33.655735 44.074795,31.883404 
	C44.074795,35.744141 44.256508,38.208702 43.997646,40.626080 
	C43.869434,41.823376 42.930313,42.933830 42.358070,44.083576 
	C41.853798,42.882893 41.273865,41.706753 40.873539,40.472359 
	C40.632046,39.727722 40.669701,38.892555 40.557159,37.873932 
	C38.777779,38.071587 37.131180,38.077599 35.591827,38.486919 
	C34.544060,38.765514 33.646404,39.608654 32.681622,40.199356 
	C33.687534,40.757729 34.666870,41.374344 35.710304,41.850483 
	C36.251160,42.097286 36.905506,42.095379 37.896259,42.276833 
	C34.806755,45.108650 32.375553,44.765713 29.883980,41.629574 
z"/>
<path fill="#C1C4C5" opacity="1.000000" stroke="none" 
	d="
M188.279800,34.486328 
	C189.169250,34.250763 190.692841,34.203747 190.829422,33.744347 
	C191.241852,32.357159 191.115555,30.809799 191.198380,29.340500 
	C194.068176,29.240583 194.068176,29.240583 197.507355,35.276176 
	C198.914078,33.034111 200.149567,31.064976 201.116974,29.523083 
	C200.568192,33.981655 199.947678,39.022949 199.327164,44.064247 
	C198.663986,44.166569 198.000809,44.268894 197.337616,44.371216 
	C195.990234,41.214149 194.642838,38.057083 193.098694,34.438976 
	C192.501755,35.686405 191.863602,37.019943 190.717651,38.629669 
	C189.566483,37.432686 188.923141,35.959507 188.279800,34.486328 
z"/>
<path fill="#B9B9BA" opacity="1.000000" stroke="none" 
	d="
M246.831177,43.848431 
	C245.306686,42.877243 243.893494,41.543564 242.227829,41.032177 
	C240.395264,40.469555 238.254379,40.298771 236.400070,40.686096 
	C235.515884,40.870777 234.984131,42.742741 234.292740,43.850422 
	C233.727478,43.467766 233.162231,43.085110 232.596970,42.702454 
	C234.146866,38.006016 235.696777,33.309578 237.843826,26.803659 
	C240.029221,30.071877 241.997818,32.111946 242.858109,34.544044 
	C243.813004,37.243599 243.662308,40.319241 244.220001,43.186985 
	C244.331085,43.758148 245.467255,44.129963 246.490814,44.304672 
	C246.850906,44.015644 246.831177,43.848427 246.831177,43.848431 
z"/>
<path fill="#417256" opacity="1.000000" stroke="none" 
	d="
M1304.048584,43.973923 
	C1301.119019,46.369652 1297.536011,48.872227 1294.402100,45.777588 
	C1292.321899,43.723484 1291.399414,39.797127 1291.244385,36.645699 
	C1290.963867,30.937262 1295.641846,31.939697 1299.117310,32.165123 
	C1300.803345,32.274490 1302.423218,33.407391 1304.453857,34.598637 
	C1304.572754,38.071545 1304.310669,41.022736 1304.048584,43.973923 
M1299.124390,35.477757 
	C1295.396118,34.744068 1294.757446,37.191273 1295.245117,39.828663 
	C1295.498413,41.198246 1297.102905,42.318005 1298.096924,43.550571 
	C1299.030518,41.687447 1300.085327,39.869892 1300.814209,37.929821 
	C1301.000732,37.433407 1300.156616,36.549747 1299.124390,35.477757 
z"/>
<path fill="#D5D7D8" opacity="1.000000" stroke="none" 
	d="
M1127.384033,43.764439 
	C1126.263672,43.273178 1124.903687,42.714775 1124.734009,41.906357 
	C1124.367310,40.160530 1124.520996,38.281258 1124.624634,36.465843 
	C1124.819214,33.059895 1124.896606,29.791065 1120.398438,28.401962 
	C1124.678833,28.401962 1128.959106,28.401962 1133.239380,28.401962 
	C1123.999023,30.819197 1130.118408,38.789185 1127.384033,43.764439 
z"/>
<path fill="#417256" opacity="1.000000" stroke="none" 
	d="
M1318.045410,32.059895 
	C1318.429810,36.831306 1318.814087,41.602715 1319.198364,46.374126 
	C1318.450806,46.536995 1317.703369,46.699867 1316.955811,46.862740 
	C1316.363403,45.477291 1315.541992,44.139729 1315.239868,42.693615 
	C1314.905273,41.093418 1315.288696,39.331547 1314.885742,37.761703 
	C1314.655640,36.865189 1313.234009,35.454220 1312.782715,35.601788 
	C1311.774536,35.931355 1310.543701,36.968994 1310.300293,37.942379 
	C1309.868408,39.669575 1310.397217,41.639114 1309.954590,43.360901 
	C1309.659058,44.511250 1308.377686,45.408241 1307.274658,45.749603 
	C1307.028320,40.733871 1307.044678,36.387127 1307.061157,32.040379 
	C1307.061157,32.040379 1307.029663,31.994345 1307.483154,32.036232 
	C1311.306396,32.072044 1314.675903,32.065968 1318.045410,32.059895 
z"/>
<path fill="#E7E8EA" opacity="1.000000" stroke="none" 
	d="
M1185.640747,43.025356 
	C1184.797852,42.257057 1183.954834,41.488770 1183.047729,40.134800 
	C1182.324341,39.217453 1181.665161,38.885788 1181.005981,38.554115 
	C1180.833130,38.782780 1180.660278,39.011456 1180.075439,39.697517 
	C1179.429565,40.592575 1179.195801,41.030243 1178.961914,41.467880 
	C1176.406616,42.656094 1173.851318,43.844334 1170.173584,45.554543 
	C1170.173584,39.372150 1170.273804,34.968014 1170.140503,30.570951 
	C1170.041992,27.320000 1172.218140,27.865292 1174.505249,28.270523 
	C1174.098145,32.971092 1173.341919,37.259018 1172.585815,41.546944 
	C1173.335938,41.794312 1174.086060,42.041683 1174.836182,42.289055 
	C1176.043579,40.405609 1177.970825,38.625031 1178.258789,36.610195 
	C1178.554932,34.537369 1177.252197,32.236034 1176.649048,30.034693 
	C1177.000732,29.795961 1177.352417,29.557228 1177.704102,29.318495 
	C1179.205322,31.448725 1180.706543,33.578957 1182.257935,35.780354 
	C1182.793579,35.451618 1183.590942,34.962326 1184.542969,34.606972 
	C1184.697510,34.740910 1185.008057,35.007149 1185.042480,35.373970 
	C1185.537842,36.578590 1185.998657,37.416386 1186.391846,38.517216 
	C1186.308960,39.320221 1186.293945,39.860191 1186.116943,41.055874 
	C1185.850342,42.149517 1185.745483,42.587440 1185.640747,43.025356 
z"/>
<path fill="#D5D7D8" opacity="1.000000" stroke="none" 
	d="
M1138.864014,32.155354 
	C1140.956787,33.583771 1142.647339,35.012226 1144.337769,36.440685 
	C1144.051514,36.883160 1143.765137,37.325638 1143.478882,37.768116 
	C1141.233887,38.184071 1138.989014,38.600025 1136.744141,39.015980 
	C1136.745117,39.523071 1136.746216,40.030163 1136.747314,40.537254 
	C1138.484009,40.769417 1140.220703,41.001583 1141.957520,41.233746 
	C1142.167603,41.657974 1142.377808,42.082199 1142.587891,42.506424 
	C1141.216309,43.060123 1139.781738,44.194794 1138.485596,44.053955 
	C1135.162842,43.692875 1133.196045,41.821800 1133.185425,38.085247 
	C1133.174805,34.342831 1134.086182,31.811726 1138.864014,32.155354 
z"/>
<path fill="#D7D9DA" opacity="1.000000" stroke="none" 
	d="
M1190.046387,32.464859 
	C1192.986694,33.260857 1195.927124,34.056866 1199.344238,34.981960 
	C1200.148315,34.277515 1201.493042,33.099506 1202.837646,31.921501 
	C1203.232666,32.155785 1203.627563,32.390068 1204.022461,32.624352 
	C1203.157104,35.651794 1202.445068,38.736969 1201.340210,41.674297 
	C1200.970825,42.656242 1199.597290,43.260536 1198.682861,44.037453 
	C1198.004883,43.041939 1197.201782,42.107018 1196.682495,41.034615 
	C1196.115723,39.864388 1195.811890,38.566826 1194.888428,37.363625 
	C1194.383545,37.402481 1194.210083,37.462948 1194.455200,36.971375 
	C1194.107056,36.313652 1193.513916,36.147499 1192.722900,35.776604 
	C1191.698853,34.536190 1190.872559,33.500530 1190.046387,32.464859 
z"/>
<path fill="#5D6060" opacity="1.000000" stroke="none" 
	d="
M142.038208,29.179161 
	C142.388016,29.263182 142.314911,29.275017 142.322937,29.239359 
	C142.231750,31.958620 142.350784,34.745922 141.948685,37.455902 
	C141.719986,38.997349 140.639252,40.412373 139.357162,41.596779 
	C137.329071,41.183281 135.886017,41.057327 134.430206,40.930260 
	C134.242813,40.363186 133.962204,39.906246 133.961136,39.448662 
	C133.952835,35.850410 133.997986,32.252037 134.026672,28.653702 
	C136.580582,28.800850 139.134491,28.947996 142.038208,29.179161 
z"/>
<path fill="#B9B9BA" opacity="1.000000" stroke="none" 
	d="
M86.363358,32.716606 
	C86.669540,36.629505 86.669540,40.215618 86.669540,43.801735 
	C86.153824,43.951660 85.638100,44.101585 85.122383,44.251514 
	C84.406975,40.846664 83.691566,37.441818 82.976166,34.036972 
	C82.532959,34.036480 82.089760,34.035992 81.646553,34.035500 
	C81.003792,37.491730 80.361031,40.947960 79.718269,44.404190 
	C79.150024,44.278172 78.581787,44.152153 78.013542,44.026134 
	C78.013542,40.185490 78.013542,36.344841 78.013542,32.389820 
	C80.849709,32.389820 83.453445,32.389820 86.363358,32.716606 
z"/>
<path fill="#A4A297" opacity="1.000000" stroke="none" 
	d="
M25.848106,29.381710 
	C26.675032,28.740797 27.276335,28.299528 27.816839,27.902878 
	C26.603521,32.369419 25.543072,36.661415 24.227985,40.873924 
	C23.841755,42.111103 22.733309,43.122818 21.955864,44.237869 
	C21.208885,43.182121 20.195082,42.223499 19.768345,41.051178 
	C18.760767,38.283195 18.032625,35.413494 17.191473,32.584927 
	C17.867136,32.321735 18.542797,32.058544 19.218460,31.795351 
	C20.069710,33.745930 20.920959,35.696507 21.874081,37.880516 
	C23.164503,35.023457 24.393496,32.302406 25.848106,29.381710 
z"/>
<path fill="#D5D7D8" opacity="1.000000" stroke="none" 
	d="
M2441.089111,37.939651 
	C2441.349854,38.888660 2442.056396,40.492493 2441.793213,40.671597 
	C2440.739746,41.388588 2439.199463,42.294384 2438.174561,41.992435 
	C2433.709961,40.677280 2429.616943,40.117104 2425.775635,43.717178 
	C2425.111328,44.339737 2422.097412,43.885563 2421.888916,43.308052 
	C2421.140137,41.232109 2421.128174,38.890182 2421.355469,37.301994 
	C2422.410645,41.150455 2423.230469,43.652687 2426.968018,39.885406 
	C2428.224854,39.585667 2429.117188,39.281063 2430.009766,38.976498 
	C2431.410889,37.386784 2432.811768,35.797031 2434.658691,34.302944 
	C2435.929443,37.556255 2438.130127,38.388710 2441.089111,37.939651 
z"/>
<path fill="#D7D9DA" opacity="1.000000" stroke="none" 
	d="
M1231.847656,42.770123 
	C1228.704590,45.307816 1226.083618,44.704708 1223.615234,40.895393 
	C1223.065186,39.792080 1222.803101,39.243042 1222.502319,38.467636 
	C1222.431274,37.935921 1222.422241,37.629890 1222.636475,36.999756 
	C1222.927734,36.181969 1223.019165,35.687595 1223.110718,35.193222 
	C1224.446167,31.748428 1227.459351,31.439119 1230.112671,32.449158 
	C1231.797974,33.090652 1232.838501,35.426228 1234.791504,37.740929 
	C1231.020752,38.240612 1228.696533,38.548615 1226.372192,38.856613 
	C1226.367310,39.335155 1226.362427,39.813694 1226.357544,40.292236 
	C1227.965454,40.474693 1229.573364,40.657154 1231.499023,41.236435 
	C1231.827148,42.012211 1231.837402,42.391167 1231.847656,42.770123 
z"/>
<path fill="#4F5253" opacity="1.000000" stroke="none" 
	d="
M256.382568,32.943184 
	C257.050446,32.959976 257.718323,32.976768 258.785309,33.454998 
	C259.089264,36.618267 258.994110,39.320103 258.898956,42.021935 
	C256.811127,42.927761 254.723267,43.833580 252.236298,44.189125 
	C247.915894,37.717255 248.824677,35.123783 255.245422,33.798649 
	C255.665436,33.711967 256.005371,33.237350 256.382568,32.943184 
z"/>
<path fill="#4F5253" opacity="1.000000" stroke="none" 
	d="
M1184.388428,34.473053 
	C1183.590942,34.962326 1182.793579,35.451618 1182.257935,35.780354 
	C1180.706543,33.578957 1179.205322,31.448725 1177.704102,29.318495 
	C1177.352417,29.557228 1177.000732,29.795961 1176.649048,30.034693 
	C1177.252197,32.236034 1178.554932,34.537369 1178.258789,36.610195 
	C1177.970825,38.625031 1176.043579,40.405609 1174.836182,42.289055 
	C1174.086060,42.041683 1173.335938,41.794312 1172.585815,41.546944 
	C1173.341919,37.259018 1174.098145,32.971092 1174.942627,28.297844 
	C1176.870117,28.504879 1178.763794,28.969923 1180.531006,29.729679 
	C1181.956299,30.342472 1183.228516,31.311028 1184.863770,32.459740 
	C1184.902100,33.356178 1184.645264,33.914627 1184.388428,34.473053 
z"/>
<path fill="#C1C4C5" opacity="1.000000" stroke="none" 
	d="
M55.986004,34.929760 
	C56.057838,35.941936 56.120407,36.954876 56.203568,37.966122 
	C56.347603,39.717621 57.137589,42.673790 56.535557,42.989956 
	C54.818836,43.891514 52.428734,44.194580 50.526546,43.759121 
	C49.629803,43.553833 46.822121,41.577202 49.939861,39.383053 
	C50.586483,38.927994 49.643650,36.214432 49.439701,34.592236 
	C53.727066,36.669109 53.727066,36.669109 54.745506,33.617767 
	C55.468182,34.042889 55.727093,34.486324 55.986004,34.929760 
M51.867634,36.949871 
	C51.631386,37.111656 51.395142,37.273441 51.158897,37.435230 
	C51.730110,37.488487 52.301323,37.541748 52.872536,37.595005 
	C52.659119,37.394077 52.445702,37.193150 51.867634,36.949871 
z"/>
<path fill="#DCDFE0" opacity="1.000000" stroke="none" 
	d="
M1156.697998,31.507771 
	C1157.504517,28.801350 1158.826660,28.469036 1159.869263,30.689901 
	C1160.485474,32.002495 1159.881104,33.835873 1160.119629,35.389927 
	C1160.496582,37.846611 1161.120483,40.265404 1161.818604,43.538048 
	C1161.291626,43.570747 1159.430176,44.238102 1158.676636,43.598984 
	C1157.640015,42.719822 1157.223022,40.894642 1156.933472,39.398693 
	C1156.454468,36.923622 1158.192993,33.321762 1153.489868,33.288330 
	C1153.134399,33.285805 1152.775757,33.719460 1153.056519,34.749996 
	C1154.222900,33.777580 1155.389282,32.805168 1156.697998,31.507771 
z"/>
<path fill="#969999" opacity="1.000000" stroke="none" 
	d="
M129.850372,37.163563 
	C125.164230,34.996433 123.922676,40.336216 120.449638,42.009174 
	C120.152687,39.855450 119.937675,38.296082 119.659904,36.281464 
	C117.800903,36.129143 115.896225,35.973076 113.998161,35.817551 
	C114.319344,30.548790 116.242416,28.200827 120.077377,28.351704 
	C119.085976,29.026356 118.094444,29.700830 117.102913,30.375303 
	C119.245010,31.927935 121.218811,33.863308 123.585938,34.904156 
	C125.279594,35.648865 127.500427,35.194645 129.699936,35.898857 
	C129.892685,36.736088 129.871536,36.949825 129.850372,37.163563 
z"/>
<path fill="#C7CACB" opacity="1.000000" stroke="none" 
	d="
M258.971680,42.427773 
	C258.994110,39.320103 259.089264,36.618267 259.119049,33.470226 
	C260.304291,32.984859 261.554901,32.945702 262.513916,33.820892 
	C262.222290,36.685223 262.222290,38.635208 262.222290,41.662537 
	C265.121246,40.678413 267.464630,39.882896 269.808014,39.087379 
	C268.659821,42.494858 266.937897,45.143528 262.641388,44.175705 
	C262.214722,45.767330 261.855804,47.106186 261.496887,48.445038 
	C260.949951,48.511879 260.403015,48.578720 259.856049,48.645557 
	C259.585510,46.708244 259.314941,44.770927 258.971680,42.427773 
z"/>
<path fill="#E7E8EA" opacity="1.000000" stroke="none" 
	d="
M204.382751,41.816406 
	C204.018311,39.246056 203.026825,36.005642 204.203232,34.658905 
	C205.479355,33.197994 208.823669,33.015896 211.165909,33.255455 
	C212.205750,33.361809 212.999725,35.872398 214.510101,38.239552 
	C209.574524,37.909477 206.293839,38.247475 204.382751,41.816406 
z"/>
<path fill="#C7CACB" opacity="1.000000" stroke="none" 
	d="
M1152.974854,38.018772 
	C1155.215332,41.047417 1154.281982,43.492580 1151.147095,43.907249 
	C1149.277588,44.154549 1147.134888,42.337563 1145.114990,41.448551 
	C1146.211182,39.791553 1147.029175,37.760258 1148.528564,36.645477 
	C1149.212524,36.136826 1151.241211,37.436817 1152.974854,38.018772 
z"/>
<path fill="#4F5253" opacity="1.000000" stroke="none" 
	d="
M2426.603760,39.880543 
	C2423.230469,43.652687 2422.410645,41.150455 2421.875000,37.455406 
	C2421.877197,36.955643 2421.897705,36.949100 2421.838379,36.538269 
	C2421.168945,35.250145 2420.559082,34.372845 2419.949219,33.495522 
	C2419.799805,33.290577 2419.750244,33.063843 2420.226562,32.953835 
	C2421.514160,31.696455 2422.375977,30.300539 2423.249023,28.660231 
	C2423.259766,28.415838 2423.015869,27.991695 2423.015869,27.991693 
	C2424.158691,28.065958 2425.301270,28.140223 2426.514648,28.785980 
	C2426.591064,32.865162 2426.597412,36.372852 2426.603760,39.880543 
z"/>
<path fill="#D5D7D8" opacity="1.000000" stroke="none" 
	d="
M1220.258301,42.231716 
	C1218.063599,44.931293 1215.685913,44.847580 1212.972168,42.035706 
	C1212.608398,39.129242 1212.444702,36.884762 1212.281006,34.640282 
	C1213.372925,30.656025 1216.604126,32.608639 1219.508301,32.629921 
	C1220.356323,34.100594 1220.688477,35.163330 1220.627563,36.214760 
	C1218.497437,36.047970 1216.760498,35.892490 1215.023560,35.737015 
	C1214.929443,36.970268 1214.296387,38.727436 1214.867065,39.314667 
	C1215.735352,40.208080 1217.438110,40.290661 1219.077515,40.922195 
	C1219.665161,41.495094 1219.961792,41.863403 1220.258301,42.231716 
z"/>
<path fill="#C7CACB" opacity="1.000000" stroke="none" 
	d="
M129.884949,37.535870 
	C129.871536,36.949825 129.892685,36.736088 129.965027,36.204269 
	C131.126587,33.608559 132.236969,31.330923 133.687012,28.853497 
	C133.997986,32.252037 133.952835,35.850410 133.961136,39.448662 
	C133.962204,39.906246 134.242813,40.363186 134.430206,40.930260 
	C135.886017,41.057327 137.329071,41.183281 138.982697,41.682400 
	C137.831726,42.774792 135.671646,44.422569 135.244522,44.055244 
	C133.211182,42.306618 131.649231,40.009865 129.884949,37.535870 
z"/>
<path fill="#A4A297" opacity="1.000000" stroke="none" 
	d="
M256.059845,32.650040 
	C256.005371,33.237350 255.665436,33.711967 255.245422,33.798649 
	C248.824677,35.123783 247.915894,37.717255 251.939453,44.041840 
	C250.766083,45.754047 249.490417,47.063263 247.539932,49.065063 
	C247.261139,47.245476 247.069275,45.993214 246.854279,44.294685 
	C246.831177,43.848427 246.850906,44.015644 246.847076,44.057106 
	C246.863052,42.766666 246.894043,41.434814 246.900818,40.102844 
	C246.944946,31.438803 246.943222,31.438793 256.059845,32.650040 
z"/>
<path fill="#D5D7D8" opacity="1.000000" stroke="none" 
	d="
M107.949852,36.993660 
	C106.990555,37.998100 106.031258,39.002541 104.864754,40.223946 
	C106.949654,41.002537 108.937256,41.744793 110.924866,42.487053 
	C110.825203,42.916039 110.725548,43.345020 110.625885,43.774006 
	C107.149529,43.774006 103.673172,43.774006 98.592133,43.774006 
	C101.391747,40.680283 103.391083,38.470913 105.958298,36.278351 
	C107.000740,36.527996 107.475296,36.760826 107.949852,36.993660 
z"/>
<path fill="#4F5253" opacity="1.000000" stroke="none" 
	d="
M65.922768,42.027626 
	C60.255608,40.153454 63.614349,37.816109 66.181732,35.179726 
	C68.572495,34.489452 70.371864,34.169174 72.370338,33.813450 
	C72.970009,38.570381 72.990723,42.003487 67.229942,40.914234 
	C66.877014,40.847504 66.362236,41.636684 65.922768,42.027626 
z"/>
<path fill="#D5D7D8" opacity="1.000000" stroke="none" 
	d="
M2488.029541,38.113056 
	C2486.293457,38.209858 2484.557129,38.306648 2482.420166,38.425774 
	C2482.303955,40.121929 2482.198486,41.659920 2482.052246,43.617043 
	C2481.598145,44.020267 2481.184814,44.004360 2480.447021,43.495449 
	C2480.143799,38.032806 2480.165283,33.063164 2480.186768,28.093527 
	C2481.207275,27.978014 2482.227539,27.862499 2483.625244,27.664639 
	C2484.758301,27.660372 2485.514160,27.738451 2486.641602,28.279900 
	C2485.524170,29.389174 2484.035400,30.035078 2482.345459,30.768246 
	C2482.345459,32.236603 2482.345459,33.957645 2482.345459,36.456146 
	C2484.415771,35.835670 2485.992676,35.109615 2487.618896,34.973667 
	C2488.548096,34.895992 2489.557617,35.779339 2490.531006,36.229996 
	C2490.531006,36.230011 2490.318604,36.063187 2489.917480,36.109390 
	C2489.020508,36.808075 2488.525146,37.460556 2488.029541,38.113056 
z"/>
<path fill="#294E38" opacity="1.000000" stroke="none" 
	d="
M322.491272,50.815014 
	C322.120270,43.553722 322.134094,36.106133 321.994507,28.661419 
	C321.957855,26.707266 321.445618,24.762032 321.059509,22.402798 
	C321.950867,23.126438 323.753418,24.237053 323.785919,25.397236 
	C324.006042,33.257816 323.872009,41.129108 323.776581,48.996014 
	C323.769897,49.544407 323.152313,50.085373 322.491272,50.815014 
z"/>
<path fill="#C7CACB" opacity="1.000000" stroke="none" 
	d="
M188.320450,34.230495 
	C188.923141,35.959507 189.566483,37.432686 190.593964,38.949745 
	C190.724380,40.709743 190.470642,42.425861 190.216904,44.141983 
	C189.502991,44.186935 188.789062,44.231888 188.075150,44.276840 
	C186.750244,39.014904 185.425354,33.752972 184.100449,28.491037 
	C184.580765,28.291656 185.061066,28.092276 185.541382,27.892897 
	C186.052460,28.675795 186.563538,29.458691 187.101959,30.849237 
	C187.430023,31.974831 187.730728,32.492775 188.031433,33.010715 
	C188.141327,33.332031 188.251221,33.653347 188.320450,34.230495 
z"/>
<path fill="#A6A9AB" opacity="1.000000" stroke="none" 
	d="
M2441.042236,37.495514 
	C2438.130127,38.388710 2435.929443,37.556255 2434.910645,34.070763 
	C2434.700684,33.578930 2434.606689,33.344612 2434.681396,33.261372 
	C2436.306885,31.447001 2437.950684,29.649277 2439.591309,27.848392 
	C2440.048584,29.927809 2440.566406,31.996580 2440.936035,34.091492 
	C2441.105469,35.051666 2440.984375,36.063164 2441.042236,37.495514 
z"/>
<path fill="#A6A9AB" opacity="1.000000" stroke="none" 
	d="
M108.257637,36.784977 
	C107.475296,36.760826 107.000740,36.527996 106.291199,36.169441 
	C106.003349,34.113632 105.950485,32.183544 105.897621,30.253460 
	C104.273315,30.892860 102.649010,31.532261 100.434708,32.403915 
	C100.345497,31.758451 99.928062,30.124332 100.137444,30.039631 
	C102.334534,29.150810 104.637772,28.001694 106.898949,28.027740 
	C107.935638,28.039682 109.507584,30.384041 109.803528,31.875662 
	C110.086998,33.304417 109.032104,34.998707 108.257637,36.784977 
z"/>
<path fill="#BEBFBF" opacity="1.000000" stroke="none" 
	d="
M66.258987,42.196541 
	C66.362236,41.636684 66.877014,40.847504 67.229942,40.914234 
	C72.990723,42.003487 72.970009,38.570381 72.370338,33.813450 
	C70.371864,34.169174 68.572495,34.489452 66.389725,34.897346 
	C66.201271,34.105141 66.427101,32.454353 66.586548,32.460743 
	C69.123497,32.562363 73.301865,32.123070 73.838333,33.298450 
	C74.949722,35.733433 75.036179,39.502663 73.857323,41.890507 
	C72.478310,44.683769 69.258446,45.670761 66.258987,42.196541 
z"/>
<path fill="#D5D7D8" opacity="1.000000" stroke="none" 
	d="
M1209.983154,41.979622 
	C1209.856934,44.557274 1207.634766,44.968174 1207.204712,43.149651 
	C1206.434692,39.892921 1207.124268,36.284470 1207.332886,32.830841 
	C1207.340088,32.711983 1208.733643,32.676888 1209.598145,33.314121 
	C1209.804565,36.676868 1209.893921,39.328243 1209.983154,41.979622 
z"/>
<path fill="#BEBFBF" opacity="1.000000" stroke="none" 
	d="
M225.282867,34.914650 
	C225.235703,36.726658 225.675690,38.750576 225.005402,40.291531 
	C224.324554,41.856735 222.588852,43.932190 221.241653,43.987282 
	C219.643250,44.052643 216.337112,45.579056 216.441589,41.357994 
	C217.272125,40.963169 217.714706,40.947437 218.550095,41.006775 
	C220.257904,40.080463 222.153641,39.329403 222.723663,38.006931 
	C223.287659,36.698425 222.513550,34.813164 222.326385,33.180889 
	C222.326401,33.180889 222.690491,33.163269 223.002014,33.340679 
	C223.969986,33.983612 224.626419,34.449131 225.282867,34.914650 
z"/>
<path fill="#4F5253" opacity="1.000000" stroke="none" 
	d="
M270.039825,38.978729 
	C267.464630,39.882896 265.121246,40.678413 262.222290,41.662537 
	C262.222290,38.635208 262.222290,36.685223 262.391968,34.325138 
	C262.561676,33.915039 262.511414,33.987953 262.881775,33.996315 
	C265.675781,35.018463 268.099396,36.032246 270.523010,37.046028 
	C270.439209,37.654045 270.355438,38.262062 270.039825,38.978729 
z"/>
<path fill="#BEBFBF" opacity="1.000000" stroke="none" 
	d="
M2467.232178,34.258591 
	C2467.809082,33.975513 2468.174072,33.979160 2468.811768,34.008499 
	C2467.916992,37.457607 2466.749512,40.881027 2465.582275,44.304451 
	C2465.067627,44.158901 2464.553223,44.013348 2464.038574,43.867798 
	C2463.157959,40.357258 2465.646729,37.571190 2467.232178,34.258591 
z"/>
<path fill="#4F5253" opacity="1.000000" stroke="none" 
	d="
M221.918961,33.147118 
	C222.513550,34.813164 223.287659,36.698425 222.723663,38.006931 
	C222.153641,39.329403 220.257904,40.080463 218.470581,40.570122 
	C218.081299,37.689632 218.164368,35.320862 218.247437,32.952095 
	C219.335464,33.005844 220.423508,33.059593 221.918961,33.147118 
z"/>
<path fill="#4F5253" opacity="1.000000" stroke="none" 
	d="
M2479.813965,28.211267 
	C2480.165283,33.063164 2480.143799,38.032806 2480.137207,43.463943 
	C2477.508545,41.138832 2477.129395,32.820518 2479.813965,28.211267 
z"/>
<path fill="#294E38" opacity="1.000000" stroke="none" 
	d="
M1306.778442,32.198242 
	C1307.044678,36.387127 1307.028320,40.733871 1306.992188,45.545990 
	C1306.164673,45.438755 1305.356689,44.866158 1304.298584,44.133743 
	C1304.310669,41.022736 1304.572754,38.071545 1304.812012,34.732445 
	C1305.358154,33.681725 1305.926880,33.018917 1306.778442,32.198242 
z"/>
<path fill="#E7E8EA" opacity="1.000000" stroke="none" 
	d="
M1184.542969,34.606995 
	C1184.645264,33.914627 1184.902100,33.356178 1185.257324,32.505657 
	C1186.665527,32.230598 1187.975342,32.247608 1189.665771,32.364746 
	C1190.872559,33.500530 1191.698853,34.536190 1192.787354,36.020325 
	C1193.099121,36.629467 1193.148560,36.790142 1192.998169,37.320454 
	C1190.861328,37.830658 1188.924316,37.971230 1187.065186,37.804008 
	C1187.836792,36.580582 1188.530640,35.664944 1189.769043,34.030945 
	C1187.534668,34.489075 1186.271362,34.748108 1185.008057,35.007145 
	C1185.008057,35.007149 1184.697510,34.740910 1184.542969,34.606995 
z"/>
<path fill="#5D6060" opacity="1.000000" stroke="none" 
	d="
M1186.987427,38.111794 
	C1188.924316,37.971230 1190.861328,37.830658 1193.256104,37.438553 
	C1193.879517,37.278992 1194.044800,37.370972 1194.210083,37.462948 
	C1194.210083,37.462948 1194.383545,37.402481 1194.427979,37.408577 
	C1193.890137,39.229271 1193.307861,41.043873 1192.383301,42.543976 
	C1190.120361,41.619709 1188.199707,41.009937 1186.279053,40.400162 
	C1186.293945,39.860191 1186.308960,39.320221 1186.539551,38.540298 
	C1186.755127,38.300350 1186.987427,38.111794 1186.987427,38.111794 
z"/>
<path fill="#B9B9BA" opacity="1.000000" stroke="none" 
	d="
M218.152527,32.549736 
	C218.164368,35.320862 218.081299,37.689632 218.077759,40.495052 
	C217.714706,40.947437 217.272125,40.963169 216.497742,40.993629 
	C216.165909,36.771416 216.165909,32.534481 216.165909,28.297544 
	C216.637451,28.276106 217.108978,28.254667 217.580521,28.233229 
	C217.739548,29.537945 217.898575,30.842659 218.152527,32.549736 
z"/>
<path fill="#DCDFE0" opacity="1.000000" stroke="none" 
	d="
M2426.968018,39.885406 
	C2426.597412,36.372852 2426.591064,32.865162 2426.780762,29.007915 
	C2427.891113,31.845644 2428.805664,35.032932 2429.864990,38.598343 
	C2429.117188,39.281063 2428.224854,39.585667 2426.968018,39.885406 
z"/>
<path fill="#A6A9AB" opacity="1.000000" stroke="none" 
	d="
M270.365479,36.687748 
	C268.099396,36.032246 265.675781,35.018463 262.837982,33.989891 
	C263.787720,30.294239 266.236664,31.948706 268.180359,33.075813 
	C269.156799,33.642017 269.550659,35.212917 270.365479,36.687748 
z"/>
<path fill="#969999" opacity="1.000000" stroke="none" 
	d="
M1210.327881,41.796509 
	C1209.893921,39.328243 1209.804565,36.676868 1209.793945,33.591560 
	C1210.441528,33.590652 1211.010254,34.023678 1211.929932,34.548492 
	C1212.444702,36.884762 1212.608398,39.129242 1212.832397,41.755547 
	C1212.152710,41.962711 1211.412598,41.788055 1210.327881,41.796509 
z"/>
<path fill="#DCDFE0" opacity="1.000000" stroke="none" 
	d="
M1186.117065,41.055878 
	C1188.199707,41.009937 1190.120361,41.619709 1192.067017,42.635284 
	C1190.072754,43.222469 1188.052612,43.403854 1185.836548,43.305305 
	C1185.745483,42.587440 1185.850342,42.149517 1186.117065,41.055878 
z"/>
<path fill="#294E38" opacity="1.000000" stroke="none" 
	d="
M1387.045410,42.468948 
	C1385.322510,43.041088 1383.597900,43.324986 1381.873169,43.608879 
	C1381.787720,42.934196 1381.702271,42.259514 1381.616699,41.584835 
	C1383.164185,41.380909 1384.711548,41.176983 1386.658691,40.997311 
	C1387.053589,41.407948 1387.048706,41.794327 1387.045410,42.468948 
z"/>
<path fill="#294E38" opacity="1.000000" stroke="none" 
	d="
M1317.707397,31.830931 
	C1314.675903,32.065968 1311.306396,32.072044 1307.479736,32.063774 
	C1310.471436,31.900274 1313.920410,31.751123 1317.707397,31.830931 
z"/>
<path fill="#969999" opacity="1.000000" stroke="none" 
	d="
M1220.666260,42.097149 
	C1219.961792,41.863403 1219.665161,41.495094 1219.141968,40.578697 
	C1220.123779,39.585087 1221.332397,39.139565 1222.541016,38.694023 
	C1222.803101,39.243042 1223.065186,39.792080 1223.359375,40.648186 
	C1222.619141,41.291035 1221.846680,41.626812 1220.666260,42.097149 
z"/>
<path fill="#969999" opacity="1.000000" stroke="none" 
	d="
M1221.020752,36.226059 
	C1220.688477,35.163330 1220.356323,34.100594 1219.911377,32.717564 
	C1220.696655,33.246033 1221.594727,34.094795 1222.801758,35.068390 
	C1223.019165,35.687595 1222.927734,36.181969 1222.416260,36.927277 
	C1221.671143,36.860821 1221.345947,36.543434 1221.020752,36.226059 
z"/>
<path fill="#D5D7D8" opacity="1.000000" stroke="none" 
	d="
M2423.238037,28.904629 
	C2422.375977,30.300539 2421.514160,31.696455 2420.302002,32.792423 
	C2420.137451,31.507086 2420.322998,30.521698 2421.152588,29.290325 
	C2422.277344,28.997772 2422.757568,28.951202 2423.238037,28.904629 
z"/>
<path fill="#4F5253" opacity="1.000000" stroke="none" 
	d="
M225.446548,34.674809 
	C224.626419,34.449131 223.969986,33.983612 223.159790,33.249420 
	C225.014389,31.423443 225.773254,32.103756 225.446548,34.674809 
z"/>
<path fill="#D5D7D8" opacity="1.000000" stroke="none" 
	d="
M2419.970703,34.005421 
	C2420.559082,34.372845 2421.168945,35.250145 2421.881836,36.537506 
	C2418.387695,38.538982 2420.742920,35.255260 2419.970703,34.005421 
z"/>
<path fill="#DCDFE0" opacity="1.000000" stroke="none" 
	d="
M1179.141724,41.364296 
	C1179.195801,41.030243 1179.429565,40.592575 1179.814941,40.039536 
	C1179.751343,40.369667 1179.536377,40.815178 1179.141724,41.364296 
z"/>
<path fill="#C1C4C5" opacity="1.000000" stroke="none" 
	d="
M188.076752,32.809280 
	C187.730728,32.492775 187.430023,31.974831 187.093826,31.154175 
	C187.412903,31.436922 187.767471,32.022381 188.076752,32.809280 
z"/>
<path fill="#969999" opacity="1.000000" stroke="none" 
	d="
M1232.054932,42.757263 
	C1231.837402,42.391167 1231.827148,42.012211 1231.880127,41.353786 
	C1232.049561,41.631016 1232.155762,42.187710 1232.054932,42.757263 
z"/>
<path fill="#DCDFE0" opacity="1.000000" stroke="none" 
	d="
M1181.453369,38.594826 
	C1181.665161,38.885788 1182.324341,39.217453 1182.984619,39.793228 
	C1182.624023,39.570068 1182.262329,39.102798 1181.453369,38.594826 
z"/>
<path fill="#E7E8EA" opacity="1.000000" stroke="none" 
	d="
M56.332912,34.878120 
	C55.727093,34.486324 55.468182,34.042889 55.128761,33.355499 
	C55.592106,33.683189 56.135963,34.254837 56.332912,34.878120 
z"/>
<path fill="#BEBFBF" opacity="1.000000" stroke="none" 
	d="
M2423.249023,28.660236 
	C2422.757568,28.951202 2422.277344,28.997772 2421.436035,29.039141 
	C2421.511230,28.707376 2421.947266,28.380814 2422.699707,28.022972 
	C2423.015869,27.991695 2423.259766,28.415838 2423.249023,28.660236 
z"/>
<path fill="#C1C4C5" opacity="1.000000" stroke="none" 
	d="
M2505.879150,33.958611 
	C2504.695557,37.423149 2503.511963,40.887707 2502.328613,44.352268 
	C2501.831543,44.375759 2501.334717,44.399254 2500.837891,44.422745 
	C2499.838623,42.099777 2498.839355,39.776810 2497.564941,36.813847 
	C2496.799805,39.903740 2496.240967,42.160500 2495.682129,44.417263 
	C2495.098877,44.348515 2494.515625,44.279766 2493.932373,44.211018 
	C2493.807129,41.703579 2493.682129,39.196140 2493.590332,36.022854 
	C2493.531494,35.029964 2493.438721,34.702919 2493.434082,33.916275 
	C2493.458740,32.838203 2493.395508,32.219738 2493.525146,31.336952 
	C2493.624512,30.443642 2493.530518,29.814648 2493.436768,29.185658 
	C2494.934570,26.759375 2496.175781,27.306938 2497.198486,29.546652 
	C2498.520264,32.441772 2499.793701,35.358929 2501.289062,38.718128 
	C2502.284668,36.837658 2503.094971,35.307449 2504.274170,33.578144 
	C2505.055176,33.572243 2505.467285,33.765442 2505.879150,33.958611 
z"/>
<path fill="#4F5253" opacity="1.000000" stroke="none" 
	d="
M2493.346191,34.375881 
	C2493.438721,34.702919 2493.531494,35.029964 2493.520508,35.598389 
	C2492.692383,35.926777 2491.967773,36.013786 2490.887207,36.165386 
	C2489.557617,35.779339 2488.548096,34.895992 2487.618896,34.973667 
	C2485.992676,35.109615 2484.415771,35.835670 2482.345459,36.456146 
	C2482.345459,33.957645 2482.345459,32.236603 2482.345459,30.768246 
	C2484.035400,30.035078 2485.524170,29.389174 2487.020020,28.326569 
	C2488.912842,28.312031 2490.798828,28.714193 2493.060791,29.151007 
	C2493.530518,29.814648 2493.624512,30.443642 2493.338379,31.599842 
	C2493.087402,32.876659 2493.216797,33.626270 2493.346191,34.375881 
z"/>
<path fill="#A6A9AB" opacity="1.000000" stroke="none" 
	d="
M2506.208740,34.217411 
	C2505.467285,33.765442 2505.055176,33.572243 2504.451660,33.253933 
	C2505.248291,31.310301 2506.236084,29.491779 2507.224121,27.673260 
	C2507.652100,27.894323 2508.080322,28.115387 2508.508301,28.336451 
	C2508.508301,33.472488 2508.508301,38.608528 2508.508301,43.744568 
	C2508.061523,43.763577 2507.614502,43.782589 2507.167725,43.801598 
	C2506.958008,40.693127 2506.748047,37.584656 2506.208740,34.217411 
z"/>
<path fill="#4F5253" opacity="1.000000" stroke="none" 
	d="
M2488.242188,38.249710 
	C2488.525146,37.460556 2489.020508,36.808075 2489.823242,36.205994 
	C2489.572021,36.966389 2489.013428,37.676388 2488.242188,38.249710 
z"/>
<path fill="#CBE6D9" opacity="1.000000" stroke="none" 
	d="
M301.185913,32.781723 
	C301.192322,36.754520 301.192322,40.320419 301.192322,44.637871 
	C297.487823,42.750393 295.175873,41.572430 291.941437,39.924469 
	C293.582428,36.889660 294.923615,33.214813 297.283813,30.392010 
	C299.491547,27.751591 300.908936,29.615900 301.185913,32.781723 
z"/>
<path fill="#E7E8EA" opacity="1.000000" stroke="none" 
	d="
M306.866791,31.045919 
	C307.008789,30.952913 307.150818,30.859907 307.985962,30.667637 
	C309.301910,30.695866 309.924713,30.823359 310.547516,30.950851 
	C310.525116,34.844402 310.502716,38.737949 309.965729,43.129417 
	C308.919098,43.627743 308.387085,43.628147 307.855042,43.628555 
	C307.669464,40.654198 307.483887,37.679844 307.077271,33.952267 
	C306.859741,32.481335 306.863281,31.763628 306.866791,31.045919 
z"/>
<path fill="#A6A9AB" opacity="1.000000" stroke="none" 
	d="
M306.558685,31.040741 
	C306.863281,31.763628 306.859741,32.481335 306.863464,33.557266 
	C306.138092,33.611309 305.405487,33.307133 304.672913,33.002956 
	C305.198792,32.347160 305.724701,31.691362 306.558685,31.040741 
z"/>
<path fill="#A6A9AB" opacity="1.000000" stroke="none" 
	d="
M310.635468,30.706532 
	C309.924713,30.823359 309.301910,30.695866 308.202148,30.533068 
	C308.724579,30.485914 309.723999,30.474062 310.635468,30.706532 
z"/>
<path fill="#A6A9AB" opacity="1.000000" stroke="none" 
	d="
M307.938354,43.823635 
	C308.387085,43.628147 308.919098,43.627743 309.849762,43.618580 
	C309.506165,43.746120 308.763916,43.882416 307.938354,43.823635 
z"/>
<path fill="#363C3C" opacity="1.000000" stroke="none" 
	d="
M157.793198,32.809818 
	C158.691605,29.344337 160.453506,29.130878 163.444794,31.885468 
	C161.845032,32.721085 160.690063,33.324371 159.205917,33.910515 
	C158.633255,33.655254 158.389755,33.417145 157.793198,32.809818 
z"/>
<path fill="#363C3C" opacity="1.000000" stroke="none" 
	d="
M1396.187500,42.193848 
	C1396.025146,41.162975 1395.736450,40.390442 1395.978149,39.859291 
	C1396.684692,38.306698 1397.602783,36.850410 1398.437988,35.356411 
	C1399.249268,36.918461 1400.781250,38.518307 1400.701904,40.033607 
	C1400.585083,42.259151 1399.576782,44.896076 1396.187500,42.193848 
z"/>
<path fill="#363C3C" opacity="1.000000" stroke="none" 
	d="
M1345.629639,41.046722 
	C1346.029785,41.602451 1346.140503,42.146626 1346.251221,42.690804 
	C1345.502197,42.609501 1344.753296,42.528194 1344.004272,42.446877 
	C1344.449707,41.976303 1344.895020,41.505733 1345.629639,41.046722 
z"/>
<path fill="#363C3C" opacity="1.000000" stroke="none" 
	d="
M1299.455200,35.660881 
	C1300.156616,36.549747 1301.000732,37.433407 1300.814209,37.929821 
	C1300.085327,39.869892 1299.030518,41.687447 1298.096924,43.550591 
	C1297.102905,42.318005 1295.498413,41.198246 1295.245117,39.828663 
	C1294.757446,37.191273 1295.396118,34.744068 1299.455200,35.660881 
z"/>
<path fill="#DCDFE0" opacity="1.000000" stroke="none" 
	d="
M1187.065186,37.804005 
	C1186.987427,38.111794 1186.755127,38.300350 1186.607422,38.277267 
	C1185.998657,37.416386 1185.537842,36.578590 1185.042480,35.373970 
	C1186.271362,34.748108 1187.534668,34.489075 1189.769043,34.030945 
	C1188.530640,35.664944 1187.836792,36.580582 1187.065186,37.804005 
z"/>
<path fill="#363C3C" opacity="1.000000" stroke="none" 
	d="
M1194.455200,36.971375 
	C1194.044800,37.370972 1193.879517,37.278992 1193.456055,37.068916 
	C1193.148560,36.790142 1193.099121,36.629467 1192.985229,36.225075 
	C1193.513916,36.147499 1194.107056,36.313652 1194.455200,36.971375 
z"/>
<path fill="#4F5253" opacity="1.000000" stroke="none" 
	d="
M1220.627563,36.214748 
	C1221.345947,36.543434 1221.671143,36.860821 1222.216553,37.250687 
	C1222.422241,37.629890 1222.431274,37.935921 1222.502197,38.467659 
	C1221.332397,39.139565 1220.123779,39.585087 1218.850830,40.374107 
	C1217.438110,40.290661 1215.735352,40.208080 1214.867065,39.314667 
	C1214.296387,38.727436 1214.929443,36.970268 1215.023560,35.737015 
	C1216.760498,35.892490 1218.497437,36.047970 1220.627563,36.214748 
z"/>
<path fill="#E7E8EA" opacity="1.000000" stroke="none" 
	d="
M52.049957,36.971046 
	C52.445702,37.193150 52.659119,37.394077 52.872536,37.595005 
	C52.301323,37.541748 51.730110,37.488487 51.158897,37.435230 
	C51.395142,37.273441 51.631386,37.111656 52.049957,36.971046 
z"/>
<path fill="#353B3B" opacity="1.000000" stroke="none" 
	d="
M2493.434082,33.916275 
	C2493.216797,33.626270 2493.087402,32.876659 2493.145020,31.864161 
	C2493.395508,32.219738 2493.458740,32.838203 2493.434082,33.916275 
z"/>
</svg>