<svg version="1.1" id="Layer_1" xmlns="http://www.w3.org/2000/svg" xmlns:xlink="http://www.w3.org/1999/xlink" x="0px" y="0px"
	 width="100%" viewBox="0 0 768 202" enable-background="new 0 0 768 202" xml:space="preserve">
<path fill="#3B3A36" opacity="1.000000" stroke="none" 
	d="
M1.000000,156.000000 
	C1.000000,107.312439 1.000000,58.624878 1.464500,9.462296 
	C6.279634,8.961637 10.630269,8.935997 15.420259,8.938410 
	C17.910677,8.940232 19.961739,8.914001 22.326488,8.867573 
	C23.439030,8.603059 24.237883,8.358743 25.416878,8.276220 
	C27.270981,8.622557 28.744915,8.967592 30.218903,8.967820 
	C56.810452,8.971930 83.402008,8.934426 110.462250,8.925491 
	C150.617523,8.938891 190.304092,8.932621 230.460114,8.947818 
	C258.617645,8.954464 286.305756,8.939643 314.462463,8.945454 
	C321.623901,8.962301 328.316803,8.958516 335.477570,8.967037 
	C344.627045,8.974517 353.308655,8.969689 362.420502,8.975927 
	C364.570465,8.967831 366.290161,8.948668 368.467102,8.941488 
	C372.279846,8.954217 375.635376,8.954962 379.459991,8.966496 
	C406.624908,8.960774 433.320679,8.944263 460.483246,8.947512 
	C468.962524,8.956038 476.975067,8.944802 485.455475,8.953806 
	C490.954010,8.950507 495.984680,8.926970 501.430115,8.920666 
	C503.228821,8.939199 504.612671,8.940500 506.465210,8.956947 
	C517.625854,8.959713 528.317810,8.947334 539.425903,8.953344 
	C541.232422,8.963287 542.622681,8.954842 544.480591,8.962366 
	C552.961304,8.963440 560.974365,8.948543 569.405884,8.955361 
	C571.219727,8.955078 572.615112,8.933080 574.467651,8.927153 
	C578.283813,8.946616 581.642822,8.950006 585.430298,8.969211 
	C587.575745,8.961120 589.292725,8.937215 591.425293,8.933125 
	C593.226990,8.939487 594.613098,8.926036 596.467346,8.936852 
	C613.294800,8.944603 629.654236,8.928085 646.481079,8.928057 
	C669.164307,8.960169 691.380066,8.999763 713.595642,8.952799 
	C715.720276,8.948306 717.843689,8.403908 720.379944,8.183895 
	C723.255737,8.505853 725.718323,8.956147 728.183105,8.968722 
	C741.788452,9.038136 755.394287,9.000763 769.000000,9.000000 
	C769.000000,57.687561 769.000000,106.375122 768.536804,155.610367 
	C766.908020,156.179367 765.742371,156.219360 764.576782,156.219376 
	C511.712067,156.222168 258.847351,156.222580 5.982637,156.213058 
	C4.321755,156.212997 2.660879,156.074081 1.000000,156.000000 
M412.184814,139.496689 
	C412.399506,139.756699 412.673859,139.863632 413.689240,139.877457 
	C414.141235,139.827835 414.593231,139.778229 415.966766,139.869690 
	C416.965271,139.898697 417.963806,139.953079 418.962311,139.953140 
	C519.884644,139.959183 620.807007,139.965302 721.729370,139.939133 
	C724.213196,139.938492 726.696838,139.576965 729.804565,139.341660 
	C733.599426,137.632553 737.394287,135.923447 741.861267,134.054230 
	C744.061768,131.047119 746.262268,128.040009 748.721558,124.725945 
	C748.860535,124.489815 748.948853,124.236015 749.583313,123.564774 
	C750.323547,121.083832 751.688599,118.607414 751.706665,116.121223 
	C751.872070,93.328354 751.892822,70.532951 751.679138,47.740894 
	C751.655029,45.177139 749.919128,42.629433 748.709717,39.407772 
	C745.546753,31.843813 740.636292,26.278399 731.378357,24.419912 
	C729.236206,24.215273 727.094177,23.832134 724.951965,23.831621 
	C622.860535,23.807194 520.769104,23.809568 418.677704,23.861555 
	C416.403015,23.862717 414.128632,24.471256 411.098175,24.849644 
	C402.810974,26.987009 397.100983,31.984499 394.016602,40.999996 
	C393.998566,68.002243 393.980530,95.004494 393.945923,122.753807 
	C396.484314,130.939850 401.979431,136.170242 410.667328,138.959091 
	C411.095581,139.006363 411.523834,139.053635 412.184814,139.496689 
M23.050577,120.731987 
	C23.747717,122.150330 24.444855,123.568665 25.084332,125.725700 
	C28.633087,134.826263 36.310871,138.031586 45.973736,139.869278 
	C46.472462,139.896698 46.971188,139.948090 47.469917,139.948151 
	C150.058823,139.961258 252.647736,139.973770 355.236633,139.952850 
	C356.870728,139.952515 358.504730,139.540573 360.911987,139.303345 
	C361.919464,139.047638 362.926910,138.791931 364.631226,138.565125 
	C376.312073,134.085831 380.875977,127.600044 380.877380,115.479660 
	C380.879486,97.658348 380.883026,79.837036 380.884186,62.015720 
	C380.884583,55.853218 380.998901,49.687225 380.818848,43.529915 
	C380.746094,41.041504 381.015198,37.658451 376.486969,38.524216 
	C376.352081,38.186649 376.217194,37.849079 376.765106,37.296188 
	C377.060883,36.739441 377.716553,36.082844 377.594238,35.642082 
	C376.777832,32.699406 369.401428,27.244955 365.993439,26.987982 
	C365.993439,26.987982 366.049896,26.979082 365.686584,26.415569 
	C364.518951,25.851969 363.351318,25.288368 361.430664,24.326675 
	C359.616394,24.157547 357.802185,23.840906 355.987885,23.840397 
	C253.736649,23.811695 151.485428,23.801418 49.234219,23.852541 
	C46.814026,23.853752 44.394196,24.572470 41.264050,24.965498 
	C39.517429,26.311432 37.770809,27.657368 35.373661,29.001600 
	C34.579636,29.266121 33.785610,29.530642 32.367905,30.142817 
	C25.620487,33.287449 24.027639,39.476070 22.901880,46.933281 
	C22.944952,70.941277 22.988024,94.949272 23.023046,119.494843 
	C23.029116,119.673859 23.035185,119.852882 23.050577,120.731987 
z"/>
<path fill="#C6C2B7" opacity="1.000000" stroke="none" 
	d="
M769.000000,164.000000 
	C769.000000,176.993271 769.000000,189.986526 769.000000,202.959106 
	C513.000000,202.959106 257.000000,202.959106 1.000000,202.959106 
	C1.000000,190.591248 1.000000,178.264282 1.468657,165.468658 
	C77.009811,164.666656 152.082291,164.330902 227.154816,164.004028 
	C234.092819,163.973831 241.033997,163.872650 247.968430,164.032532 
	C256.553223,164.230469 265.130798,164.888443 273.714508,164.954651 
	C292.634735,165.100601 311.556793,164.999969 330.478119,165.000015 
	C343.078217,165.000046 355.678436,164.972687 368.278381,165.015976 
	C372.388245,165.030106 376.502411,165.415695 380.606079,165.307419 
	C392.723663,164.987686 404.836456,164.205917 416.952087,164.185913 
	C426.064880,164.170853 435.177277,165.407593 444.293243,165.456955 
	C461.156189,165.548294 478.022095,165.212311 494.885925,164.991653 
	C517.835815,164.691360 540.785278,164.348969 563.733765,163.958405 
	C565.160889,163.934128 566.578125,163.333618 568.333313,163.000732 
	C569.111084,163.000748 569.555542,163.001221 570.337769,163.241119 
	C572.815125,163.653870 574.954590,163.977783 577.094238,163.978683 
	C641.062805,164.005402 705.031433,164.000183 769.000000,164.000000 
M490.000000,177.000504 
	C490.000000,177.000504 490.000000,177.007812 489.998260,177.716553 
	C489.988007,178.420502 489.977753,179.124435 489.283142,180.036041 
	C484.663086,182.932693 483.660095,182.452286 483.435028,176.597931 
	C483.800201,175.678452 484.165405,174.758972 484.530609,173.839493 
	C484.200958,173.564026 483.871338,173.288544 483.541687,173.013077 
	C482.367493,174.022217 481.193298,175.031357 480.018799,176.840897 
	C481.214600,179.301941 481.873596,183.062012 483.763672,183.843109 
	C485.505188,184.562805 488.569397,182.081909 491.512878,181.000626 
	C491.512878,181.000626 491.974731,180.987518 491.987030,180.995544 
	C491.987030,180.995544 491.982544,180.988297 492.173340,181.656586 
	C494.141479,184.292114 496.360291,185.886108 499.757660,183.885788 
	C500.533203,183.429169 501.754120,183.151276 502.559631,183.420547 
	C506.623840,184.779022 506.949585,182.495590 507.117065,179.368912 
	C507.212189,177.593109 508.182129,175.864182 508.758087,174.114136 
	C509.360840,174.243729 509.963593,174.373322 510.566345,174.502914 
	C510.736542,176.537537 510.737518,178.606750 511.143341,180.593231 
	C511.369843,181.701889 512.269165,182.673096 512.865234,183.706253 
	C513.562866,182.615555 514.679016,181.591782 514.866516,180.419495 
	C515.203186,178.314301 514.982117,176.119919 515.623230,174.399094 
	C516.094910,175.921783 516.492859,177.472565 517.059509,178.959045 
	C517.597839,180.371277 518.312683,181.716217 519.152954,183.668152 
	C519.811401,183.949432 520.469788,184.230713 521.128235,184.511993 
	C521.065918,183.680222 521.003601,182.848450 520.487915,181.386215 
	C517.767639,178.078644 523.824341,173.312988 518.386658,169.879074 
	C517.172424,171.373337 516.103210,172.689117 514.293884,173.827560 
	C508.590271,170.520508 507.671173,170.931274 502.486603,179.104523 
	C497.226959,170.521423 496.492310,170.233490 491.390106,175.009659 
	C490.929993,175.005615 490.469879,175.001587 489.419220,174.931534 
	C488.729645,175.116882 488.040039,175.302231 487.350464,175.487579 
	C488.231049,175.991714 489.111603,176.495850 490.000000,177.000504 
M360.241852,175.939545 
	C358.840118,175.055695 357.438385,174.171860 355.850159,173.170410 
	C355.618439,178.611847 355.618439,178.611847 360.977386,178.926224 
	C360.977386,182.337357 360.977386,185.748505 360.977386,189.159637 
	C361.542908,189.163528 362.108459,189.167419 362.673981,189.171310 
	C362.827393,187.155029 362.980804,185.138748 363.707397,183.440292 
	C368.548798,187.114487 370.045776,181.647003 373.121246,180.726669 
	C374.930511,183.820129 377.099548,185.374557 381.112640,182.610062 
	C378.852020,182.034195 377.369110,181.656448 375.886230,181.278702 
	C377.295502,180.107193 378.688934,180.303528 379.733429,179.790115 
	C380.932526,179.200684 381.822479,177.982391 382.846741,177.037262 
	C381.613678,176.175522 380.388123,174.622772 379.145874,174.609314 
	C377.136841,174.587570 375.116791,175.577621 372.427063,175.916428 
	C370.081451,174.792542 368.918976,170.410416 366.208954,172.185532 
	C366.884460,175.466095 367.695068,177.811844 367.622437,180.129898 
	C367.603485,180.735428 364.836426,181.254837 363.178619,180.963257 
	C363.004730,178.249207 362.830841,175.535141 362.656952,172.821091 
	C362.287811,172.826096 361.918671,172.831100 361.549561,172.836121 
	C361.346588,173.887100 361.143646,174.938095 360.241852,175.939545 
M223.897873,171.013809 
	C225.141052,170.694992 226.384232,170.376160 227.627411,170.057343 
	C227.553864,169.569717 227.480301,169.082108 227.406754,168.594482 
	C223.514984,168.594482 219.623199,168.594482 215.731430,168.594482 
	C215.679840,169.087372 215.628250,169.580261 215.576660,170.073151 
	C217.359619,170.397247 219.142593,170.721359 220.964508,171.961685 
	C220.964508,175.673401 220.964508,179.385117 220.964508,183.096848 
	C221.687653,183.086349 222.410812,183.075851 223.133957,183.065369 
	C223.133957,179.072418 223.133957,175.079453 223.897873,171.013809 
M435.309479,173.916168 
	C433.507446,173.433762 431.705414,172.951370 430.280579,172.569946 
	C431.826691,176.767883 433.022705,180.015198 434.690552,184.543610 
	C435.229431,180.088058 435.599335,177.029358 436.753143,173.984360 
	C437.784424,175.579285 439.063751,177.072830 439.769867,178.800644 
	C440.353760,180.229202 440.260529,181.934525 440.467316,183.517212 
	C440.869415,183.500092 441.271515,183.482971 441.673615,183.465851 
	C442.090271,181.755173 442.506927,180.044495 443.600525,178.670593 
	C444.531219,180.071579 445.461945,181.472565 446.272949,182.693375 
	C447.766846,181.611389 448.922119,180.748901 450.104431,179.925293 
	C451.390411,179.029510 453.745789,178.187897 453.761322,177.290207 
	C453.785736,175.879547 452.545441,173.813324 451.272675,173.196304 
	C450.057220,172.607056 447.888733,173.114578 446.555084,173.872177 
	C445.096191,174.700958 444.114044,176.369064 442.747803,176.876099 
	C441.378876,173.855026 440.386139,169.947495 435.309479,173.916168 
M298.269226,173.006363 
	C295.877258,173.327667 293.485291,173.648972 290.450470,173.620956 
	C288.223175,173.496872 285.995880,173.372787 283.768585,173.248718 
	C283.867035,176.694519 282.819580,180.866241 284.405518,183.369690 
	C285.821503,185.604889 290.044006,185.493362 292.494476,181.650513 
	C293.662567,181.767410 294.830688,181.884308 295.996094,182.765442 
	C295.991089,183.775787 295.986084,184.786148 295.524719,186.339249 
	C294.858765,190.353775 297.894623,190.682083 299.991516,189.651413 
	C301.797821,188.763565 303.997803,185.920105 303.782410,184.226288 
	C303.270081,180.197144 307.006195,175.068878 300.649750,172.137192 
	C300.098846,172.423172 299.547943,172.709167 298.269226,173.006363 
M274.813202,173.873383 
	C275.573120,175.963608 276.308502,178.063171 277.101624,180.140747 
	C277.633759,181.534729 278.247589,182.897522 278.824890,184.274277 
	C279.509460,182.837830 280.379974,181.455048 280.815308,179.946671 
	C281.122040,178.884018 280.951721,177.635193 280.796234,176.496552 
	C280.293823,172.817932 278.015045,171.776184 273.338165,173.102615 
	C271.270050,172.788483 269.201904,172.474335 266.297089,172.103943 
	C258.382050,172.985947 257.921661,173.775665 259.354370,185.532776 
	C260.484955,182.946533 261.180756,181.354889 261.987274,179.509979 
	C262.922546,181.454636 263.662628,182.993454 264.298859,184.316315 
	C265.265839,180.604691 266.137115,177.260330 267.793396,174.023132 
	C273.664459,174.867920 269.099335,180.971542 272.528595,183.533264 
	C273.063171,179.990723 273.541168,176.823059 274.813202,173.873383 
M236.789627,182.906357 
	C236.987015,180.227325 237.184387,177.548279 237.381775,174.869247 
	C235.560654,174.876221 233.739532,174.883194 231.314392,175.231247 
	C229.791000,177.348450 228.267609,179.465668 226.744217,181.582870 
	C227.009537,182.130112 227.274857,182.677338 227.540192,183.224579 
	C230.382370,183.224579 233.224564,183.224579 236.789627,182.906357 
M556.538635,176.971802 
	C557.006714,176.027664 558.040405,174.396088 557.856323,174.244659 
	C555.778931,172.535385 553.570679,170.396927 550.319214,173.884109 
	C550.063965,176.714066 549.171936,179.674606 549.718445,182.340210 
	C550.367981,185.508286 554.298828,185.086151 558.903931,181.288544 
	C557.886414,179.877090 556.850952,178.440689 556.538635,176.971802 
M249.285706,176.238495 
	C249.208344,175.437698 249.130981,174.636887 248.730713,173.162918 
	C246.449677,172.810883 244.168640,172.458832 241.199219,172.409653 
	C239.216370,178.197861 239.880768,183.903290 241.459808,189.657043 
	C242.698685,188.282486 243.058609,186.569656 244.084808,185.490250 
	C245.162613,184.356583 247.022888,184.003738 248.263809,182.975037 
	C249.060608,182.314529 249.356094,181.049301 250.305908,179.658707 
	C250.012787,178.782028 249.719650,177.905334 249.285706,176.238495 
M533.340393,173.929413 
	C532.890808,173.939224 532.441284,173.949036 531.553162,173.359909 
	C528.801453,171.484177 525.950684,170.833389 523.760315,173.918564 
	C521.785461,176.700165 523.097900,181.964066 526.147156,183.715408 
	C526.794128,180.580292 527.420715,177.543808 528.047363,174.507339 
	C528.562317,174.591202 529.077332,174.675079 529.592285,174.758957 
	C529.743347,176.184219 529.894348,177.609467 530.076538,179.760635 
	C532.646057,185.532059 535.997253,186.155807 540.248596,181.733810 
	C540.991760,180.960831 542.058350,180.498749 542.991760,180.620331 
	C543.225830,181.455048 543.459961,182.289749 543.694031,183.124466 
	C543.953064,183.085159 544.212036,183.045853 544.471069,183.006546 
	C544.471069,178.354691 544.471069,173.702835 544.471069,169.050980 
	C543.975281,169.029694 543.479431,169.008408 542.983643,168.987106 
	C542.983643,171.684235 542.983643,174.381363 542.319702,176.924744 
	C541.164001,175.751724 540.195312,174.046692 538.799683,173.556107 
	C537.418030,173.070419 535.605774,173.809921 534.002197,174.001678 
	C534.002197,174.001678 534.012939,173.981949 533.340393,173.929413 
M339.005188,179.491119 
	C339.005188,179.491119 339.003235,179.023193 339.462494,178.430603 
	C340.075714,173.623947 337.847656,170.705673 334.453491,172.420822 
	C332.449493,173.433472 330.100922,176.713364 330.397888,178.576691 
	C330.761200,180.856140 333.476044,183.125519 335.716736,184.538834 
	C336.478271,185.019165 338.886688,182.888550 340.542542,181.951019 
	C340.031342,181.287033 339.520142,180.623047 339.005188,179.491119 
M423.562195,181.292282 
	C423.035767,178.863724 422.509338,176.435181 421.340759,173.660889 
	C419.042145,171.999344 415.887512,170.643433 414.767426,173.839157 
	C413.764008,176.701920 413.849670,181.115936 415.481232,183.394653 
	C417.026764,185.553162 421.138000,185.514023 423.562195,181.292282 
M473.731049,177.876312 
	C473.306854,174.331879 471.583435,173.574921 468.193970,174.694519 
	C464.909485,175.779449 462.410156,177.751495 463.309204,180.959396 
	C463.744507,182.512573 467.156464,183.858826 469.369995,184.145309 
	C473.066315,184.623703 474.150604,182.016769 473.731049,177.876312 
M314.201874,181.610748 
	C312.792419,181.610748 311.382965,181.610748 309.973480,181.610748 
	C309.961945,181.193390 309.950378,180.776031 309.938812,180.358688 
	C310.827667,180.202469 311.788116,180.208450 312.589630,179.854538 
	C314.025787,179.220428 315.366333,178.369766 316.746857,177.609619 
	C315.270081,175.823776 314.014008,172.931686 312.251099,172.579987 
	C310.659363,172.262451 307.729614,174.308884 306.803558,176.060272 
	C305.550781,178.429703 305.314301,181.514236 308.701508,183.297241 
	C312.533264,185.314224 313.874054,185.025208 314.201874,181.610748 
M327.401337,184.586319 
	C327.585815,183.710388 327.965607,182.823395 327.916748,181.960678 
	C327.790375,179.727753 326.597748,177.087738 327.417725,175.366043 
	C329.123901,171.783600 327.213898,170.855011 324.822754,169.494827 
	C322.786255,174.327438 323.678131,180.677124 327.401337,184.586319 
M354.859772,184.921204 
	C355.247894,184.674133 355.636047,184.427063 356.024200,184.180008 
	C351.654846,181.763168 351.538025,177.669647 351.688843,172.932053 
	C349.883484,174.137268 348.291809,175.596237 348.414429,176.893082 
	C348.755920,180.504425 348.571777,184.957077 354.859772,184.921204 
M391.990570,179.334137 
	C392.171326,180.617020 392.352051,181.899902 392.532806,183.182785 
	C393.037689,183.084091 393.542572,182.985397 394.047455,182.886688 
	C392.865814,179.358170 396.715332,174.560501 391.226288,172.368271 
	C389.405212,171.640961 385.509674,171.029846 383.739105,175.605179 
	C387.819946,174.754379 392.303223,171.443375 391.990570,179.334137 
z"/>
<path fill="#A4A198" opacity="1.000000" stroke="none" 
	d="
M1.000000,156.399994 
	C2.660879,156.074081 4.321755,156.212997 5.982637,156.213058 
	C258.847351,156.222580 511.712067,156.222168 764.576782,156.219376 
	C765.742371,156.219360 766.908020,156.179367 768.536804,156.079025 
	C769.000000,156.750000 769.000000,157.500000 768.531433,158.613403 
	C675.823853,158.972168 583.584839,158.967438 491.345825,158.963013 
	C476.412079,158.962296 461.476929,158.838791 446.544983,159.003128 
	C435.077301,159.129333 423.614563,159.820175 412.147736,159.877136 
	C404.349060,159.915878 396.548584,159.060150 388.746368,159.011185 
	C367.673523,158.878891 346.598450,158.844955 325.525970,159.004166 
	C311.120422,159.113007 296.719208,159.727692 282.313477,159.901611 
	C269.047607,160.061752 255.777145,160.040680 242.511032,159.892090 
	C235.570389,159.814362 228.632416,158.981308 221.697357,159.033859 
	C207.608215,159.140625 193.522415,159.868622 179.434311,159.897705 
	C119.956390,160.020477 60.478134,159.980484 1.000000,160.000000 
	C1.000000,158.933334 1.000000,157.866653 1.000000,156.399994 
z"/>
<path fill="#BDB9AE" opacity="1.000000" stroke="none" 
	d="
M1.000000,160.333328 
	C60.478134,159.980484 119.956390,160.020477 179.434311,159.897705 
	C193.522415,159.868622 207.608215,159.140625 221.697357,159.033859 
	C228.632416,158.981308 235.570389,159.814362 242.511032,159.892090 
	C255.777145,160.040680 269.047607,160.061752 282.313477,159.901611 
	C296.719208,159.727692 311.120422,159.113007 325.525970,159.004166 
	C346.598450,158.844955 367.673523,158.878891 388.746368,159.011185 
	C396.548584,159.060150 404.349060,159.915878 412.147736,159.877136 
	C423.614563,159.820175 435.077301,159.129333 446.544983,159.003128 
	C461.476929,158.838791 476.412079,158.962296 491.345825,158.963013 
	C583.584839,158.967438 675.823853,158.972168 768.531433,158.988403 
	C769.000000,159.750000 769.000000,160.500000 768.531372,161.625214 
	C704.295593,162.000488 640.528442,161.990311 576.761414,162.042770 
	C574.507324,162.044632 572.253784,162.667984 570.000000,163.001678 
	C569.555542,163.001221 569.111084,163.000748 567.995728,162.760773 
	C565.184753,162.346985 563.044678,162.020370 560.904541,162.020111 
	C374.269684,161.997208 187.634842,161.999481 1.000000,162.000000 
	C1.000000,161.555557 1.000000,161.111099 1.000000,160.333328 
z"/>
<path fill="#C5C0B5" opacity="1.000000" stroke="none" 
	d="
M1.000000,162.375000 
	C187.634842,161.999481 374.269684,161.997208 560.904541,162.020111 
	C563.044678,162.020370 565.184753,162.346985 567.662476,162.761230 
	C566.578125,163.333618 565.160889,163.934128 563.733765,163.958405 
	C540.785278,164.348969 517.835815,164.691360 494.885925,164.991653 
	C478.022095,165.212311 461.156189,165.548294 444.293243,165.456955 
	C435.177277,165.407593 426.064880,164.170853 416.952087,164.185913 
	C404.836456,164.205917 392.723663,164.987686 380.606079,165.307419 
	C376.502411,165.415695 372.388245,165.030106 368.278381,165.015976 
	C355.678436,164.972687 343.078217,165.000046 330.478119,165.000015 
	C311.556793,164.999969 292.634735,165.100601 273.714508,164.954651 
	C265.130798,164.888443 256.553223,164.230469 247.968430,164.032532 
	C241.033997,163.872650 234.092819,163.973831 227.154816,164.004028 
	C152.082291,164.330902 77.009811,164.666656 1.468657,165.000000 
	C1.000000,164.250000 1.000000,163.500000 1.000000,162.375000 
z"/>
<path fill="#2C1B18" opacity="1.000000" stroke="none" 
	d="
M229.990662,8.926350 
	C190.304092,8.932621 150.617523,8.938891 110.431595,8.572292 
	C108.288162,5.799614 106.644081,3.399808 105.000000,1.000001 
	C141.687561,1.000000 178.375122,1.000000 215.598236,1.369438 
	C216.937698,5.718899 219.804092,6.084199 223.185913,6.065005 
	C225.736374,6.050529 229.031204,4.907235 229.990662,8.926350 
z"/>
<path fill="#311C16" opacity="1.000000" stroke="none" 
	d="
M230.460114,8.947818 
	C229.031204,4.907235 225.736374,6.050529 223.185913,6.065005 
	C219.804092,6.084199 216.937698,5.718899 216.066895,1.369438 
	C251.354233,1.000000 286.708466,1.000000 322.620300,1.309197 
	C323.874756,2.437255 324.571594,3.256116 325.077118,3.850156 
	C321.290039,5.584128 317.641968,7.254475 313.993866,8.924822 
	C286.305756,8.939643 258.617645,8.954464 230.460114,8.947818 
z"/>
<path fill="#37211B" opacity="1.000000" stroke="none" 
	d="
M460.016479,8.927752 
	C433.320679,8.944263 406.624908,8.960774 379.433411,8.606025 
	C377.919617,7.307354 376.766632,6.487814 375.916992,5.425627 
	C374.817993,4.051752 373.961121,2.484177 373.000000,0.999999 
	C402.687561,1.000000 432.375122,1.000000 462.415894,1.332582 
	C461.279846,2.493344 459.790619,3.321524 458.342896,4.126616 
	C458.955292,5.883442 459.485870,7.405598 460.016479,8.927752 
z"/>
<path fill="#281818" opacity="1.000000" stroke="none" 
	d="
M104.531342,1.000001 
	C106.644081,3.399808 108.288162,5.799614 109.962906,8.552620 
	C83.402008,8.934426 56.810452,8.971930 30.218903,8.967820 
	C28.744915,8.967592 27.270981,8.622557 25.409866,7.866840 
	C25.348473,5.197111 25.674236,3.098555 26.000000,1.000000 
	C52.020893,1.000000 78.041786,1.000000 104.531342,1.000001 
z"/>
<path fill="#271714" opacity="1.000000" stroke="none" 
	d="
M719.967712,8.110152 
	C717.843689,8.403908 715.720276,8.948306 713.595642,8.952799 
	C691.380066,8.999763 669.164307,8.960169 646.496216,8.570700 
	C647.029236,5.797904 648.014648,3.398956 649.000000,1.000003 
	C673.020874,1.000000 697.041809,1.000000 721.610291,1.309666 
	C725.669739,5.214267 720.257751,5.798071 719.967712,8.110152 
z"/>
<path fill="#2E1B12" opacity="1.000000" stroke="none" 
	d="
M585.001709,8.953392 
	C581.642822,8.950006 578.283813,8.946616 574.385071,8.591158 
	C571.761597,5.222436 570.043640,4.763705 568.987488,8.933645 
	C560.974365,8.948543 552.961304,8.963440 544.493774,8.633347 
	C544.692871,7.191438 545.346436,6.094522 546.301025,4.853515 
	C547.734741,3.472952 548.867371,2.236479 550.000000,1.000003 
	C570.687561,1.000000 591.375122,1.000000 612.468018,1.358413 
	C611.900818,4.624962 610.664001,7.088048 606.902771,5.186075 
	C600.918884,2.160209 599.553162,2.624158 595.999268,8.912584 
	C594.613098,8.926036 593.226990,8.939487 591.422119,8.542870 
	C590.272888,6.536985 589.542236,4.941170 588.811646,3.345356 
	C587.711304,4.592294 586.552368,5.794252 585.541687,7.110114 
	C585.178101,7.583490 585.171326,8.330976 585.001709,8.953392 
z"/>
<path fill="#C5C0B5" opacity="1.000000" stroke="none" 
	d="
M570.337769,163.241104 
	C572.253784,162.667984 574.507324,162.044632 576.761414,162.042770 
	C640.528442,161.990311 704.295593,162.000488 768.531372,162.000214 
	C769.000000,162.444443 769.000000,162.888901 769.000000,163.666672 
	C705.031433,164.000183 641.062805,164.005402 577.094238,163.978683 
	C574.954590,163.977783 572.815125,163.653870 570.337769,163.241104 
z"/>
<path fill="#221512" opacity="1.000000" stroke="none" 
	d="
M720.379944,8.183893 
	C720.257751,5.798071 725.669739,5.214267 722.078979,1.309666 
	C737.666687,1.000000 753.333374,1.000000 769.000000,1.000000 
	C769.000000,3.385778 769.000000,5.698155 769.000000,8.505266 
	C755.394287,9.000763 741.788452,9.038136 728.183105,8.968722 
	C725.718323,8.956147 723.255737,8.505853 720.379944,8.183893 
z"/>
<path fill="#2C1B18" opacity="1.000000" stroke="none" 
	d="
M596.467346,8.936853 
	C599.553162,2.624158 600.918884,2.160209 606.902771,5.186075 
	C610.664001,7.088048 611.900818,4.624962 612.936646,1.358413 
	C624.687561,1.000000 636.375122,1.000000 648.531372,1.000003 
	C648.014648,3.398956 647.029236,5.797904 646.028687,8.554211 
	C629.654236,8.928085 613.294800,8.944603 596.467346,8.936853 
z"/>
<path fill="#301C20" opacity="1.000000" stroke="none" 
	d="
M539.009766,8.934956 
	C528.317810,8.947334 517.625854,8.959713 506.541077,8.619379 
	C508.329926,6.829998 510.554474,5.453194 512.676575,3.933314 
	C513.871643,3.077377 514.897766,1.985551 516.000000,0.999997 
	C522.687622,1.000000 529.375305,1.000000 536.618652,1.320748 
	C537.786194,4.072650 538.397949,6.503804 539.009766,8.934956 
z"/>
<path fill="#311C16" opacity="1.000000" stroke="none" 
	d="
M460.483246,8.947514 
	C459.485870,7.405598 458.955292,5.883442 458.342896,4.126616 
	C459.790619,3.321524 461.279846,2.493344 462.884552,1.332582 
	C470.354248,1.000000 477.708496,1.000000 485.530426,1.409104 
	C485.661255,4.189994 485.324402,6.561780 484.987579,8.933567 
	C476.975067,8.944802 468.962524,8.956038 460.483246,8.947514 
z"/>
<path fill="#2F1F19" opacity="1.000000" stroke="none" 
	d="
M361.990234,8.964861 
	C353.308655,8.969689 344.627045,8.974517 335.474823,8.576323 
	C334.336121,5.782198 333.668060,3.391096 333.000000,0.999997 
	C340.020966,1.000000 347.041901,1.000000 354.535065,1.390049 
	C354.974396,4.855393 356.385162,6.578612 359.516418,7.092112 
	C360.419128,7.240149 361.169830,8.314951 361.990234,8.964861 
z"/>
<path fill="#24160F" opacity="1.000000" stroke="none" 
	d="
M25.531321,1.000000 
	C25.674236,3.098555 25.348473,5.197111 25.029720,7.705047 
	C24.237883,8.358743 23.439030,8.603059 22.234264,8.520708 
	C18.401451,4.918192 16.821287,5.083495 14.980905,8.910357 
	C10.630269,8.935997 6.279634,8.961637 1.464500,8.993639 
	C1.000000,6.369219 1.000000,3.738439 1.000000,1.000000 
	C9.020640,1.000000 17.041641,1.000000 25.531321,1.000000 
z"/>
<path fill="#301C20" opacity="1.000000" stroke="none" 
	d="
M332.545898,0.999997 
	C333.668060,3.391096 334.336121,5.782198 335.006927,8.564015 
	C328.316803,8.958516 321.623901,8.962301 314.462463,8.945454 
	C317.641968,7.254475 321.290039,5.584128 325.077118,3.850156 
	C324.571594,3.256116 323.874756,2.437255 323.088959,1.309197 
	C326.030609,1.000000 329.061188,1.000000 332.545898,0.999997 
z"/>
<path fill="#311C16" opacity="1.000000" stroke="none" 
	d="
M515.531494,0.999997 
	C514.897766,1.985551 513.871643,3.077377 512.676575,3.933314 
	C510.554474,5.453194 508.329926,6.829998 506.072388,8.604233 
	C504.612671,8.940500 503.228821,8.939199 501.386536,8.550492 
	C500.311432,7.483068 499.691193,6.215396 499.078613,6.219073 
	C495.303925,6.241726 494.722076,4.010983 495.000000,1.000000 
	C501.687653,1.000000 508.375275,1.000000 515.531494,0.999997 
z"/>
<path fill="#301C20" opacity="1.000000" stroke="none" 
	d="
M494.550018,1.000000 
	C494.722076,4.010983 495.303925,6.241726 499.078613,6.219073 
	C499.691193,6.215396 500.311432,7.483068 500.971741,8.533260 
	C495.984680,8.926970 490.954010,8.950507 485.455475,8.953806 
	C485.324402,6.561780 485.661255,4.189994 485.999054,1.409104 
	C488.700012,1.000000 491.400024,1.000000 494.550018,1.000000 
z"/>
<path fill="#311C16" opacity="1.000000" stroke="none" 
	d="
M372.550018,0.999999 
	C373.961121,2.484177 374.817993,4.051752 375.916992,5.425627 
	C376.766632,6.487814 377.919617,7.307354 378.964294,8.595235 
	C375.635376,8.954962 372.279846,8.954217 368.393524,8.605515 
	C366.575134,5.838369 365.287567,3.419181 364.000000,0.999996 
	C366.700012,1.000000 369.400024,1.000000 372.550018,0.999999 
z"/>
<path fill="#37211B" opacity="1.000000" stroke="none" 
	d="
M363.550018,0.999996 
	C365.287567,3.419181 366.575134,5.838369 367.936279,8.593532 
	C366.290161,8.948668 364.570465,8.967831 362.420502,8.975926 
	C361.169830,8.314951 360.419128,7.240149 359.516418,7.092112 
	C356.385162,6.578612 354.974396,4.855393 355.003632,1.390049 
	C357.700012,1.000000 360.400024,1.000000 363.550018,0.999996 
z"/>
<path fill="#2F1F19" opacity="1.000000" stroke="none" 
	d="
M539.425903,8.953345 
	C538.397949,6.503804 537.786194,4.072650 537.087158,1.320748 
	C539.370544,1.000000 541.741150,1.000000 544.567993,1.347595 
	C545.349609,2.795990 545.674805,3.896789 546.000000,4.997597 
	C545.346436,6.094522 544.692871,7.191438 544.026123,8.617375 
	C542.622681,8.954842 541.232422,8.963287 539.425903,8.953345 
z"/>
<path fill="#301C20" opacity="1.000000" stroke="none" 
	d="
M546.301025,4.853507 
	C545.674805,3.896789 545.349609,2.795990 545.012207,1.347595 
	C546.388916,1.000000 547.777771,1.000000 549.583374,1.000003 
	C548.867371,2.236479 547.734741,3.472952 546.301025,4.853507 
z"/>
<path fill="#595856" opacity="1.000000" stroke="none" 
	d="
M32.991581,29.795162 
	C33.785610,29.530642 34.579636,29.266121 35.975254,29.089420 
	C38.426037,28.377705 40.275227,27.578167 42.584442,26.801918 
	C121.669952,26.843781 200.295441,26.871977 278.920929,26.875729 
	C306.572723,26.877047 334.224518,26.818441 362.291870,26.852627 
	C363.821564,26.938396 364.935730,26.958740 366.049896,26.979084 
	C366.049896,26.979082 365.993439,26.987982 366.034912,27.310673 
	C369.411652,30.926085 372.746979,34.218803 376.082275,37.511513 
	C376.217194,37.849079 376.352081,38.186649 376.662170,39.120819 
	C377.534790,44.646793 378.769104,49.569130 378.833771,54.506798 
	C379.073792,72.818718 379.154877,91.140007 378.806580,109.448471 
	C378.682373,115.978104 378.392426,122.965813 373.952820,128.335648 
	C371.196594,131.669373 367.368927,134.117233 363.670776,136.963409 
	C362.219421,137.194946 361.119537,137.425781 359.589661,137.661179 
	C346.189301,137.457275 333.219055,137.077499 320.248535,137.068375 
	C240.668167,137.012405 161.087738,137.035782 81.507332,137.045044 
	C69.354752,137.046448 57.202171,137.111511 44.647491,137.096893 
	C42.407097,136.463074 40.210625,136.330933 38.798393,135.210388 
	C34.741779,131.991638 31.002447,128.373016 27.031086,124.546127 
	C26.548323,122.416771 26.172895,120.652832 25.818302,118.427902 
	C25.857309,100.892517 25.938267,83.817863 25.864120,66.743881 
	C25.832504,59.463615 25.476868,52.184757 25.451225,44.631195 
	C26.374552,42.745304 27.058771,41.104580 27.867460,39.527691 
	C29.540422,36.265526 31.279623,33.037327 32.991581,29.795162 
M159.260559,105.634758 
	C159.175446,104.221115 159.090347,102.807472 159.016953,101.588333 
	C161.856216,101.017044 164.259064,100.533569 166.661896,100.050102 
	C166.601746,99.711899 166.541595,99.373703 166.481445,99.035507 
	C163.437012,99.035507 160.392578,99.035507 156.301437,99.035507 
	C156.893341,104.979347 157.446121,110.530426 158.542435,116.318016 
	C159.231506,113.658401 159.920563,110.998779 160.609711,108.338821 
	C162.583725,108.032745 164.532410,107.730591 166.481110,107.428436 
	C166.445389,106.983963 166.409668,106.539482 166.373947,106.095009 
	C164.226578,106.095009 162.079224,106.095009 159.260559,105.634758 
M204.118195,108.025986 
	C204.007233,103.914948 202.460541,100.736137 198.106232,99.309303 
	C199.672379,102.897820 201.238525,106.486328 203.027527,110.830803 
	C203.629639,112.769691 204.231735,114.708580 205.065933,117.394836 
	C206.709839,115.207489 208.055008,113.925491 208.771561,112.356415 
	C210.180069,109.272202 211.390839,106.073837 212.363373,102.826843 
	C212.720215,101.635460 212.170929,100.172676 212.034973,98.833687 
	C211.133484,99.830528 210.173416,100.781113 209.342575,101.833725 
	C207.540039,104.117363 208.875366,108.748116 204.118195,108.025986 
M218.495026,106.607330 
	C217.974167,105.395340 217.453308,104.183357 216.751068,102.549263 
	C213.913254,107.811691 214.550354,115.152412 217.515503,116.285439 
	C218.025345,114.817154 218.535324,113.348465 219.656754,112.201004 
	C224.197479,117.639954 226.259628,117.944786 229.162415,114.649574 
	C227.477966,114.130836 225.305069,113.461685 223.132172,112.792534 
	C223.235703,112.284065 223.339233,111.775589 223.442780,111.267113 
	C224.514114,111.127151 225.597809,111.048149 226.654114,110.834045 
	C228.621597,110.435265 231.955429,112.176605 231.802460,108.224808 
	C231.671417,104.839531 229.651367,103.457474 226.028641,102.827255 
	C221.820068,102.095116 221.544388,106.066948 218.495026,106.607330 
M220.317871,67.110008 
	C219.825943,62.694847 219.533859,58.242104 218.715118,53.888397 
	C218.482407,52.650990 216.900208,51.112511 215.624405,50.715023 
	C206.477432,47.865215 197.221222,48.129852 188.137344,50.917377 
	C186.649704,51.373882 184.859589,53.704338 184.748993,55.276974 
	C184.342804,61.052864 184.778488,66.883369 184.508896,72.675240 
	C184.356171,75.956642 185.932846,77.479385 188.700027,77.634544 
	C196.094727,78.049179 203.567184,78.844337 210.896103,78.202347 
	C219.408081,77.456718 219.356064,76.862831 220.317871,67.110008 
M240.028793,103.431419 
	C238.265671,104.923347 236.502563,106.415268 233.633331,108.843178 
	C234.075226,110.508354 234.885590,113.561996 235.695953,116.615646 
	C236.177353,116.568550 236.658752,116.521461 237.140167,116.474365 
	C238.338333,114.503624 239.536499,112.532883 241.107819,109.948387 
	C242.489563,112.775558 243.447235,114.735046 244.404922,116.694542 
	C244.807190,116.729660 245.209473,116.764778 245.611755,116.799896 
	C246.782669,112.750237 247.953568,108.700577 249.124481,104.650917 
	C248.773849,104.380455 248.423218,104.110001 248.072586,103.839539 
	C246.845367,105.713982 245.618164,107.588432 244.837234,108.781227 
	C243.551056,107.049782 242.124130,105.128838 240.028793,103.431419 
M178.493301,103.539261 
	C174.192596,104.222672 177.040771,107.728432 176.038620,109.701164 
	C175.449539,110.860786 174.628036,111.902328 173.911072,112.996979 
	C173.255829,111.854317 172.289658,110.781197 172.015091,109.553413 
	C171.553619,107.489914 171.531906,105.328072 171.325195,103.207603 
	C170.567627,103.271667 169.810074,103.335724 169.052521,103.399780 
	C169.483551,107.476524 169.258911,111.811310 170.705917,115.488228 
	C171.203629,116.752991 175.874130,116.375618 178.895645,116.783119 
	C178.895645,111.910706 178.895645,108.095985 178.493301,103.539261 
M187.555389,107.441132 
	C187.558868,109.596291 187.405151,111.768822 187.640457,113.898369 
	C187.739410,114.793892 188.660583,115.598564 189.207977,116.444542 
	C189.906876,115.712326 191.183868,115.000854 191.210999,114.244545 
	C191.389130,109.278099 191.366592,104.299873 191.215027,99.331436 
	C191.193756,98.634262 190.109100,97.969536 189.516678,97.289780 
	C188.870193,98.039726 187.758377,98.736717 187.665863,99.549713 
	C187.405014,101.841736 187.562912,104.181427 187.555389,107.441132 
M181.661652,108.369308 
	C181.661652,111.049950 181.661652,113.730583 181.661652,117.183960 
	C185.844498,114.054726 185.808701,99.666397 182.621735,97.327568 
	C182.341156,97.714722 181.831558,98.093048 181.817413,98.489052 
	C181.711060,101.469681 181.702209,104.453804 181.661652,108.369308 
z"/>
<path fill="#8C8A88" opacity="1.000000" stroke="none" 
	d="
M411.854126,24.796471 
	C414.128632,24.471256 416.403015,23.862717 418.677704,23.861555 
	C520.769104,23.809568 622.860535,23.807194 724.951965,23.831621 
	C727.094177,23.832134 729.236206,24.215273 731.690308,24.967400 
	C731.962158,25.942974 731.921997,26.371059 731.424805,26.824417 
	C654.004883,26.857409 577.041992,26.874056 500.079102,26.868303 
	C470.760559,26.866112 441.441986,26.812513 412.088745,26.450607 
	C411.987427,25.678072 411.920776,25.237272 411.854126,24.796471 
z"/>
<path fill="#8B8A85" opacity="1.000000" stroke="none" 
	d="
M361.876312,26.787197 
	C334.224518,26.818441 306.572723,26.877047 278.920929,26.875729 
	C200.295441,26.871977 121.669952,26.843781 42.554386,26.500788 
	C42.034267,25.769754 42.004230,25.363138 41.974194,24.956524 
	C44.394196,24.572470 46.814026,23.853752 49.234219,23.852541 
	C151.485428,23.801418 253.736649,23.811695 355.987885,23.840397 
	C357.802185,23.840906 359.616394,24.157547 361.750610,24.871223 
	C362.005798,25.872915 361.941071,26.330055 361.876312,26.787197 
z"/>
<path fill="#8C8A88" opacity="1.000000" stroke="none" 
	d="
M729.180603,139.383759 
	C726.696838,139.576965 724.213196,139.938492 721.729370,139.939133 
	C620.807007,139.965302 519.884644,139.959183 418.962311,139.953140 
	C417.963806,139.953079 416.965271,139.898697 415.498779,139.475769 
	C415.032257,138.430832 415.033783,137.779831 415.499756,137.095795 
	C514.806824,137.051102 613.649414,137.037598 712.492065,137.032562 
	C717.982300,137.032272 723.472595,137.101822 728.981689,137.512650 
	C729.060608,138.385544 729.120605,138.884644 729.180603,139.383759 
z"/>
<path fill="#8B8A88" opacity="1.000000" stroke="none" 
	d="
M45.049591,137.147141 
	C57.202171,137.111511 69.354752,137.046448 81.507332,137.045044 
	C161.087738,137.035782 240.668167,137.012405 320.248535,137.068375 
	C333.219055,137.077499 346.189301,137.457275 359.603943,138.079865 
	C360.078400,138.769577 360.108612,139.045151 360.138794,139.320709 
	C358.504730,139.540573 356.870728,139.952515 355.236633,139.952850 
	C252.647736,139.973770 150.058823,139.961258 47.469917,139.948151 
	C46.971188,139.948090 46.472462,139.896698 45.506111,139.470947 
	C45.042191,138.430786 45.045891,137.788956 45.049591,137.147141 
z"/>
<path fill="#747270" opacity="1.000000" stroke="none" 
	d="
M364.022186,136.962708 
	C367.368927,134.117233 371.196594,131.669373 373.952820,128.335648 
	C378.392426,122.965813 378.682373,115.978104 378.806580,109.448471 
	C379.154877,91.140007 379.073792,72.818718 378.833771,54.506798 
	C378.769104,49.569130 377.534790,44.646793 376.710846,39.296154 
	C381.015198,37.658451 380.746094,41.041504 380.818848,43.529915 
	C380.998901,49.687225 380.884583,55.853218 380.884186,62.015720 
	C380.883026,79.837036 380.879486,97.658348 380.877380,115.479660 
	C380.875977,127.600044 376.312073,134.085831 364.297241,138.290955 
	C363.982880,137.665421 364.002533,137.314072 364.022186,136.962708 
z"/>
<path fill="#7D7C77" opacity="1.000000" stroke="none" 
	d="
M748.977051,40.074272 
	C749.919128,42.629433 751.655029,45.177139 751.679138,47.740894 
	C751.892822,70.532951 751.872070,93.328354 751.706665,116.121223 
	C751.688599,118.607414 750.323547,121.083832 749.158447,123.573845 
	C748.536377,123.344330 748.302490,123.149750 748.036255,122.567612 
	C748.075806,95.093651 748.111145,68.051270 748.312988,40.879196 
	C748.688293,40.556072 748.854187,40.330990 748.977051,40.074272 
z"/>
<path fill="#8B8A88" opacity="1.000000" stroke="none" 
	d="
M25.268473,44.905262 
	C25.476868,52.184757 25.832504,59.463615 25.864120,66.743881 
	C25.938267,83.817863 25.857309,100.892517 25.512169,118.460213 
	C24.772173,118.980423 24.359140,119.007324 23.718353,119.003136 
	C23.490595,118.972046 23.031094,118.957268 23.031094,118.957268 
	C22.988024,94.949272 22.944952,70.941277 23.234053,46.332932 
	C24.133640,45.456806 24.701057,45.181034 25.268473,44.905262 
z"/>
<path fill="#8B8A85" opacity="1.000000" stroke="none" 
	d="
M393.962463,122.006737 
	C393.980530,95.004494 393.998566,68.002243 394.430664,40.529892 
	C395.504944,40.067890 396.165222,40.076000 396.842346,40.430534 
	C396.825348,41.471668 396.791473,42.166370 396.485992,42.989647 
	C395.886749,43.802284 395.559143,44.486347 395.203003,45.627350 
	C395.144379,63.656300 394.987823,81.229416 395.140564,98.799843 
	C395.210907,106.887848 395.886963,114.970596 395.991516,122.939194 
	C395.117279,122.550682 394.539856,122.278709 393.962463,122.006737 
z"/>
<path fill="#7F7E7B" opacity="1.000000" stroke="none" 
	d="
M44.647491,137.096893 
	C45.045891,137.788956 45.042191,138.430786 45.047047,139.393082 
	C36.310871,138.031586 28.633087,134.826263 25.444618,125.356071 
	C26.249413,124.961472 26.693918,124.936508 27.138424,124.911537 
	C31.002447,128.373016 34.741779,131.991638 38.798393,135.210388 
	C40.210625,136.330933 42.407097,136.463074 44.647491,137.096893 
z"/>
<path fill="#747270" opacity="1.000000" stroke="none" 
	d="
M396.825470,40.084106 
	C396.165222,40.076000 395.504944,40.067890 394.516632,40.073219 
	C397.100983,31.984499 402.810974,26.987009 411.476135,24.823059 
	C411.920776,25.237272 411.987427,25.678072 411.737488,26.570267 
	C405.192657,29.852758 400.247711,34.117733 396.825470,40.084106 
z"/>
<path fill="#767571" opacity="1.000000" stroke="none" 
	d="
M393.954193,122.380272 
	C394.539856,122.278709 395.117279,122.550682 396.190063,123.178650 
	C399.418701,128.344284 402.526733,132.742081 408.015076,134.840897 
	C408.832397,135.153442 409.345917,136.260498 410.002136,137.307785 
	C410.013245,138.025314 410.022247,138.435074 410.031250,138.844833 
	C401.979431,136.170242 396.484314,130.939850 393.954193,122.380272 
z"/>
<path fill="#747270" opacity="1.000000" stroke="none" 
	d="
M748.843384,39.741020 
	C748.854187,40.330990 748.688293,40.556072 748.041626,40.668274 
	C743.186035,35.052666 738.980103,29.276821 731.881775,26.799145 
	C731.921997,26.371059 731.962158,25.942974 732.045044,25.194229 
	C740.636292,26.278399 745.546753,31.843813 748.843384,39.741020 
z"/>
<path fill="#777674" opacity="1.000000" stroke="none" 
	d="
M25.451225,44.631195 
	C24.701057,45.181034 24.133640,45.456806 23.284773,45.866505 
	C24.027639,39.476070 25.620487,33.287449 32.679741,29.968988 
	C31.279623,33.037327 29.540422,36.265526 27.867460,39.527691 
	C27.058771,41.104580 26.374552,42.745304 25.451225,44.631195 
z"/>
<path fill="#747270" opacity="1.000000" stroke="none" 
	d="
M376.423706,37.403854 
	C372.746979,34.218803 369.411652,30.926085 366.048309,27.285423 
	C369.401428,27.244955 376.777832,32.699406 377.594238,35.642082 
	C377.716553,36.082844 377.060883,36.739441 376.423706,37.403854 
z"/>
<path fill="#2C1B18" opacity="1.000000" stroke="none" 
	d="
M585.430237,8.969206 
	C585.171326,8.330976 585.178101,7.583490 585.541687,7.110114 
	C586.552368,5.794252 587.711304,4.592294 588.811646,3.345356 
	C589.542236,4.941170 590.272888,6.536985 591.006592,8.523056 
	C589.292725,8.937215 587.575745,8.961120 585.430237,8.969206 
z"/>
<path fill="#81807E" opacity="1.000000" stroke="none" 
	d="
M748.462769,125.032898 
	C746.262268,128.040009 744.061768,131.047119 741.470215,134.072723 
	C741.079102,134.091232 740.970398,133.970551 740.959106,133.613922 
	C742.953796,130.496902 744.959717,127.736511 747.339722,124.993835 
	C747.963562,125.018669 748.213196,125.025780 748.462769,125.032898 
z"/>
<path fill="#81807E" opacity="1.000000" stroke="none" 
	d="
M729.492554,139.362701 
	C729.120605,138.884644 729.060608,138.385544 729.388062,137.463409 
	C733.507202,136.017090 737.238770,134.993820 740.970398,133.970551 
	C740.970398,133.970551 741.079102,134.091232 741.134155,134.152771 
	C737.394287,135.923447 733.599426,137.632553 729.492554,139.362701 
z"/>
<path fill="#281818" opacity="1.000000" stroke="none" 
	d="
M15.420259,8.938410 
	C16.821287,5.083495 18.401451,4.918192 21.920574,8.540905 
	C19.961739,8.914001 17.910677,8.940232 15.420259,8.938410 
z"/>
<path fill="#777674" opacity="1.000000" stroke="none" 
	d="
M27.031088,124.546127 
	C26.693918,124.936508 26.249413,124.961472 25.473450,124.986725 
	C24.444855,123.568665 23.747717,122.150330 23.243900,120.262558 
	C23.684114,119.591972 23.853743,119.339005 23.946110,119.034225 
	C24.359140,119.007324 24.772173,118.980423 25.491337,118.921204 
	C26.172895,120.652832 26.548323,122.416771 27.031088,124.546127 
z"/>
<path fill="#2F1F19" opacity="1.000000" stroke="none" 
	d="
M569.405884,8.955360 
	C570.043640,4.763705 571.761597,5.222436 573.927856,8.575086 
	C572.615112,8.933080 571.219727,8.955078 569.405884,8.955360 
z"/>
<path fill="#767571" opacity="1.000000" stroke="none" 
	d="
M41.619122,24.961010 
	C42.004230,25.363138 42.034267,25.769754 42.094360,26.477499 
	C40.275227,27.578167 38.426037,28.377705 36.300518,29.090271 
	C37.770809,27.657368 39.517429,26.311432 41.619122,24.961010 
z"/>
<path fill="#81807E" opacity="1.000000" stroke="none" 
	d="
M410.349304,138.901962 
	C410.022247,138.435074 410.013245,138.025314 410.421631,137.302094 
	C412.237732,137.035355 413.636505,137.082092 415.035278,137.128815 
	C415.033783,137.779831 415.032257,138.430832 415.037994,139.405228 
	C414.593231,139.778229 414.141235,139.827835 413.319275,139.667084 
	C412.616913,139.338089 412.284515,139.219498 411.952087,139.100922 
	C411.523834,139.053635 411.095581,139.006363 410.349304,138.901962 
z"/>
<path fill="#7F7E7B" opacity="1.000000" stroke="none" 
	d="
M363.670776,136.963409 
	C364.002533,137.314072 363.982880,137.665421 363.948822,138.276489 
	C362.926910,138.791931 361.919464,139.047638 360.525391,139.312042 
	C360.108612,139.045151 360.078400,138.769577 360.033936,138.075317 
	C361.119537,137.425781 362.219421,137.194946 363.670776,136.963409 
z"/>
<path fill="#767571" opacity="1.000000" stroke="none" 
	d="
M362.291870,26.852627 
	C361.941071,26.330055 362.005798,25.872915 362.127136,25.070271 
	C363.351318,25.288368 364.518951,25.851969 365.868225,26.697327 
	C364.935730,26.958740 363.821564,26.938396 362.291870,26.852627 
z"/>
<path fill="#747270" opacity="1.000000" stroke="none" 
	d="
M748.592163,124.879410 
	C748.213196,125.025780 747.963562,125.018669 747.396484,124.709351 
	C747.396729,123.937820 747.714355,123.468513 748.031982,122.999191 
	C748.302490,123.149750 748.536377,123.344330 748.860107,123.773735 
	C748.948853,124.236015 748.860535,124.489815 748.592163,124.879410 
z"/>
<path fill="#7E7C7A" opacity="1.000000" stroke="none" 
	d="
M412.068451,139.298798 
	C412.284515,139.219498 412.616913,139.338089 412.978607,139.637085 
	C412.673859,139.863632 412.399506,139.756699 412.068451,139.298798 
z"/>
<path fill="#575651" opacity="1.000000" stroke="none" 
	d="
M23.718353,119.003136 
	C23.853743,119.339005 23.684114,119.591972 23.239241,119.912521 
	C23.035185,119.852882 23.029116,119.673859 23.027069,119.226059 
	C23.031094,118.957268 23.490595,118.972046 23.718353,119.003136 
z"/>
<path fill="#ABA79F" opacity="1.000000" stroke="none" 
	d="
M514.994141,173.962799 
	C514.982117,176.119919 515.203186,178.314301 514.866516,180.419495 
	C514.679016,181.591782 513.562866,182.615555 512.865234,183.706253 
	C512.269165,182.673096 511.369843,181.701889 511.143341,180.593231 
	C510.737518,178.606750 510.736542,176.537537 510.566345,174.502914 
	C509.963593,174.373322 509.360840,174.243729 508.758087,174.114136 
	C508.182129,175.864182 507.212189,177.593109 507.117065,179.368912 
	C506.949585,182.495590 506.623840,184.779022 502.559631,183.420547 
	C501.754120,183.151276 500.533203,183.429169 499.757660,183.885788 
	C496.360291,185.886108 494.141479,184.292114 492.481323,181.325836 
	C494.558044,181.208801 496.326813,181.422546 498.481079,181.682877 
	C498.481079,179.097763 498.481079,176.816574 498.481079,174.661224 
	C495.996582,174.802887 494.038971,174.914505 492.081360,175.026123 
	C496.492310,170.233490 497.226959,170.521423 502.486603,179.104523 
	C507.671173,170.931274 508.590271,170.520508 514.643311,173.915878 
	C514.992676,174.004196 514.994141,173.962799 514.994141,173.962799 
z"/>
<path fill="#939087" opacity="1.000000" stroke="none" 
	d="
M473.755310,178.282715 
	C474.150604,182.016769 473.066315,184.623703 469.369995,184.145309 
	C467.156464,183.858826 463.744507,182.512573 463.309204,180.959396 
	C462.410156,177.751495 464.909485,175.779449 468.193970,174.694519 
	C471.583435,173.574921 473.306854,174.331879 473.755310,178.282715 
z"/>
<path fill="#939087" opacity="1.000000" stroke="none" 
	d="
M314.504700,181.590576 
	C313.874054,185.025208 312.533264,185.314224 308.701508,183.297241 
	C305.314301,181.514236 305.550781,178.429703 306.803558,176.060272 
	C307.729614,174.308884 310.659363,172.262451 312.251099,172.579987 
	C314.014008,172.931686 315.270081,175.823776 316.746857,177.609619 
	C315.366333,178.369766 314.025787,179.220428 312.589630,179.854538 
	C311.788116,180.208450 310.827667,180.202469 309.938812,180.358688 
	C309.950378,180.776031 309.961945,181.193390 309.973480,181.610748 
	C311.382965,181.610748 312.792419,181.610748 314.504700,181.590576 
M311.497223,174.230591 
	C311.219299,174.636322 310.941406,175.042068 310.663483,175.447800 
	C311.075775,175.560684 311.488037,175.673569 311.900330,175.786469 
	C311.948517,175.313095 311.996704,174.839722 311.497223,174.230591 
z"/>
<path fill="#9F9C95" opacity="1.000000" stroke="none" 
	d="
M423.159607,181.921326 
	C421.138000,185.514023 417.026764,185.553162 415.481232,183.394653 
	C413.849670,181.115936 413.764008,176.701920 414.767426,173.839157 
	C415.887512,170.643433 419.042145,171.999344 421.632843,174.185852 
	C422.336487,177.114319 422.748047,179.517822 423.159607,181.921326 
z"/>
<path fill="#9F9C95" opacity="1.000000" stroke="none" 
	d="
M292.125336,181.955215 
	C290.044006,185.493362 285.821503,185.604889 284.405518,183.369690 
	C282.819580,180.866241 283.867035,176.694519 283.768585,173.248718 
	C285.995880,173.372787 288.223175,173.496872 290.710236,174.149323 
	C291.355103,177.103516 291.740234,179.529373 292.125336,181.955215 
z"/>
<path fill="#A4A198" opacity="1.000000" stroke="none" 
	d="
M339.008972,179.959076 
	C339.520142,180.623047 340.031342,181.287033 340.542542,181.951019 
	C338.886688,182.888550 336.478271,185.019165 335.716736,184.538834 
	C333.476044,183.125519 330.761200,180.856140 330.397888,178.576691 
	C330.100922,176.713364 332.449493,173.433472 334.453491,172.420822 
	C337.847656,170.705673 340.075714,173.623947 338.988220,178.484695 
	C337.651855,177.063477 336.789795,175.588165 335.927734,174.112854 
	C335.384064,174.050217 334.840363,173.987579 334.296661,173.924942 
	C333.801331,175.973145 332.343994,178.429779 333.005127,179.986969 
	C334.514862,183.542923 336.957520,180.818497 339.008972,179.959076 
z"/>
<path fill="#97948D" opacity="1.000000" stroke="none" 
	d="
M442.924133,177.671356 
	C444.114044,176.369064 445.096191,174.700958 446.555084,173.872177 
	C447.888733,173.114578 450.057220,172.607056 451.272675,173.196304 
	C452.545441,173.813324 453.785736,175.879547 453.761322,177.290207 
	C453.745789,178.187897 451.390411,179.029510 450.104431,179.925293 
	C448.922119,180.748901 447.766846,181.611389 446.272949,182.693375 
	C445.461945,181.472565 444.531219,180.071579 443.270142,178.396484 
	C442.939758,178.122375 442.924133,177.671356 442.924133,177.671356 
z"/>
<path fill="#A4A198" opacity="1.000000" stroke="none" 
	d="
M531.991699,173.958832 
	C532.441284,173.949036 532.890808,173.939224 533.672363,174.392288 
	C534.137024,177.150543 534.269714,179.445923 534.402405,181.741302 
	C535.015930,181.911896 535.629517,182.082504 536.243042,182.253098 
	C537.116577,180.775787 539.063782,178.710938 538.642944,177.941986 
	C537.733276,176.279678 535.609497,175.281754 533.982361,174.012039 
	C535.605774,173.809921 537.418030,173.070419 538.799683,173.556107 
	C540.195312,174.046692 541.164001,175.751724 542.636108,177.352844 
	C542.960205,178.485001 542.967896,179.189041 542.975586,179.893097 
	C542.058350,180.498749 540.991760,180.960831 540.248596,181.733810 
	C535.997253,186.155807 532.646057,185.532059 530.391846,179.257309 
	C531.135315,177.155594 531.563477,175.557205 531.991699,173.958832 
z"/>
<path fill="#939087" opacity="1.000000" stroke="none" 
	d="
M373.101410,176.140411 
	C375.116791,175.577621 377.136841,174.587570 379.145874,174.609314 
	C380.388123,174.622772 381.613678,176.175522 382.846741,177.037262 
	C381.822479,177.982391 380.932526,179.200684 379.733429,179.790115 
	C378.688934,180.303528 377.295502,180.107193 375.886230,181.278702 
	C377.369110,181.656448 378.852020,182.034195 381.112640,182.610062 
	C377.099548,185.374557 374.930511,183.820129 373.063232,179.997040 
	C373.037292,178.225082 373.069366,177.182739 373.101410,176.140411 
z"/>
<path fill="#939087" opacity="1.000000" stroke="none" 
	d="
M249.876266,180.055130 
	C249.356094,181.049301 249.060608,182.314529 248.263809,182.975037 
	C247.022888,184.003738 245.162613,184.356583 244.084808,185.490250 
	C243.058609,186.569656 242.698685,188.282486 241.459808,189.657043 
	C239.880768,183.903290 239.216370,178.197861 241.737457,172.607880 
	C242.860184,176.124954 243.444672,179.443787 244.087189,183.092285 
	C246.730408,181.705551 248.303345,180.880341 249.876266,180.055130 
z"/>
<path fill="#B7B2A7" opacity="1.000000" stroke="none" 
	d="
M267.008423,173.915970 
	C266.137115,177.260330 265.265839,180.604691 264.298859,184.316315 
	C263.662628,182.993454 262.922546,181.454636 261.987274,179.509979 
	C261.180756,181.354889 260.484955,182.946533 259.354370,185.532776 
	C257.921661,173.775665 258.382050,172.985947 266.687195,172.422928 
	C267.054352,173.133270 267.031372,173.524612 267.008423,173.915970 
z"/>
<path fill="#939087" opacity="1.000000" stroke="none" 
	d="
M301.296631,172.142303 
	C307.006195,175.068878 303.270081,180.197144 303.782410,184.226288 
	C303.997803,185.920105 301.797821,188.763565 299.991516,189.651413 
	C297.894623,190.682083 294.858765,190.353775 295.994629,186.233917 
	C296.985901,186.378738 297.507324,186.628860 298.362457,186.921356 
	C299.399475,186.318405 300.102753,185.673111 300.838989,184.646210 
	C300.836945,183.500275 300.801941,182.735947 300.851501,181.540833 
	C300.910950,179.058716 300.885864,177.007385 300.894867,174.600555 
	C301.051514,173.544159 301.174072,172.843231 301.296631,172.142303 
z"/>
<path fill="#B7B2A7" opacity="1.000000" stroke="none" 
	d="
M531.772461,173.659363 
	C531.563477,175.557205 531.135315,177.155594 530.376221,178.894348 
	C529.894348,177.609467 529.743347,176.184219 529.592285,174.758957 
	C529.077332,174.675079 528.562317,174.591202 528.047363,174.507339 
	C527.420715,177.543808 526.794128,180.580292 526.147156,183.715408 
	C523.097900,181.964066 521.785461,176.700165 523.760315,173.918564 
	C525.950684,170.833389 528.801453,171.484177 531.772461,173.659363 
z"/>
<path fill="#B7B2A7" opacity="1.000000" stroke="none" 
	d="
M250.091095,179.856918 
	C248.303345,180.880341 246.730408,181.705551 244.087189,183.092285 
	C243.444672,179.443787 242.860184,176.124954 242.081665,172.456451 
	C244.168640,172.458832 246.449677,172.810883 248.648529,173.733200 
	C248.853088,175.211868 249.139816,176.120270 249.426529,177.028656 
	C249.719650,177.905334 250.012787,178.782028 250.091095,179.856918 
z"/>
<path fill="#97948D" opacity="1.000000" stroke="none" 
	d="
M555.815430,177.004303 
	C556.850952,178.440689 557.886414,179.877090 558.903931,181.288544 
	C554.298828,185.086151 550.367981,185.508286 549.718445,182.340210 
	C549.171936,179.674606 550.063965,176.714066 550.681519,174.130432 
	C552.634399,175.252609 554.224915,176.128448 555.815430,177.004303 
M554.040039,181.703140 
	C553.987854,181.236191 553.935669,180.769226 553.883484,180.302261 
	C553.470459,180.406494 553.057373,180.510727 552.644348,180.614975 
	C552.924866,181.019547 553.205383,181.424118 554.040039,181.703140 
z"/>
<path fill="#ABA79F" opacity="1.000000" stroke="none" 
	d="
M372.764221,176.028412 
	C373.069366,177.182739 373.037292,178.225082 372.982910,179.661255 
	C370.045776,181.647003 368.548798,187.114487 363.446899,182.950378 
	C363.234772,182.244919 363.283112,182.029373 363.331482,181.813812 
	C364.836426,181.254837 367.603485,180.735428 367.622437,180.129898 
	C367.695068,177.811844 366.884460,175.466095 366.208954,172.185532 
	C368.918976,170.410416 370.081451,174.792542 372.764221,176.028412 
z"/>
<path fill="#A4A198" opacity="1.000000" stroke="none" 
	d="
M327.069336,184.499786 
	C323.678131,180.677124 322.786255,174.327438 324.822754,169.494827 
	C327.213898,170.855011 329.123901,171.783600 327.417725,175.366043 
	C326.597748,177.087738 327.790375,179.727753 327.916748,181.960678 
	C327.965607,182.823395 327.585815,183.710388 327.069336,184.499786 
z"/>
<path fill="#9F9C95" opacity="1.000000" stroke="none" 
	d="
M236.066757,183.224579 
	C233.224564,183.224579 230.382370,183.224579 227.540192,183.224579 
	C227.274857,182.677338 227.009537,182.130112 226.744217,181.582870 
	C228.267609,179.465668 229.791000,177.348450 231.661713,175.430847 
	C233.361618,178.161819 234.714188,180.693207 236.066757,183.224579 
z"/>
<path fill="#939087" opacity="1.000000" stroke="none" 
	d="
M274.109100,173.364426 
	C278.015045,171.776184 280.293823,172.817932 280.796234,176.496552 
	C280.951721,177.635193 281.122040,178.884018 280.815308,179.946671 
	C280.379974,181.455048 279.509460,182.837830 278.824890,184.274277 
	C278.247589,182.897522 277.633759,181.534729 277.101624,180.140747 
	C276.308502,178.063171 275.573120,175.963608 274.441895,173.694855 
	C274.070618,173.516342 274.109100,173.364426 274.109100,173.364426 
z"/>
<path fill="#C1BCB2" opacity="1.000000" stroke="none" 
	d="
M292.309906,181.802856 
	C291.740234,179.529373 291.355103,177.103516 291.031677,174.323975 
	C293.485291,173.648972 295.877258,173.327667 298.634979,173.003708 
	C299.000732,173.001053 299.004456,173.008240 298.932373,173.362625 
	C297.907288,176.477600 296.954254,179.238190 296.000610,181.999390 
	C296.000000,182.000000 295.998779,182.001221 295.998779,182.001221 
	C294.830688,181.884308 293.662567,181.767410 292.309906,181.802856 
z"/>
<path fill="#C1BCB2" opacity="1.000000" stroke="none" 
	d="
M354.523438,184.945740 
	C348.571777,184.957077 348.755920,180.504425 348.414429,176.893082 
	C348.291809,175.596237 349.883484,174.137268 351.688843,172.932053 
	C351.538025,177.669647 351.654846,181.763168 356.024200,184.179993 
	C355.636047,184.427063 355.247894,184.674133 354.523438,184.945740 
z"/>
<path fill="#C5C0B5" opacity="1.000000" stroke="none" 
	d="
M491.735718,175.017883 
	C494.038971,174.914505 495.996582,174.802887 498.481079,174.661224 
	C498.481079,176.816574 498.481079,179.097763 498.481079,181.682877 
	C496.326813,181.422546 494.558044,181.208801 492.385925,180.991684 
	C491.982544,180.988297 491.987030,180.995544 491.984924,180.629257 
	C491.321869,179.177917 490.660950,178.092865 490.000000,177.007812 
	C490.000000,177.007812 490.000000,177.000504 490.001038,176.666550 
	C490.004669,175.887589 490.007233,175.442566 490.009766,174.997559 
	C490.469879,175.001587 490.929993,175.005615 491.735718,175.017883 
z"/>
<path fill="#9F9C95" opacity="1.000000" stroke="none" 
	d="
M518.949890,183.090729 
	C518.312683,181.716217 517.597839,180.371277 517.059509,178.959045 
	C516.492859,177.472565 516.094910,175.921783 515.308716,174.180939 
	C514.994141,173.962799 514.992676,174.004196 515.013306,174.004547 
	C516.103210,172.689117 517.172424,171.373337 518.386658,169.879074 
	C523.824341,173.312988 517.767639,178.078644 520.519409,181.914139 
	C520.017212,182.658295 519.483521,182.874512 518.949890,183.090729 
z"/>
<path fill="#A4A198" opacity="1.000000" stroke="none" 
	d="
M391.988342,178.916046 
	C392.303223,171.443375 387.819946,174.754379 383.739105,175.605179 
	C385.509674,171.029846 389.405212,171.640961 391.226288,172.368271 
	C396.715332,174.560501 392.865814,179.358170 394.047455,182.886688 
	C393.542572,182.985397 393.037689,183.084091 392.532806,183.182785 
	C392.352051,181.899902 392.171326,180.617020 391.988342,178.916046 
z"/>
<path fill="#ABA79F" opacity="1.000000" stroke="none" 
	d="
M482.969696,177.012009 
	C483.660095,182.452286 484.663086,182.932693 489.827271,180.111084 
	C490.597961,180.461029 490.824463,180.735931 491.050964,181.010834 
	C488.569397,182.081909 485.505188,184.562805 483.763672,183.843109 
	C481.873596,183.062012 481.214600,179.301941 480.330444,176.472107 
	C481.417969,176.406219 482.193848,176.709122 482.969696,177.012009 
z"/>
<path fill="#97948D" opacity="1.000000" stroke="none" 
	d="
M435.969299,173.970657 
	C435.599335,177.029358 435.229431,180.088058 434.690552,184.543610 
	C433.022705,180.015198 431.826691,176.767883 430.280579,172.569946 
	C431.705414,172.951370 433.507446,173.433762 435.646606,173.957779 
	C435.983704,173.999390 435.969299,173.970657 435.969299,173.970657 
z"/>
<path fill="#939087" opacity="1.000000" stroke="none" 
	d="
M220.925552,171.045471 
	C219.142593,170.721359 217.359619,170.397247 215.576660,170.073151 
	C215.628250,169.580261 215.679840,169.087372 215.731430,168.594482 
	C219.623199,168.594482 223.514984,168.594482 227.406754,168.594482 
	C227.480301,169.082108 227.553864,169.569717 227.627411,170.057343 
	C226.384232,170.376160 225.141052,170.694992 223.147400,171.031464 
	C221.906464,171.047897 221.416016,171.046677 220.925552,171.045471 
z"/>
<path fill="#8B8A85" opacity="1.000000" stroke="none" 
	d="
M236.428192,183.065460 
	C234.714188,180.693207 233.361618,178.161819 231.963730,175.260284 
	C233.739532,174.883194 235.560654,174.876221 237.381775,174.869247 
	C237.184387,177.548279 236.987015,180.227325 236.428192,183.065460 
z"/>
<path fill="#C1BCB2" opacity="1.000000" stroke="none" 
	d="
M339.007080,179.725098 
	C336.957520,180.818497 334.514862,183.542923 333.005127,179.986969 
	C332.343994,178.429779 333.801331,175.973145 334.296661,173.924942 
	C334.840363,173.987579 335.384064,174.050217 335.927734,174.112854 
	C336.789795,175.588165 337.651855,177.063477 338.758575,178.780991 
	C339.003235,179.023193 339.005188,179.491119 339.007080,179.725098 
z"/>
<path fill="#97948D" opacity="1.000000" stroke="none" 
	d="
M363.255066,181.388535 
	C363.283112,182.029373 363.234772,182.244919 363.160339,182.791473 
	C362.980804,185.138748 362.827393,187.155029 362.673981,189.171310 
	C362.108459,189.167419 361.542908,189.163528 360.977386,189.159637 
	C360.977386,185.748505 360.977386,182.337357 360.982849,178.132584 
	C360.972443,176.888992 360.956573,176.439041 360.940674,175.989090 
	C361.143646,174.938095 361.346588,173.887100 361.549561,172.836121 
	C361.918671,172.831100 362.287811,172.826096 362.656952,172.821091 
	C362.830841,175.535141 363.004730,178.249207 363.255066,181.388535 
z"/>
<path fill="#ABA79F" opacity="1.000000" stroke="none" 
	d="
M556.177002,176.988052 
	C554.224915,176.128448 552.634399,175.252609 551.000000,173.959824 
	C553.570679,170.396927 555.778931,172.535385 557.856323,174.244659 
	C558.040405,174.396088 557.006714,176.027664 556.177002,176.988052 
z"/>
<path fill="#9F9C95" opacity="1.000000" stroke="none" 
	d="
M273.723633,173.233521 
	C274.109100,173.364426 274.070618,173.516342 274.044891,173.585861 
	C273.541168,176.823059 273.063171,179.990723 272.528595,183.533264 
	C269.099335,180.971542 273.664459,174.867920 267.400879,173.969543 
	C267.031372,173.524612 267.054352,173.133270 267.105560,172.451050 
	C269.201904,172.474335 271.270050,172.788483 273.723633,173.233521 
z"/>
<path fill="#939087" opacity="1.000000" stroke="none" 
	d="
M442.835968,177.273727 
	C442.924133,177.671356 442.939758,178.122375 442.931671,178.228088 
	C442.506927,180.044495 442.090271,181.755173 441.673615,183.465851 
	C441.271515,183.482971 440.869415,183.500092 440.467316,183.517212 
	C440.260529,181.934525 440.353760,180.229202 439.769867,178.800644 
	C439.063751,177.072830 437.784424,175.579285 436.361206,173.977509 
	C435.969299,173.970657 435.983704,173.999390 435.996155,174.007874 
	C440.386139,169.947495 441.378876,173.855026 442.835968,177.273727 
z"/>
<path fill="#BDB9AE" opacity="1.000000" stroke="none" 
	d="
M542.983643,180.256714 
	C542.967896,179.189041 542.960205,178.485001 542.968079,177.429718 
	C542.983643,174.381363 542.983643,171.684235 542.983643,168.987106 
	C543.479431,169.008408 543.975281,169.029694 544.471069,169.050980 
	C544.471069,173.702835 544.471069,178.354691 544.471069,183.006546 
	C544.212036,183.045853 543.953064,183.085159 543.694031,183.124466 
	C543.459961,182.289749 543.225830,181.455048 542.983643,180.256714 
z"/>
<path fill="#9F9C95" opacity="1.000000" stroke="none" 
	d="
M220.945038,171.503571 
	C221.416016,171.046677 221.906464,171.047897 222.765442,171.067810 
	C223.133957,175.079453 223.133957,179.072418 223.133957,183.065369 
	C222.410812,183.075851 221.687653,183.086349 220.964508,183.096848 
	C220.964508,179.385117 220.964508,175.673401 220.945038,171.503571 
z"/>
<path fill="#C1BCB2" opacity="1.000000" stroke="none" 
	d="
M360.591248,175.964325 
	C360.956573,176.439041 360.972443,176.888992 360.958527,177.675720 
	C355.618439,178.611847 355.618439,178.611847 355.850159,173.170410 
	C357.438385,174.171860 358.840118,175.055695 360.591248,175.964325 
z"/>
<path fill="#C1BCB2" opacity="1.000000" stroke="none" 
	d="
M298.028717,186.878998 
	C297.507324,186.628860 296.985901,186.378738 296.222778,185.962555 
	C295.986084,184.786148 295.991089,183.775787 295.997437,182.383331 
	C295.998779,182.001221 296.000000,182.000000 296.401184,181.997162 
	C298.123901,181.986771 299.445465,181.979187 300.766968,181.971619 
	C300.801941,182.735947 300.836945,183.500275 300.528931,184.661423 
	C299.466827,185.665146 298.747772,186.272064 298.028717,186.878998 
z"/>
<path fill="#C1BCB2" opacity="1.000000" stroke="none" 
	d="
M423.360901,181.606812 
	C422.748047,179.517822 422.336487,177.114319 421.953918,174.358719 
	C422.509338,176.435181 423.035767,178.863724 423.360901,181.606812 
z"/>
<path fill="#C1BCB2" opacity="1.000000" stroke="none" 
	d="
M483.202362,176.804962 
	C482.193848,176.709122 481.417969,176.406219 480.330627,176.071930 
	C481.193298,175.031357 482.367493,174.022217 483.541687,173.013077 
	C483.871338,173.288544 484.200958,173.564026 484.530609,173.839493 
	C484.165405,174.758972 483.800201,175.678452 483.202362,176.804962 
z"/>
<path fill="#B7B2A7" opacity="1.000000" stroke="none" 
	d="
M519.051392,183.379440 
	C519.483521,182.874512 520.017212,182.658295 520.746094,182.229370 
	C521.003601,182.848450 521.065918,183.680222 521.128235,184.511993 
	C520.469788,184.230713 519.811401,183.949432 519.051392,183.379440 
z"/>
<path fill="#C1BCB2" opacity="1.000000" stroke="none" 
	d="
M491.281921,181.005737 
	C490.824463,180.735931 490.597961,180.461029 490.169464,180.007263 
	C489.977753,179.124435 489.988007,178.420502 489.999146,177.362183 
	C490.660950,178.092865 491.321869,179.177917 491.978760,180.625244 
	C491.974731,180.987518 491.512878,181.000626 491.281921,181.005737 
z"/>
<path fill="#C1BCB2" opacity="1.000000" stroke="none" 
	d="
M489.714478,174.964539 
	C490.007233,175.442566 490.004669,175.887589 489.997131,176.666290 
	C489.111603,176.495850 488.231049,175.991714 487.350464,175.487579 
	C488.040039,175.302231 488.729645,175.116882 489.714478,174.964539 
z"/>
<path fill="#C1BCB2" opacity="1.000000" stroke="none" 
	d="
M300.973206,172.139740 
	C301.174072,172.843231 301.051514,173.544159 300.700378,174.417023 
	C299.982697,174.062042 299.493561,173.535141 299.004456,173.008240 
	C299.004456,173.008240 299.000732,173.001053 298.998901,172.998108 
	C299.547943,172.709167 300.098846,172.423172 300.973206,172.139740 
z"/>
<path fill="#939087" opacity="1.000000" stroke="none" 
	d="
M249.356110,176.633575 
	C249.139816,176.120270 248.853088,175.211868 248.809998,174.069794 
	C249.130981,174.636887 249.208344,175.437698 249.356110,176.633575 
z"/>
<path fill="#E7E6E3" opacity="1.000000" stroke="none" 
	d="
M220.271606,67.540031 
	C219.356064,76.862831 219.408081,77.456718 210.896103,78.202347 
	C203.567184,78.844337 196.094727,78.049179 188.700027,77.634544 
	C185.932846,77.479385 184.356171,75.956642 184.508896,72.675240 
	C184.778488,66.883369 184.342804,61.052864 184.748993,55.276974 
	C184.859589,53.704338 186.649704,51.373882 188.137344,50.917377 
	C197.221222,48.129852 206.477432,47.865215 215.624405,50.715023 
	C216.900208,51.112511 218.482407,52.650990 218.715118,53.888397 
	C219.533859,58.242104 219.825943,62.694847 220.271606,67.540031 
M188.358093,56.109200 
	C188.191666,60.890064 187.866241,65.674736 187.980621,70.448868 
	C188.006332,71.521660 189.536041,73.438789 190.428909,73.471954 
	C197.967361,73.751923 205.521133,73.780701 213.062912,73.591194 
	C213.935379,73.569275 215.446976,71.787910 215.496033,70.766281 
	C215.745621,65.568344 215.611160,60.351974 215.611160,55.324986 
	C202.721832,52.667400 199.839783,52.691116 188.358093,56.109200 
z"/>
<path fill="#D0CFCD" opacity="1.000000" stroke="none" 
	d="
M240.363007,103.319656 
	C242.124130,105.128838 243.551056,107.049782 244.837234,108.781227 
	C245.618164,107.588432 246.845367,105.713982 248.072586,103.839539 
	C248.423218,104.110001 248.773849,104.380455 249.124481,104.650917 
	C247.953568,108.700577 246.782669,112.750237 245.611755,116.799896 
	C245.209473,116.764778 244.807190,116.729660 244.404922,116.694542 
	C243.447235,114.735046 242.489563,112.775558 241.107819,109.948387 
	C239.536499,112.532883 238.338333,114.503624 237.140167,116.474365 
	C236.658752,116.521461 236.177353,116.568550 235.695953,116.615646 
	C234.885590,113.561996 234.075226,110.508354 233.633331,108.843178 
	C236.502563,106.415268 238.265671,104.923347 240.363007,103.319656 
z"/>
<path fill="#CFCDCB" opacity="1.000000" stroke="none" 
	d="
M219.043671,107.116203 
	C221.544388,106.066948 221.820068,102.095116 226.028641,102.827255 
	C229.651367,103.457474 231.671417,104.839531 231.802460,108.224808 
	C231.955429,112.176605 228.621597,110.435265 226.654114,110.834045 
	C225.597809,111.048149 224.514114,111.127151 223.442780,111.267113 
	C223.339233,111.775589 223.235703,112.284065 223.132172,112.792534 
	C225.305069,113.461685 227.477966,114.130836 229.162415,114.649574 
	C226.259628,117.944786 224.197479,117.639954 219.329193,111.643753 
	C219.015640,109.763062 219.029663,108.439636 219.043671,107.116203 
z"/>
<path fill="#C3C1BF" opacity="1.000000" stroke="none" 
	d="
M178.694473,103.910263 
	C178.895645,108.095985 178.895645,111.910706 178.895645,116.783119 
	C175.874130,116.375618 171.203629,116.752991 170.705917,115.488228 
	C169.258911,111.811310 169.483551,107.476524 169.052521,103.399780 
	C169.810074,103.335724 170.567627,103.271667 171.325195,103.207603 
	C171.531906,105.328072 171.553619,107.489914 172.015091,109.553413 
	C172.289658,110.781197 173.255829,111.854317 173.911072,112.996979 
	C174.628036,111.902328 175.449539,110.860786 176.038620,109.701164 
	C177.040771,107.728432 174.192596,104.222672 178.694473,103.910263 
z"/>
<path fill="#E7E6E3" opacity="1.000000" stroke="none" 
	d="
M187.555573,106.971725 
	C187.562912,104.181427 187.405014,101.841736 187.665863,99.549713 
	C187.758377,98.736717 188.870193,98.039726 189.516678,97.289780 
	C190.109100,97.969536 191.193756,98.634262 191.215027,99.331436 
	C191.366592,104.299873 191.389130,109.278099 191.210999,114.244545 
	C191.183868,115.000854 189.906876,115.712326 189.207977,116.444542 
	C188.660583,115.598564 187.739410,114.793892 187.640457,113.898369 
	C187.405151,111.768822 187.558868,109.596291 187.555573,106.971725 
z"/>
<path fill="#CAC9C7" opacity="1.000000" stroke="none" 
	d="
M204.106186,108.817017 
	C208.875366,108.748116 207.540039,104.117363 209.342575,101.833725 
	C210.173416,100.781113 211.133484,99.830528 212.034973,98.833694 
	C212.170929,100.172676 212.720215,101.635460 212.363373,102.826843 
	C211.390839,106.073837 210.180069,109.272202 208.771561,112.356415 
	C208.055008,113.925491 206.709839,115.207489 205.065933,117.394836 
	C204.231735,114.708580 203.629639,112.769691 203.163589,110.275917 
	C203.568497,109.419693 203.837341,109.118355 204.106186,108.817017 
z"/>
<path fill="#E7E6E3" opacity="1.000000" stroke="none" 
	d="
M181.662262,107.903069 
	C181.702209,104.453804 181.711060,101.469681 181.817413,98.489052 
	C181.831558,98.093048 182.341156,97.714722 182.621735,97.327568 
	C185.808701,99.666397 185.844498,114.054726 181.661652,117.183960 
	C181.661652,113.730583 181.661652,111.049950 181.662262,107.903069 
z"/>
<path fill="#ABA79F" opacity="1.000000" stroke="none" 
	d="
M218.769348,106.861771 
	C219.029663,108.439636 219.015640,109.763062 219.023468,111.483139 
	C218.535324,113.348465 218.025345,114.817154 217.515503,116.285439 
	C214.550354,115.152412 213.913254,107.811691 216.751068,102.549263 
	C217.453308,104.183357 217.974167,105.395340 218.769348,106.861771 
z"/>
<path fill="#EEEDED" opacity="1.000000" stroke="none" 
	d="
M157.998917,116.081505 
	C157.446121,110.530426 156.893341,104.979347 156.301437,99.035507 
	C160.392578,99.035507 163.437012,99.035507 166.481445,99.035507 
	C166.541595,99.373703 166.601746,99.711899 166.661896,100.050102 
	C164.259064,100.533569 161.856216,101.017044 159.016953,101.588333 
	C159.090347,102.807472 159.175446,104.221115 159.432861,106.198410 
	C159.069748,109.868546 158.534332,112.975021 157.998917,116.081505 
z"/>
<path fill="#BBB9B7" opacity="1.000000" stroke="none" 
	d="
M158.270676,116.199760 
	C158.534332,112.975021 159.069748,109.868546 159.768494,106.428535 
	C162.079224,106.095009 164.226578,106.095009 166.373947,106.095009 
	C166.409668,106.539482 166.445389,106.983963 166.481110,107.428436 
	C164.532410,107.730591 162.583725,108.032745 160.609711,108.338821 
	C159.920563,110.998779 159.231506,113.658401 158.270676,116.199760 
z"/>
<path fill="#D0CFCD" opacity="1.000000" stroke="none" 
	d="
M204.112183,108.421501 
	C203.837341,109.118355 203.568497,109.419693 203.052155,109.897934 
	C201.238525,106.486328 199.672379,102.897820 198.106232,99.309303 
	C202.460541,100.736137 204.007233,103.914948 204.112183,108.421501 
z"/>
<path fill="#595856" opacity="1.000000" stroke="none" 
	d="
M748.036255,122.567627 
	C747.714355,123.468513 747.396729,123.937820 747.022339,124.691620 
	C744.959717,127.736511 742.953796,130.496902 740.959106,133.613922 
	C737.238770,134.993820 733.507202,136.017090 729.369202,137.089615 
	C723.472595,137.101822 717.982300,137.032272 712.492065,137.032562 
	C613.649414,137.037598 514.806824,137.051102 415.499756,137.095795 
	C413.636505,137.082092 412.237732,137.035355 410.419495,136.994324 
	C409.345917,136.260498 408.832397,135.153442 408.015076,134.840897 
	C402.526733,132.742081 399.418701,128.344284 396.486877,123.295189 
	C395.886963,114.970596 395.210907,106.887848 395.140564,98.799843 
	C394.987823,81.229416 395.144379,63.656300 395.471741,45.495197 
	C396.098511,44.224430 396.428070,43.542751 396.757629,42.861076 
	C396.791473,42.166370 396.825348,41.471668 396.842346,40.430534 
	C400.247711,34.117733 405.192657,29.852758 411.772156,26.902004 
	C441.441986,26.812513 470.760559,26.866112 500.079102,26.868303 
	C577.041992,26.874056 654.004883,26.857409 731.424805,26.824415 
	C738.980103,29.276821 743.186035,35.052666 747.875122,40.797958 
	C748.111145,68.051270 748.075806,95.093651 748.036255,122.567627 
M556.305603,113.524673 
	C555.530457,110.352165 554.755371,107.179657 553.630920,103.439491 
	C549.245728,106.482323 551.655457,110.186218 552.656616,114.495064 
	C554.109009,115.094444 555.561340,115.693825 557.520325,116.423103 
	C558.383606,116.373306 559.246948,116.323509 560.956299,116.128105 
	C561.256531,113.102959 561.767334,110.076996 561.755615,107.053055 
	C561.750793,105.803703 560.625305,104.558701 559.391541,103.421219 
	C559.242493,105.289330 559.093384,107.157448 558.771240,109.703255 
	C558.671021,110.854813 558.570740,112.006378 557.948730,113.250702 
	C557.635132,113.416138 557.321533,113.581566 556.305603,113.524673 
M603.700378,103.740219 
	C604.014282,102.168282 604.328186,100.596352 604.642090,99.024414 
	C603.966003,98.828690 603.289978,98.632973 602.613953,98.437248 
	C601.812500,100.785805 601.011047,103.134361 600.010681,105.621887 
	C600.010681,105.621887 599.978027,105.862350 599.584412,106.102882 
	C599.347046,106.750618 599.109741,107.398346 598.512268,108.654846 
	C598.256897,109.337570 598.001526,110.020294 597.280884,110.043800 
	C595.003052,106.468712 596.687012,100.494354 590.121826,99.403755 
	C591.817993,103.253952 593.514099,107.104149 595.180176,111.734749 
	C595.663574,113.334412 596.146973,114.934082 597.049500,117.920921 
	C598.590332,115.494247 599.331299,114.327209 600.463928,112.920898 
	C600.694885,112.262215 600.925903,111.603539 601.396484,110.265480 
	C601.673584,108.861725 601.950623,107.457962 602.691284,105.744904 
	C602.839844,105.216667 602.988403,104.688431 603.008118,104.049896 
	C603.008118,104.049896 603.154541,104.129570 603.700378,103.740219 
M531.448669,106.200302 
	C530.989319,106.082726 530.529907,105.965149 529.753906,105.156227 
	C527.179626,104.765274 524.605347,104.374329 521.282043,103.933968 
	C520.551270,104.078522 519.820435,104.223076 518.676514,103.771202 
	C515.301453,98.923691 511.153778,96.122986 504.310242,99.199028 
	C504.186188,104.097839 503.963745,108.998245 504.043060,113.893768 
	C504.055115,114.636948 505.468414,115.357437 506.890228,115.778610 
	C507.868042,113.910042 508.396973,111.427574 509.924408,110.310699 
	C512.487305,108.436729 515.686035,107.432320 518.681824,106.932449 
	C518.692200,108.423302 518.223450,110.154289 518.822693,111.349983 
	C519.775391,113.250771 521.144653,115.535118 522.904663,116.238396 
	C524.155396,116.738213 526.339355,114.902763 528.540771,114.065224 
	C528.540771,114.065224 528.966064,113.967728 529.727722,113.994820 
	C532.920715,114.296135 534.955750,119.304436 539.912415,116.257668 
	C540.754517,115.382103 542.275879,114.542183 542.323975,113.624962 
	C542.564453,109.040924 542.470825,104.435219 542.348389,99.841034 
	C542.331360,99.202805 541.503052,98.586174 540.850403,97.682732 
	C539.997375,100.152267 539.342041,102.049614 537.914856,103.864929 
	C536.278809,104.563927 534.642761,105.262932 532.577271,106.094139 
	C532.577271,106.094139 532.159607,106.259590 531.448669,106.200302 
M633.864563,110.980721 
	C634.200562,111.905121 634.443604,112.878311 634.896790,113.741180 
	C635.425415,114.747749 636.137634,115.657936 636.770264,116.609947 
	C637.315491,115.713303 638.025085,114.875893 638.373596,113.908386 
	C639.259644,111.448265 640.136292,108.963501 640.697510,106.418190 
	C640.918945,105.414322 640.292725,104.223541 640.052368,103.117867 
	C639.332825,103.950821 638.535461,104.729805 637.911743,105.629234 
	C636.941284,107.028534 636.088928,108.509705 635.265381,109.153175 
	C635.090637,108.115982 634.915894,107.078796 634.524170,105.638069 
	C634.422607,105.347878 634.287903,105.073952 633.798218,104.128174 
	C631.927856,105.280457 630.057556,106.432732 628.255371,107.543037 
	C627.603149,106.350327 626.744751,104.780548 625.886353,103.210770 
	C625.291748,103.453117 624.697144,103.695465 624.102539,103.937805 
	C625.282288,108.126923 626.461975,112.316032 627.815125,117.121025 
	C630.265381,114.244057 631.963745,112.249825 633.864563,110.980721 
M564.526855,80.764244 
	C568.339478,80.759010 572.164856,80.934456 575.958984,80.667236 
	C577.684448,80.545708 579.348206,79.548218 581.039978,78.948051 
	C580.172363,76.928703 579.786682,73.690773 578.345764,73.120804 
	C574.187195,71.475922 569.602173,70.142868 565.187012,70.150108 
	C561.493530,70.156158 557.600464,71.831314 554.218323,73.583145 
	C552.980652,74.224228 552.642639,77.204468 552.595093,79.134880 
	C552.582581,79.643272 555.147339,80.522560 556.591187,80.688934 
	C558.881531,80.952858 561.224548,80.760025 564.526855,80.764244 
M613.472473,114.930031 
	C615.760803,115.369453 618.049194,115.808876 620.337524,116.248283 
	C621.088074,112.083244 621.838562,107.918205 622.872742,102.179253 
	C617.918640,103.204613 614.604858,103.890457 611.291077,104.576309 
	C611.389221,105.021469 611.487305,105.466637 611.585449,105.911797 
	C610.392883,104.901962 609.200256,103.892136 607.453186,102.412781 
	C607.453186,107.839706 607.453186,112.138237 607.453186,116.652443 
	C609.623352,115.750824 611.264465,115.068985 613.472473,114.930031 
M561.786926,53.103420 
	C561.508179,53.512932 561.308289,54.021679 560.938049,54.316124 
	C558.130798,56.548698 557.976379,59.464687 560.286560,61.630283 
	C562.343750,63.558651 565.431885,65.637833 567.943359,65.495964 
	C570.721069,65.339066 573.470825,63.068306 573.452209,59.047684 
	C573.421448,52.412373 569.960815,50.272751 561.786926,53.103420 
M572.897766,115.953598 
	C577.173523,115.711746 574.480103,112.540382 574.890991,110.807617 
	C575.453857,108.434509 574.346802,105.319603 578.777649,104.933350 
	C579.161926,108.971481 579.523010,112.765198 579.884033,116.558914 
	C580.512878,116.510880 581.141724,116.462845 581.770569,116.414810 
	C581.770569,112.075081 581.770569,107.735352 581.770569,102.997452 
	C576.771729,102.997452 571.959534,102.857384 567.167969,103.110054 
	C566.151978,103.163628 564.485413,104.561806 564.370850,105.494324 
	C564.008423,108.444435 564.134460,111.473831 564.315308,114.457794 
	C564.360291,115.201294 565.323242,115.889183 565.864258,116.602631 
	C566.499756,115.813377 567.557373,115.086571 567.685242,114.222237 
	C567.974670,112.265755 567.566040,110.198540 567.913147,108.260880 
	C568.120300,107.104279 569.220276,106.107590 569.918884,105.039017 
	C570.678955,106.149170 571.883179,107.178421 572.103394,108.386932 
	C572.515869,110.650978 572.358398,113.018852 572.897766,115.953598 
M584.750427,50.389664 
	C587.376099,55.967972 587.610962,61.417351 584.341797,66.925484 
	C583.882019,67.700142 584.891846,69.347000 585.221375,70.590126 
	C586.621765,70.132401 588.582581,70.091873 589.301147,69.126579 
	C590.631470,67.339554 591.343933,65.050789 592.120239,62.901123 
	C594.167480,57.232075 590.740662,48.448460 585.344910,45.988396 
	C585.028259,47.263641 584.721375,48.499462 584.750427,50.389664 
M581.016479,64.116722 
	C584.102600,58.470615 583.728821,54.766178 579.802429,52.084305 
	C576.878601,57.082092 577.128967,62.141472 581.016479,64.116722 
M549.585938,106.924782 
	C548.713013,105.630447 547.840088,104.336113 546.967224,103.041756 
	C546.324585,104.336929 545.305298,105.581795 545.124023,106.938606 
	C544.821167,109.205696 544.857483,111.569588 545.149963,113.841347 
	C545.281250,114.860886 546.376404,115.756317 547.034119,116.708076 
	C547.870728,115.718346 549.192688,114.833900 549.435303,113.715332 
	C549.845947,111.822479 549.574463,109.781631 549.585938,106.924782 
z"/>
<path fill="#747270" opacity="1.000000" stroke="none" 
	d="
M396.486023,42.989647 
	C396.428070,43.542751 396.098511,44.224430 395.500244,45.038261 
	C395.559143,44.486347 395.886749,43.802284 396.486023,42.989647 
z"/>
<path fill="#C6C2B7" opacity="1.000000" stroke="none" 
	d="
M311.771057,174.298462 
	C311.996704,174.839722 311.948517,175.313095 311.900330,175.786469 
	C311.488037,175.673569 311.075775,175.560684 310.663483,175.447800 
	C310.941406,175.042068 311.219299,174.636322 311.771057,174.298462 
z"/>
<path fill="#C5C0B5" opacity="1.000000" stroke="none" 
	d="
M533.992310,174.006866 
	C535.609497,175.281754 537.733276,176.279678 538.642944,177.941986 
	C539.063782,178.710938 537.116577,180.775787 536.243042,182.253098 
	C535.629517,182.082504 535.015930,181.911896 534.402405,181.741302 
	C534.269714,179.445923 534.137024,177.150543 534.008667,174.418549 
	C534.012939,173.981949 534.002197,174.001678 533.992310,174.006866 
z"/>
<path fill="#C6C2B7" opacity="1.000000" stroke="none" 
	d="
M298.932373,173.362625 
	C299.493561,173.535141 299.982697,174.062042 300.666290,174.772491 
	C300.885864,177.007385 300.910950,179.058716 300.851501,181.540833 
	C299.445465,181.979187 298.123901,181.986771 296.401794,181.996552 
	C296.954254,179.238190 297.907288,176.477600 298.932373,173.362625 
z"/>
<path fill="#C6C2B7" opacity="1.000000" stroke="none" 
	d="
M298.362457,186.921356 
	C298.747772,186.272064 299.466827,185.665146 300.495972,185.043030 
	C300.102753,185.673111 299.399475,186.318405 298.362457,186.921356 
z"/>
<path fill="#C6C2B7" opacity="1.000000" stroke="none" 
	d="
M553.762939,181.765900 
	C553.205383,181.424118 552.924866,181.019547 552.644348,180.614960 
	C553.057373,180.510727 553.470459,180.406494 553.883484,180.302277 
	C553.935669,180.769226 553.987854,181.236191 553.762939,181.765900 
z"/>
<path fill="#5F5E5B" opacity="1.000000" stroke="none" 
	d="
M188.621521,55.738770 
	C199.839783,52.691116 202.721832,52.667400 215.611160,55.324986 
	C215.611160,60.351974 215.745621,65.568344 215.496033,70.766281 
	C215.446976,71.787910 213.935379,73.569275 213.062912,73.591194 
	C205.521133,73.780701 197.967361,73.751923 190.428909,73.471954 
	C189.536041,73.438789 188.006332,71.521660 187.980621,70.448868 
	C187.866241,65.674736 188.191666,60.890064 188.621521,55.738770 
z"/>
<path fill="#EEEDED" opacity="1.000000" stroke="none" 
	d="
M564.036072,80.762344 
	C561.224548,80.760025 558.881531,80.952858 556.591187,80.688934 
	C555.147339,80.522560 552.582581,79.643272 552.595093,79.134880 
	C552.642639,77.204468 552.980652,74.224228 554.218323,73.583145 
	C557.600464,71.831314 561.493530,70.156158 565.187012,70.150108 
	C569.602173,70.142868 574.187195,71.475922 578.345764,73.120804 
	C579.786682,73.690773 580.172363,76.928703 581.039978,78.948059 
	C579.348206,79.548218 577.684448,80.545708 575.958984,80.667236 
	C572.164856,80.934456 568.339478,80.759010 564.036072,80.762344 
z"/>
<path fill="#BBB9B7" opacity="1.000000" stroke="none" 
	d="
M613.189087,114.658585 
	C611.264465,115.068985 609.623352,115.750824 607.453186,116.652443 
	C607.453186,112.138237 607.453186,107.839706 607.453186,102.412781 
	C609.200256,103.892136 610.392883,104.901962 611.585449,105.911797 
	C611.487305,105.466637 611.389221,105.021469 611.291077,104.576309 
	C614.604858,103.890457 617.918640,103.204613 622.872742,102.179253 
	C621.838562,107.918205 621.088074,112.083244 620.337524,116.248291 
	C618.049194,115.808876 615.760803,115.369453 613.189087,114.658585 
M619.970215,112.371315 
	C618.610840,111.847153 617.251404,111.322990 615.892029,110.798828 
	C615.758362,111.378639 615.624756,111.958443 615.491089,112.538246 
	C616.775757,112.646492 618.060425,112.754730 619.970215,112.371315 
z"/>
<path fill="#F7F6F4" opacity="1.000000" stroke="none" 
	d="
M561.981201,52.788483 
	C569.960815,50.272751 573.421448,52.412373 573.452209,59.047684 
	C573.470825,63.068306 570.721069,65.339066 567.943359,65.495964 
	C565.431885,65.637833 562.343750,63.558651 560.286560,61.630283 
	C557.976379,59.464687 558.130798,56.548698 560.938049,54.316124 
	C561.308289,54.021679 561.508179,53.512932 561.981201,52.788483 
z"/>
<path fill="#CAC9C7" opacity="1.000000" stroke="none" 
	d="
M572.667908,115.648567 
	C572.358398,113.018852 572.515869,110.650978 572.103394,108.386932 
	C571.883179,107.178421 570.678955,106.149170 569.918884,105.039017 
	C569.220276,106.107590 568.120300,107.104279 567.913147,108.260880 
	C567.566040,110.198540 567.974670,112.265755 567.685242,114.222237 
	C567.557373,115.086571 566.499756,115.813377 565.864258,116.602631 
	C565.323242,115.889183 564.360291,115.201294 564.315308,114.457794 
	C564.134460,111.473831 564.008423,108.444435 564.370850,105.494324 
	C564.485413,104.561806 566.151978,103.163628 567.167969,103.110054 
	C571.959534,102.857384 576.771729,102.997452 581.770569,102.997452 
	C581.770569,107.735352 581.770569,112.075081 581.770569,116.414810 
	C581.141724,116.462845 580.512878,116.510880 579.884033,116.558914 
	C579.523010,112.765198 579.161926,108.971481 578.777649,104.933350 
	C574.346802,105.319603 575.453857,108.434509 574.890991,110.807617 
	C574.480103,112.540382 577.173523,115.711746 572.667908,115.648567 
z"/>
<path fill="#E7E6E3" opacity="1.000000" stroke="none" 
	d="
M584.582520,50.062473 
	C584.721375,48.499462 585.028259,47.263641 585.344910,45.988396 
	C590.740662,48.448460 594.167480,57.232075 592.120239,62.901123 
	C591.343933,65.050789 590.631470,67.339554 589.301147,69.126579 
	C588.582581,70.091873 586.621765,70.132401 585.221375,70.590126 
	C584.891846,69.347000 583.882019,67.700142 584.341797,66.925484 
	C587.610962,61.417351 587.376099,55.967972 584.582520,50.062473 
z"/>
<path fill="#767571" opacity="1.000000" stroke="none" 
	d="
M518.617188,106.062027 
	C515.686035,107.432320 512.487305,108.436729 509.924408,110.310699 
	C508.396973,111.427574 507.868042,113.910042 506.547791,115.495262 
	C506.471619,112.486053 506.737854,109.760193 507.403748,107.030075 
	C509.248383,107.025818 510.693359,107.025818 512.138306,107.025818 
	C512.139587,106.725273 512.140869,106.424728 512.142151,106.124184 
	C510.424194,106.124184 508.706268,106.124184 506.751526,105.815552 
	C506.012909,103.208580 505.511108,100.910240 505.009277,98.611900 
	C511.153778,96.122986 515.301453,98.923691 518.848877,104.362213 
	C518.886597,105.322823 518.751892,105.692429 518.617188,106.062027 
z"/>
<path fill="#777674" opacity="1.000000" stroke="none" 
	d="
M538.969727,116.268326 
	C534.955750,119.304436 532.920715,114.296135 529.507446,113.709099 
	C530.220947,112.583824 531.154785,111.744270 532.400208,110.697411 
	C532.810120,108.980713 532.908386,107.471313 533.006714,105.961929 
	C534.642761,105.262932 536.278809,104.563927 538.423035,104.294922 
	C538.944031,108.572716 538.956848,112.420525 538.969727,116.268326 
z"/>
<path fill="#E7E6E3" opacity="1.000000" stroke="none" 
	d="
M634.741211,106.041611 
	C634.915894,107.078796 635.090637,108.115982 634.847229,109.641479 
	C634.173462,110.171722 633.917847,110.213654 633.662170,110.255600 
	C631.963745,112.249825 630.265381,114.244057 627.815125,117.121025 
	C626.461975,112.316032 625.282288,108.126923 624.102539,103.937805 
	C624.697144,103.695465 625.291748,103.453117 625.886353,103.210770 
	C626.744751,104.780548 627.603149,106.350327 628.255371,107.543037 
	C630.057556,106.432732 631.927856,105.280457 633.935059,104.727524 
	C634.294983,105.565117 634.518066,105.803360 634.741211,106.041611 
z"/>
<path fill="#E7E6E3" opacity="1.000000" stroke="none" 
	d="
M580.713684,64.248825 
	C577.128967,62.141472 576.878601,57.082092 579.802429,52.084305 
	C583.728821,54.766178 584.102600,58.470615 580.713684,64.248825 
z"/>
<path fill="#BBB9B7" opacity="1.000000" stroke="none" 
	d="
M549.587769,107.363892 
	C549.574463,109.781631 549.845947,111.822479 549.435303,113.715332 
	C549.192688,114.833900 547.870728,115.718346 547.034119,116.708069 
	C546.376404,115.756317 545.281250,114.860886 545.149963,113.841347 
	C544.857483,111.569588 544.821167,109.205696 545.124023,106.938606 
	C545.305298,105.581795 546.324585,104.336929 546.967224,103.041763 
	C547.840088,104.336113 548.713013,105.630447 549.587769,107.363892 
z"/>
<path fill="#D0CFCD" opacity="1.000000" stroke="none" 
	d="
M518.649536,106.497238 
	C518.751892,105.692429 518.886597,105.322823 519.055420,104.660431 
	C519.820435,104.223076 520.551270,104.078522 521.718994,104.358658 
	C520.273560,112.558014 520.943298,113.698776 527.127075,113.049431 
	C527.603821,113.524483 527.855286,113.817032 528.106812,114.109581 
	C526.339355,114.902763 524.155396,116.738213 522.904663,116.238396 
	C521.144653,115.535118 519.775391,113.250771 518.822693,111.349983 
	C518.223450,110.154289 518.692200,108.423302 518.649536,106.497238 
z"/>
<path fill="#747270" opacity="1.000000" stroke="none" 
	d="
M526.901794,112.866936 
	C520.943298,113.698776 520.273560,112.558014 522.093506,104.383362 
	C524.605347,104.374329 527.179626,104.765274 529.526855,105.558228 
	C528.500488,108.262459 527.701172,110.564697 526.901794,112.866936 
z"/>
<path fill="#C3C1BF" opacity="1.000000" stroke="none" 
	d="
M633.763367,110.618156 
	C633.917847,110.213654 634.173462,110.171722 634.807861,110.042984 
	C636.088928,108.509705 636.941284,107.028534 637.911743,105.629234 
	C638.535461,104.729805 639.332825,103.950821 640.052368,103.117867 
	C640.292725,104.223541 640.918945,105.414322 640.697510,106.418190 
	C640.136292,108.963501 639.259644,111.448265 638.373596,113.908386 
	C638.025085,114.875893 637.315491,115.713303 636.770264,116.609947 
	C636.137634,115.657936 635.425415,114.747749 634.896790,113.741180 
	C634.443604,112.878311 634.200562,111.905121 633.763367,110.618156 
z"/>
<path fill="#C3C1BF" opacity="1.000000" stroke="none" 
	d="
M595.210205,110.954353 
	C593.514099,107.104149 591.817993,103.253952 590.121826,99.403755 
	C596.687012,100.494354 595.003052,106.468712 597.284180,110.439941 
	C596.595032,110.875511 595.902649,110.914932 595.210205,110.954353 
z"/>
<path fill="#F7F6F4" opacity="1.000000" stroke="none" 
	d="
M539.441040,116.263000 
	C538.956848,112.420525 538.944031,108.572716 538.808960,104.335938 
	C539.342041,102.049614 539.997375,100.152267 540.850403,97.682732 
	C541.503052,98.586174 542.331360,99.202805 542.348389,99.841034 
	C542.470825,104.435219 542.564453,109.040924 542.323975,113.624962 
	C542.275879,114.542183 540.754517,115.382103 539.441040,116.263000 
z"/>
<path fill="#D0CFCD" opacity="1.000000" stroke="none" 
	d="
M507.004089,107.034340 
	C506.737854,109.760193 506.471619,112.486053 506.219482,115.650169 
	C505.468414,115.357437 504.055115,114.636948 504.043060,113.893768 
	C503.963745,108.998245 504.186188,104.097839 504.659760,98.905464 
	C505.511108,100.910240 506.012909,103.208580 506.754272,106.043060 
	C506.993774,106.579208 507.004120,107.034340 507.004089,107.034340 
z"/>
<path fill="#ABA79F" opacity="1.000000" stroke="none" 
	d="
M527.127075,113.049431 
	C527.701172,110.564697 528.500488,108.262459 529.685181,105.903900 
	C530.529907,105.965149 530.989319,106.082726 531.791016,106.617691 
	C532.118469,108.324959 532.103516,109.614830 532.088562,110.904709 
	C531.154785,111.744270 530.220947,112.583824 529.126587,113.695557 
	C528.966064,113.967728 528.540771,114.065224 528.323792,114.087402 
	C527.855286,113.817032 527.603821,113.524483 527.127075,113.049431 
z"/>
<path fill="#CFCDCB" opacity="1.000000" stroke="none" 
	d="
M595.195190,111.344559 
	C595.902649,110.914932 596.595032,110.875511 597.516846,110.769547 
	C598.001526,110.020294 598.256897,109.337570 598.931213,108.141144 
	C599.559448,107.039078 599.768738,106.450714 599.978027,105.862350 
	C599.978027,105.862350 600.010681,105.621887 600.611389,105.709160 
	C601.550659,105.882355 601.889160,105.968285 602.227722,106.054207 
	C601.950623,107.457962 601.673584,108.861725 601.039673,110.821198 
	C600.479370,111.971329 600.275818,112.565750 600.072266,113.160172 
	C599.331299,114.327209 598.590332,115.494247 597.049500,117.920921 
	C596.146973,114.934082 595.663574,113.334412 595.195190,111.344559 
z"/>
<path fill="#D0CFCD" opacity="1.000000" stroke="none" 
	d="
M558.470520,113.157936 
	C558.570740,112.006378 558.671021,110.854813 559.090942,109.080032 
	C559.610168,106.741776 559.809814,105.026741 560.009460,103.311714 
	C560.625305,104.558701 561.750793,105.803703 561.755615,107.053055 
	C561.767334,110.076996 561.256531,113.102959 560.341064,115.806824 
	C559.307434,114.709679 558.888977,113.933807 558.470520,113.157936 
z"/>
<path fill="#C3C1BF" opacity="1.000000" stroke="none" 
	d="
M602.459473,105.899551 
	C601.889160,105.968285 601.550659,105.882355 600.710815,105.639679 
	C601.011047,103.134361 601.812500,100.785805 602.613953,98.437248 
	C603.289978,98.632973 603.966003,98.828690 604.642090,99.024414 
	C604.328186,100.596352 604.014282,102.168282 603.365479,103.851547 
	C603.030640,103.962883 602.809998,103.949287 602.809998,103.949287 
	C602.809998,103.949287 603.136963,104.160187 603.136963,104.160187 
	C602.988403,104.688431 602.839844,105.216667 602.459473,105.899551 
z"/>
<path fill="#CFCDCB" opacity="1.000000" stroke="none" 
	d="
M552.627808,113.750275 
	C551.655457,110.186218 549.245728,106.482323 553.567139,104.062607 
	C553.211487,107.707237 552.919617,110.728752 552.627808,113.750275 
z"/>
<path fill="#D0CFCD" opacity="1.000000" stroke="none" 
	d="
M552.642212,114.122665 
	C552.919617,110.728752 553.211487,107.707237 553.741821,104.346436 
	C554.755371,107.179657 555.530457,110.352165 556.657715,114.060349 
	C557.011169,115.161751 557.012451,115.727478 557.013733,116.293205 
	C555.561340,115.693825 554.109009,115.094444 552.642212,114.122665 
z"/>
<path fill="#CFCDCB" opacity="1.000000" stroke="none" 
	d="
M559.700500,103.366470 
	C559.809814,105.026741 559.610168,106.741776 559.177490,108.741180 
	C559.093384,107.157448 559.242493,105.289330 559.700500,103.366470 
z"/>
<path fill="#CFCDCB" opacity="1.000000" stroke="none" 
	d="
M557.267029,116.358154 
	C557.012451,115.727478 557.011169,115.161751 557.008911,114.171509 
	C557.321533,113.581566 557.635132,113.416138 558.209595,113.204315 
	C558.888977,113.933807 559.307434,114.709679 559.918091,115.879623 
	C559.246948,116.323509 558.383606,116.373306 557.267029,116.358154 
z"/>
<path fill="#E7E6E3" opacity="1.000000" stroke="none" 
	d="
M532.400208,110.697403 
	C532.103516,109.614830 532.118469,108.324959 532.146484,106.647339 
	C532.159607,106.259590 532.577271,106.094139 532.791992,106.028030 
	C532.908386,107.471313 532.810120,108.980713 532.400208,110.697403 
z"/>
<path fill="#C3C1BF" opacity="1.000000" stroke="none" 
	d="
M600.268066,113.040535 
	C600.275818,112.565750 600.479370,111.971329 600.919922,111.160889 
	C600.925903,111.603539 600.694885,112.262215 600.268066,113.040535 
z"/>
<path fill="#C3C1BF" opacity="1.000000" stroke="none" 
	d="
M599.781250,105.982620 
	C599.768738,106.450714 599.559448,107.039078 599.111328,107.836761 
	C599.109741,107.398346 599.347046,106.750618 599.781250,105.982620 
z"/>
<path fill="#C3C1BF" opacity="1.000000" stroke="none" 
	d="
M634.632690,105.839836 
	C634.518066,105.803360 634.294983,105.565117 634.095947,105.071587 
	C634.287903,105.073952 634.422607,105.347878 634.632690,105.839836 
z"/>
<path fill="#595856" opacity="1.000000" stroke="none" 
	d="
M619.657654,112.617142 
	C618.060425,112.754730 616.775757,112.646492 615.491089,112.538246 
	C615.624756,111.958443 615.758362,111.378639 615.892029,110.798828 
	C617.251404,111.322990 618.610840,111.847153 619.657654,112.617142 
z"/>
<path fill="#CAC9C7" opacity="1.000000" stroke="none" 
	d="
M507.403748,107.030075 
	C507.004120,107.034340 506.993774,106.579208 506.991028,106.351700 
	C508.706268,106.124184 510.424194,106.124184 512.142151,106.124184 
	C512.140869,106.424728 512.139587,106.725273 512.138306,107.025818 
	C510.693359,107.025818 509.248383,107.025818 507.403748,107.030075 
z"/>
<path fill="#CFCDCB" opacity="1.000000" stroke="none" 
	d="
M603.072510,104.105042 
	C603.136963,104.160187 602.809998,103.949287 602.809998,103.949287 
	C602.809998,103.949287 603.030640,103.962883 603.092590,104.046227 
	C603.154541,104.129570 603.008118,104.049896 603.072510,104.105042 
z"/>
</svg>